<?xml version="1.0" encoding="UTF-8" ?>
<svg version="1.1" width="80" height="32" xmlns="http://www.w3.org/2000/svg" shape-rendering="crispEdges">
<rect x="74" y="1" width="1" height="3" fill="#201533" />
<rect x="9" y="2" width="1" height="3" fill="#201533" />
<rect x="11" y="2" width="1" height="2" fill="#201533" />
<rect x="25" y="2" width="1" height="3" fill="#201533" />
<rect x="27" y="2" width="1" height="2" fill="#201533" />
<rect x="58" y="2" width="1" height="3" fill="#201533" />
<rect x="60" y="2" width="1" height="2" fill="#201533" />
<rect x="70" y="2" width="1" height="1" fill="#201533" />
<rect x="72" y="2" width="2" height="2" fill="#201533" />
<rect x="75" y="2" width="2" height="1" fill="#201533" />
<rect x="5" y="3" width="1" height="1" fill="#201533" />
<rect x="7" y="3" width="2" height="2" fill="#201533" />
<rect x="10" y="3" width="1" height="2" fill="#201533" />
<rect x="21" y="3" width="1" height="1" fill="#201533" />
<rect x="23" y="3" width="2" height="2" fill="#201533" />
<rect x="26" y="3" width="1" height="2" fill="#201533" />
<rect x="42" y="3" width="1" height="3" fill="#201533" />
<rect x="44" y="3" width="1" height="2" fill="#201533" />
<rect x="54" y="3" width="1" height="1" fill="#201533" />
<rect x="56" y="3" width="2" height="2" fill="#201533" />
<rect x="59" y="3" width="1" height="2" fill="#201533" />
<rect x="68" y="3" width="2" height="1" fill="#201533" />
<rect x="71" y="3" width="1" height="4" fill="#201533" />
<rect x="75" y="3" width="1" height="1" fill="#201533" />
<rect x="3" y="4" width="2" height="1" fill="#201533" />
<rect x="6" y="4" width="1" height="3" fill="#201533" />
<rect x="19" y="4" width="2" height="1" fill="#201533" />
<rect x="22" y="4" width="1" height="3" fill="#201533" />
<rect x="35" y="4" width="4" height="1" fill="#201533" />
<rect x="40" y="4" width="2" height="2" fill="#201533" />
<rect x="43" y="4" width="1" height="2" fill="#201533" />
<rect x="52" y="4" width="2" height="1" fill="#201533" />
<rect x="55" y="4" width="1" height="3" fill="#201533" />
<rect x="69" y="4" width="1" height="2" fill="#201533" />
<rect x="72" y="4" width="1" height="1" fill="#201533" />
<rect x="73" y="4" width="2" height="3" fill="#FFFFFF" />
<rect x="76" y="4" width="1" height="2" fill="#201533" />
<rect x="4" y="5" width="1" height="1" fill="#201533" />
<rect x="7" y="5" width="1" height="1" fill="#201533" />
<rect x="8" y="5" width="2" height="2" fill="#FFFFFF" />
<rect x="11" y="5" width="1" height="1" fill="#201533" />
<rect x="20" y="5" width="1" height="1" fill="#201533" />
<rect x="23" y="5" width="1" height="1" fill="#201533" />
<rect x="24" y="5" width="3" height="2" fill="#FFFFFF" />
<rect x="27" y="5" width="1" height="1" fill="#201533" />
<rect x="36" y="5" width="2" height="1" fill="#201533" />
<rect x="39" y="5" width="1" height="2" fill="#201533" />
<rect x="53" y="5" width="1" height="1" fill="#201533" />
<rect x="56" y="5" width="1" height="1" fill="#201533" />
<rect x="57" y="5" width="2" height="2" fill="#FFFFFF" />
<rect x="60" y="5" width="1" height="1" fill="#201533" />
<rect x="72" y="5" width="1" height="2" fill="#FFFFFF" />
<rect x="7" y="6" width="1" height="1" fill="#FFFFFF" />
<rect x="23" y="6" width="1" height="1" fill="#FFFFFF" />
<rect x="40" y="6" width="3" height="1" fill="#FFFFFF" />
<rect x="44" y="6" width="1" height="1" fill="#201533" />
<rect x="56" y="6" width="1" height="1" fill="#FFFFFF" />
<rect x="4" y="7" width="4" height="1" fill="#0098DB" />
<rect x="8" y="7" width="1" height="5" fill="#201533" />
<rect x="9" y="7" width="1" height="3" fill="#0098DB" />
<rect x="11" y="7" width="2" height="2" fill="#FFFFFF" />
<rect x="21" y="7" width="3" height="2" fill="#0098DB" />
<rect x="24" y="7" width="1" height="6" fill="#201533" />
<rect x="25" y="7" width="1" height="3" fill="#0098DB" />
<rect x="38" y="7" width="2" height="2" fill="#0098DB" />
<rect x="40" y="7" width="1" height="2" fill="#201533" />
<rect x="41" y="7" width="1" height="3" fill="#0098DB" />
<rect x="53" y="7" width="1" height="2" fill="#1E579C" />
<rect x="54" y="7" width="2" height="4" fill="#0098DB" />
<rect x="56" y="7" width="1" height="1" fill="#201533" />
<rect x="57" y="7" width="1" height="1" fill="#0098DB" />
<rect x="69" y="7" width="1" height="2" fill="#1E579C" />
<rect x="70" y="7" width="2" height="3" fill="#0098DB" />
<rect x="72" y="7" width="1" height="1" fill="#201533" />
<rect x="73" y="7" width="1" height="1" fill="#0098DB" />
<rect x="3" y="8" width="2" height="1" fill="#0098DB" />
<rect x="5" y="8" width="2" height="2" fill="#FFFFFF" />
<rect x="7" y="8" width="1" height="2" fill="#0098DB" />
<rect x="10" y="8" width="1" height="2" fill="#1E579C" />
<rect x="20" y="8" width="1" height="2" fill="#0098DB" />
<rect x="26" y="8" width="1" height="2" fill="#1E579C" />
<rect x="27" y="8" width="2" height="2" fill="#FFFFFF" />
<rect x="37" y="8" width="1" height="3" fill="#0098DB" />
<rect x="42" y="8" width="1" height="2" fill="#FFFFFF" />
<rect x="56" y="8" width="2" height="2" fill="#FFFFFF" />
<rect x="72" y="8" width="1" height="2" fill="#0098DB" />
<rect x="73" y="8" width="2" height="2" fill="#FFFFFF" />
<rect x="4" y="9" width="1" height="1" fill="#0098DB" />
<rect x="11" y="9" width="1" height="1" fill="#1E579C" />
<rect x="21" y="9" width="1" height="2" fill="#0098DB" />
<rect x="22" y="9" width="2" height="2" fill="#FFFFFF" />
<rect x="38" y="9" width="1" height="2" fill="#0098DB" />
<rect x="39" y="9" width="2" height="2" fill="#FFFFFF" />
<rect x="53" y="9" width="1" height="3" fill="#0098DB" />
<rect x="69" y="9" width="1" height="2" fill="#0098DB" />
<rect x="6" y="10" width="1" height="1" fill="#0098DB" />
<rect x="7" y="10" width="1" height="3" fill="#201533" />
<rect x="9" y="10" width="1" height="4" fill="#201533" />
<rect x="25" y="10" width="1" height="2" fill="#201533" />
<rect x="41" y="10" width="1" height="2" fill="#201533" />
<rect x="56" y="10" width="2" height="3" fill="#201533" />
<rect x="70" y="10" width="1" height="1" fill="#0098DB" />
<rect x="71" y="10" width="3" height="2" fill="#201533" />
<rect x="6" y="11" width="1" height="4" fill="#201533" />
<rect x="10" y="11" width="1" height="3" fill="#201533" />
<rect x="22" y="11" width="2" height="2" fill="#201533" />
<rect x="26" y="11" width="1" height="1" fill="#252446" />
<rect x="37" y="11" width="4" height="2" fill="#201533" />
<rect x="54" y="11" width="2" height="3" fill="#201533" />
<rect x="58" y="11" width="1" height="1" fill="#201533" />
<rect x="70" y="11" width="1" height="1" fill="#252446" />
<rect x="74" y="11" width="1" height="3" fill="#201533" />
<rect x="5" y="12" width="1" height="3" fill="#201533" />
<rect x="21" y="12" width="1" height="2" fill="#201533" />
<rect x="25" y="12" width="1" height="1" fill="#252446" />
<rect x="26" y="12" width="1" height="2" fill="#201533" />
<rect x="41" y="12" width="1" height="1" fill="#252446" />
<rect x="42" y="12" width="1" height="3" fill="#201533" />
<rect x="70" y="12" width="1" height="2" fill="#201533" />
<rect x="71" y="12" width="1" height="1" fill="#252446" />
<rect x="72" y="12" width="2" height="1" fill="#201533" />
<rect x="11" y="13" width="1" height="1" fill="#201533" />
<rect x="22" y="13" width="1" height="1" fill="#201533" />
<rect x="25" y="13" width="1" height="1" fill="#201533" />
<rect x="27" y="13" width="1" height="1" fill="#201533" />
<rect x="37" y="13" width="1" height="1" fill="#201533" />
<rect x="40" y="13" width="1" height="1" fill="#252446" />
<rect x="41" y="13" width="1" height="2" fill="#201533" />
<rect x="56" y="13" width="1" height="1" fill="#252446" />
<rect x="73" y="13" width="1" height="1" fill="#201533" />
<rect x="75" y="13" width="1" height="1" fill="#201533" />
<rect x="43" y="14" width="1" height="1" fill="#201533" />
<rect x="55" y="14" width="1" height="1" fill="#252446" />
<rect x="56" y="14" width="2" height="1" fill="#201533" />
<rect x="9" y="17" width="1" height="1" fill="#201533" />
<rect x="12" y="17" width="1" height="2" fill="#201533" />
<rect x="26" y="17" width="1" height="3" fill="#201533" />
<rect x="28" y="17" width="1" height="2" fill="#201533" />
<rect x="10" y="18" width="1" height="3" fill="#201533" />
<rect x="21" y="18" width="1" height="2" fill="#201533" />
<rect x="24" y="18" width="2" height="2" fill="#201533" />
<rect x="27" y="18" width="1" height="2" fill="#201533" />
<rect x="37" y="18" width="1" height="2" fill="#201533" />
<rect x="41" y="18" width="1" height="3" fill="#201533" />
<rect x="43" y="18" width="1" height="2" fill="#201533" />
<rect x="73" y="18" width="1" height="3" fill="#201533" />
<rect x="75" y="18" width="1" height="2" fill="#201533" />
<rect x="4" y="19" width="3" height="1" fill="#201533" />
<rect x="8" y="19" width="2" height="2" fill="#201533" />
<rect x="11" y="19" width="1" height="2" fill="#201533" />
<rect x="20" y="19" width="1" height="1" fill="#201533" />
<rect x="23" y="19" width="1" height="3" fill="#201533" />
<rect x="36" y="19" width="1" height="1" fill="#201533" />
<rect x="39" y="19" width="2" height="2" fill="#201533" />
<rect x="42" y="19" width="1" height="2" fill="#201533" />
<rect x="53" y="19" width="1" height="3" fill="#201533" />
<rect x="57" y="19" width="1" height="3" fill="#201533" />
<rect x="59" y="19" width="1" height="2" fill="#201533" />
<rect x="69" y="19" width="1" height="2" fill="#201533" />
<rect x="71" y="19" width="2" height="2" fill="#201533" />
<rect x="74" y="19" width="1" height="2" fill="#201533" />
<rect x="5" y="20" width="1" height="1" fill="#201533" />
<rect x="7" y="20" width="1" height="3" fill="#201533" />
<rect x="22" y="20" width="1" height="1" fill="#201533" />
<rect x="24" y="20" width="1" height="1" fill="#201533" />
<rect x="25" y="20" width="2" height="3" fill="#FFFFFF" />
<rect x="28" y="20" width="1" height="2" fill="#201533" />
<rect x="38" y="20" width="1" height="3" fill="#201533" />
<rect x="52" y="20" width="1" height="1" fill="#201533" />
<rect x="55" y="20" width="2" height="2" fill="#201533" />
<rect x="58" y="20" width="1" height="2" fill="#201533" />
<rect x="68" y="20" width="1" height="2" fill="#201533" />
<rect x="70" y="20" width="1" height="3" fill="#201533" />
<rect x="8" y="21" width="1" height="1" fill="#201533" />
<rect x="9" y="21" width="2" height="2" fill="#FFFFFF" />
<rect x="12" y="21" width="1" height="1" fill="#201533" />
<rect x="24" y="21" width="1" height="2" fill="#FFFFFF" />
<rect x="39" y="21" width="1" height="1" fill="#201533" />
<rect x="40" y="21" width="3" height="2" fill="#FFFFFF" />
<rect x="43" y="21" width="2" height="1" fill="#201533" />
<rect x="54" y="21" width="1" height="2" fill="#201533" />
<rect x="71" y="21" width="1" height="1" fill="#201533" />
<rect x="72" y="21" width="2" height="2" fill="#FFFFFF" />
<rect x="75" y="21" width="1" height="2" fill="#201533" />
<rect x="8" y="22" width="1" height="1" fill="#FFFFFF" />
<rect x="23" y="22" width="1" height="1" fill="#FFFFFF" />
<rect x="39" y="22" width="1" height="1" fill="#FFFFFF" />
<rect x="55" y="22" width="3" height="1" fill="#FFFFFF" />
<rect x="59" y="22" width="1" height="1" fill="#201533" />
<rect x="71" y="22" width="1" height="1" fill="#FFFFFF" />
<rect x="5" y="23" width="1" height="2" fill="#1E579C" />
<rect x="6" y="23" width="2" height="3" fill="#0098DB" />
<rect x="8" y="23" width="1" height="1" fill="#201533" />
<rect x="9" y="23" width="1" height="1" fill="#1E579C" />
<rect x="21" y="23" width="1" height="2" fill="#1E579C" />
<rect x="22" y="23" width="2" height="4" fill="#0098DB" />
<rect x="24" y="23" width="2" height="1" fill="#201533" />
<rect x="26" y="23" width="1" height="1" fill="#1E579C" />
<rect x="27" y="23" width="2" height="2" fill="#FFFFFF" />
<rect x="37" y="23" width="1" height="2" fill="#1E579C" />
<rect x="38" y="23" width="2" height="3" fill="#0098DB" />
<rect x="40" y="23" width="1" height="1" fill="#201533" />
<rect x="41" y="23" width="1" height="1" fill="#1E579C" />
<rect x="54" y="23" width="2" height="2" fill="#0098DB" />
<rect x="56" y="23" width="1" height="2" fill="#201533" />
<rect x="57" y="23" width="1" height="3" fill="#0098DB" />
<rect x="68" y="23" width="4" height="2" fill="#0098DB" />
<rect x="72" y="23" width="1" height="5" fill="#201533" />
<rect x="73" y="23" width="1" height="3" fill="#0098DB" />
<rect x="4" y="24" width="1" height="1" fill="#1E579C" />
<rect x="8" y="24" width="2" height="2" fill="#0098DB" />
<rect x="10" y="24" width="2" height="2" fill="#FFFFFF" />
<rect x="20" y="24" width="1" height="1" fill="#1E579C" />
<rect x="24" y="24" width="3" height="2" fill="#0098DB" />
<rect x="36" y="24" width="1" height="1" fill="#1E579C" />
<rect x="40" y="24" width="2" height="2" fill="#0098DB" />
<rect x="42" y="24" width="2" height="2" fill="#FFFFFF" />
<rect x="53" y="24" width="1" height="2" fill="#0098DB" />
<rect x="58" y="24" width="1" height="2" fill="#FFFFFF" />
<rect x="67" y="24" width="1" height="2" fill="#0098DB" />
<rect x="74" y="24" width="2" height="2" fill="#FFFFFF" />
<rect x="4" y="25" width="1" height="1" fill="#FFFFFF" />
<rect x="5" y="25" width="1" height="2" fill="#0098DB" />
<rect x="20" y="25" width="1" height="1" fill="#FFFFFF" />
<rect x="21" y="25" width="1" height="2" fill="#0098DB" />
<rect x="36" y="25" width="2" height="1" fill="#FFFFFF" />
<rect x="54" y="25" width="1" height="2" fill="#0098DB" />
<rect x="55" y="25" width="2" height="2" fill="#FFFFFF" />
<rect x="68" y="25" width="2" height="2" fill="#FFFFFF" />
<rect x="70" y="25" width="2" height="1" fill="#0098DB" />
<rect x="6" y="26" width="1" height="1" fill="#0098DB" />
<rect x="7" y="26" width="3" height="2" fill="#201533" />
<rect x="24" y="26" width="2" height="3" fill="#201533" />
<rect x="38" y="26" width="1" height="1" fill="#0098DB" />
<rect x="39" y="26" width="3" height="3" fill="#201533" />
<rect x="57" y="26" width="1" height="3" fill="#201533" />
<rect x="70" y="26" width="1" height="1" fill="#0098DB" />
<rect x="71" y="26" width="1" height="3" fill="#201533" />
<rect x="73" y="26" width="1" height="1" fill="#201533" />
<rect x="74" y="26" width="1" height="1" fill="#1E579C" />
<rect x="5" y="27" width="1" height="3" fill="#201533" />
<rect x="6" y="27" width="1" height="1" fill="#252446" />
<rect x="10" y="27" width="1" height="4" fill="#201533" />
<rect x="21" y="27" width="1" height="1" fill="#252446" />
<rect x="22" y="27" width="2" height="1" fill="#201533" />
<rect x="26" y="27" width="1" height="4" fill="#201533" />
<rect x="37" y="27" width="1" height="2" fill="#201533" />
<rect x="38" y="27" width="1" height="2" fill="#252446" />
<rect x="42" y="27" width="1" height="4" fill="#201533" />
<rect x="54" y="27" width="1" height="2" fill="#201533" />
<rect x="55" y="27" width="1" height="2" fill="#252446" />
<rect x="56" y="27" width="1" height="4" fill="#201533" />
<rect x="70" y="27" width="1" height="3" fill="#201533" />
<rect x="73" y="27" width="1" height="1" fill="#252446" />
<rect x="6" y="28" width="1" height="1" fill="#201533" />
<rect x="7" y="28" width="1" height="1" fill="#252446" />
<rect x="8" y="28" width="2" height="1" fill="#201533" />
<rect x="11" y="28" width="1" height="3" fill="#201533" />
<rect x="21" y="28" width="1" height="2" fill="#201533" />
<rect x="22" y="28" width="1" height="1" fill="#252446" />
<rect x="23" y="28" width="1" height="1" fill="#201533" />
<rect x="27" y="28" width="1" height="3" fill="#201533" />
<rect x="69" y="28" width="1" height="3" fill="#201533" />
<rect x="72" y="28" width="1" height="1" fill="#252446" />
<rect x="73" y="28" width="1" height="3" fill="#201533" />
<rect x="9" y="29" width="1" height="1" fill="#201533" />
<rect x="25" y="29" width="1" height="2" fill="#201533" />
<rect x="40" y="29" width="2" height="1" fill="#201533" />
<rect x="43" y="29" width="1" height="2" fill="#201533" />
<rect x="54" y="29" width="1" height="1" fill="#252446" />
<rect x="55" y="29" width="1" height="2" fill="#201533" />
<rect x="72" y="29" width="1" height="2" fill="#201533" />
<rect x="12" y="30" width="1" height="1" fill="#201533" />
<rect x="28" y="30" width="1" height="1" fill="#201533" />
<rect x="41" y="30" width="1" height="1" fill="#201533" />
<rect x="57" y="30" width="1" height="1" fill="#201533" />
<rect x="74" y="30" width="1" height="1" fill="#201533" />
</svg>