<?xml version="1.0" encoding="UTF-8" ?>
<svg version="1.1" width="96" height="112" xmlns="http://www.w3.org/2000/svg" shape-rendering="crispEdges">
<rect x="25" y="2" width="1" height="3" fill="#201533" />
<rect x="27" y="2" width="1" height="2" fill="#201533" />
<rect x="72" y="2" width="1" height="3" fill="#201533" />
<rect x="74" y="2" width="1" height="2" fill="#201533" />
<rect x="21" y="3" width="1" height="1" fill="#201533" />
<rect x="23" y="3" width="2" height="2" fill="#201533" />
<rect x="26" y="3" width="1" height="2" fill="#201533" />
<rect x="68" y="3" width="1" height="1" fill="#201533" />
<rect x="70" y="3" width="2" height="2" fill="#201533" />
<rect x="73" y="3" width="1" height="2" fill="#201533" />
<rect x="19" y="4" width="2" height="1" fill="#201533" />
<rect x="22" y="4" width="1" height="3" fill="#201533" />
<rect x="66" y="4" width="2" height="1" fill="#201533" />
<rect x="69" y="4" width="1" height="3" fill="#201533" />
<rect x="20" y="5" width="1" height="1" fill="#201533" />
<rect x="23" y="5" width="1" height="1" fill="#201533" />
<rect x="24" y="5" width="2" height="2" fill="#FFFFFF" />
<rect x="27" y="5" width="1" height="1" fill="#201533" />
<rect x="67" y="5" width="1" height="1" fill="#201533" />
<rect x="70" y="5" width="1" height="1" fill="#201533" />
<rect x="71" y="5" width="3" height="2" fill="#FFFFFF" />
<rect x="74" y="5" width="2" height="1" fill="#201533" />
<rect x="23" y="6" width="1" height="1" fill="#FFFFFF" />
<rect x="70" y="6" width="1" height="1" fill="#FFFFFF" />
<rect x="20" y="7" width="4" height="1" fill="#0098DB" />
<rect x="24" y="7" width="1" height="5" fill="#201533" />
<rect x="25" y="7" width="1" height="3" fill="#0098DB" />
<rect x="27" y="7" width="2" height="2" fill="#FFFFFF" />
<rect x="68" y="7" width="3" height="1" fill="#0098DB" />
<rect x="71" y="7" width="2" height="2" fill="#201533" />
<rect x="73" y="7" width="1" height="3" fill="#0098DB" />
<rect x="75" y="7" width="2" height="2" fill="#FFFFFF" />
<rect x="19" y="8" width="2" height="1" fill="#0098DB" />
<rect x="21" y="8" width="2" height="2" fill="#FFFFFF" />
<rect x="23" y="8" width="1" height="2" fill="#0098DB" />
<rect x="26" y="8" width="1" height="2" fill="#1E579C" />
<rect x="67" y="8" width="2" height="2" fill="#FFFFFF" />
<rect x="69" y="8" width="2" height="1" fill="#0098DB" />
<rect x="74" y="8" width="1" height="2" fill="#1E579C" />
<rect x="20" y="9" width="1" height="1" fill="#0098DB" />
<rect x="27" y="9" width="1" height="1" fill="#1E579C" />
<rect x="70" y="9" width="2" height="2" fill="#0098DB" />
<rect x="72" y="9" width="1" height="3" fill="#201533" />
<rect x="75" y="9" width="1" height="1" fill="#1E579C" />
<rect x="22" y="10" width="1" height="1" fill="#0098DB" />
<rect x="23" y="10" width="1" height="3" fill="#201533" />
<rect x="25" y="10" width="1" height="4" fill="#201533" />
<rect x="73" y="10" width="2" height="2" fill="#201533" />
<rect x="21" y="11" width="2" height="4" fill="#201533" />
<rect x="26" y="11" width="1" height="3" fill="#201533" />
<rect x="69" y="11" width="3" height="2" fill="#201533" />
<rect x="75" y="11" width="1" height="3" fill="#201533" />
<rect x="74" y="12" width="1" height="2" fill="#201533" />
<rect x="20" y="13" width="1" height="2" fill="#201533" />
<rect x="27" y="13" width="1" height="1" fill="#201533" />
<rect x="68" y="13" width="3" height="2" fill="#201533" />
<rect x="76" y="13" width="1" height="1" fill="#201533" />
<rect x="24" y="18" width="1" height="3" fill="#201533" />
<rect x="26" y="18" width="1" height="2" fill="#201533" />
<rect x="73" y="18" width="1" height="3" fill="#201533" />
<rect x="75" y="18" width="1" height="2" fill="#201533" />
<rect x="20" y="19" width="1" height="1" fill="#201533" />
<rect x="22" y="19" width="2" height="2" fill="#201533" />
<rect x="25" y="19" width="1" height="2" fill="#201533" />
<rect x="68" y="19" width="1" height="1" fill="#201533" />
<rect x="70" y="19" width="3" height="2" fill="#201533" />
<rect x="74" y="19" width="1" height="2" fill="#201533" />
<rect x="18" y="20" width="2" height="1" fill="#201533" />
<rect x="21" y="20" width="1" height="3" fill="#201533" />
<rect x="66" y="20" width="2" height="1" fill="#201533" />
<rect x="69" y="20" width="1" height="3" fill="#201533" />
<rect x="19" y="21" width="1" height="1" fill="#201533" />
<rect x="22" y="21" width="1" height="1" fill="#201533" />
<rect x="23" y="21" width="2" height="2" fill="#FFFFFF" />
<rect x="26" y="21" width="1" height="1" fill="#201533" />
<rect x="67" y="21" width="1" height="1" fill="#201533" />
<rect x="70" y="21" width="1" height="1" fill="#201533" />
<rect x="71" y="21" width="3" height="2" fill="#FFFFFF" />
<rect x="75" y="21" width="1" height="1" fill="#201533" />
<rect x="22" y="22" width="1" height="1" fill="#FFFFFF" />
<rect x="70" y="22" width="1" height="1" fill="#FFFFFF" />
<rect x="18" y="23" width="2" height="2" fill="#FFFFFF" />
<rect x="20" y="23" width="3" height="2" fill="#0098DB" />
<rect x="23" y="23" width="1" height="6" fill="#201533" />
<rect x="24" y="23" width="1" height="1" fill="#0098DB" />
<rect x="65" y="23" width="3" height="2" fill="#FFFFFF" />
<rect x="68" y="23" width="3" height="2" fill="#0098DB" />
<rect x="71" y="23" width="2" height="5" fill="#201533" />
<rect x="73" y="23" width="1" height="3" fill="#0098DB" />
<rect x="24" y="24" width="1" height="4" fill="#201533" />
<rect x="25" y="24" width="1" height="2" fill="#0098DB" />
<rect x="26" y="24" width="2" height="2" fill="#FFFFFF" />
<rect x="74" y="24" width="2" height="2" fill="#FFFFFF" />
<rect x="21" y="25" width="2" height="3" fill="#0098DB" />
<rect x="69" y="25" width="2" height="2" fill="#0098DB" />
<rect x="25" y="26" width="2" height="2" fill="#201533" />
<rect x="68" y="26" width="1" height="2" fill="#0098DB" />
<rect x="73" y="26" width="1" height="3" fill="#201533" />
<rect x="27" y="27" width="1" height="3" fill="#201533" />
<rect x="69" y="27" width="1" height="1" fill="#0098DB" />
<rect x="70" y="27" width="1" height="4" fill="#201533" />
<rect x="74" y="27" width="1" height="4" fill="#201533" />
<rect x="21" y="28" width="2" height="3" fill="#201533" />
<rect x="26" y="28" width="1" height="2" fill="#201533" />
<rect x="69" y="28" width="1" height="3" fill="#201533" />
<rect x="71" y="28" width="1" height="1" fill="#201533" />
<rect x="75" y="28" width="1" height="3" fill="#201533" />
<rect x="20" y="29" width="1" height="2" fill="#201533" />
<rect x="28" y="29" width="1" height="1" fill="#201533" />
<rect x="68" y="29" width="1" height="2" fill="#201533" />
<rect x="76" y="30" width="1" height="1" fill="#201533" />
<rect x="25" y="34" width="1" height="3" fill="#201533" />
<rect x="27" y="34" width="1" height="2" fill="#201533" />
<rect x="73" y="34" width="1" height="3" fill="#201533" />
<rect x="75" y="34" width="1" height="2" fill="#201533" />
<rect x="21" y="35" width="1" height="1" fill="#201533" />
<rect x="23" y="35" width="2" height="2" fill="#201533" />
<rect x="26" y="35" width="1" height="2" fill="#201533" />
<rect x="69" y="35" width="1" height="1" fill="#201533" />
<rect x="71" y="35" width="2" height="2" fill="#201533" />
<rect x="74" y="35" width="1" height="2" fill="#201533" />
<rect x="19" y="36" width="2" height="1" fill="#201533" />
<rect x="22" y="36" width="1" height="3" fill="#201533" />
<rect x="67" y="36" width="2" height="1" fill="#201533" />
<rect x="70" y="36" width="1" height="3" fill="#201533" />
<rect x="20" y="37" width="1" height="1" fill="#201533" />
<rect x="23" y="37" width="1" height="1" fill="#201533" />
<rect x="24" y="37" width="2" height="2" fill="#FFFFFF" />
<rect x="27" y="37" width="1" height="1" fill="#201533" />
<rect x="68" y="37" width="1" height="1" fill="#201533" />
<rect x="71" y="37" width="1" height="1" fill="#201533" />
<rect x="72" y="37" width="2" height="2" fill="#FFFFFF" />
<rect x="75" y="37" width="1" height="1" fill="#201533" />
<rect x="23" y="38" width="1" height="1" fill="#FFFFFF" />
<rect x="71" y="38" width="1" height="1" fill="#FFFFFF" />
<rect x="18" y="39" width="3" height="2" fill="#FFFFFF" />
<rect x="21" y="39" width="3" height="2" fill="#0098DB" />
<rect x="24" y="39" width="1" height="5" fill="#201533" />
<rect x="25" y="39" width="1" height="3" fill="#0098DB" />
<rect x="67" y="39" width="5" height="1" fill="#0098DB" />
<rect x="72" y="39" width="1" height="5" fill="#201533" />
<rect x="73" y="39" width="1" height="1" fill="#0098DB" />
<rect x="26" y="40" width="1" height="2" fill="#FFFFFF" />
<rect x="66" y="40" width="1" height="1" fill="#0098DB" />
<rect x="67" y="40" width="3" height="2" fill="#FFFFFF" />
<rect x="70" y="40" width="2" height="2" fill="#0098DB" />
<rect x="73" y="40" width="1" height="5" fill="#201533" />
<rect x="74" y="40" width="1" height="2" fill="#0098DB" />
<rect x="22" y="41" width="2" height="1" fill="#0098DB" />
<rect x="22" y="42" width="1" height="1" fill="#0098DB" />
<rect x="23" y="42" width="1" height="3" fill="#201533" />
<rect x="25" y="42" width="1" height="3" fill="#201533" />
<rect x="70" y="42" width="1" height="1" fill="#0098DB" />
<rect x="71" y="42" width="1" height="3" fill="#201533" />
<rect x="22" y="43" width="1" height="3" fill="#201533" />
<rect x="26" y="43" width="1" height="4" fill="#201533" />
<rect x="70" y="43" width="1" height="3" fill="#201533" />
<rect x="74" y="43" width="1" height="4" fill="#201533" />
<rect x="21" y="44" width="1" height="3" fill="#201533" />
<rect x="27" y="44" width="1" height="3" fill="#201533" />
<rect x="69" y="44" width="1" height="3" fill="#201533" />
<rect x="75" y="44" width="1" height="3" fill="#201533" />
<rect x="20" y="45" width="1" height="2" fill="#201533" />
<rect x="68" y="45" width="1" height="2" fill="#201533" />
<rect x="28" y="46" width="1" height="1" fill="#201533" />
<rect x="76" y="46" width="1" height="1" fill="#201533" />
<rect x="26" y="50" width="1" height="3" fill="#201533" />
<rect x="28" y="50" width="1" height="2" fill="#201533" />
<rect x="74" y="50" width="1" height="3" fill="#201533" />
<rect x="76" y="50" width="1" height="2" fill="#201533" />
<rect x="22" y="51" width="1" height="1" fill="#201533" />
<rect x="24" y="51" width="2" height="2" fill="#201533" />
<rect x="27" y="51" width="1" height="2" fill="#201533" />
<rect x="70" y="51" width="1" height="1" fill="#201533" />
<rect x="72" y="51" width="2" height="2" fill="#201533" />
<rect x="75" y="51" width="1" height="2" fill="#201533" />
<rect x="20" y="52" width="2" height="1" fill="#201533" />
<rect x="23" y="52" width="1" height="3" fill="#201533" />
<rect x="69" y="52" width="1" height="1" fill="#201533" />
<rect x="70" y="52" width="1" height="1" fill="#252446" />
<rect x="71" y="52" width="1" height="3" fill="#201533" />
<rect x="21" y="53" width="1" height="1" fill="#201533" />
<rect x="24" y="53" width="1" height="1" fill="#201533" />
<rect x="25" y="53" width="2" height="2" fill="#FFFFFF" />
<rect x="28" y="53" width="1" height="1" fill="#201533" />
<rect x="70" y="53" width="1" height="1" fill="#201533" />
<rect x="72" y="53" width="1" height="1" fill="#201533" />
<rect x="73" y="53" width="2" height="2" fill="#FFFFFF" />
<rect x="76" y="53" width="1" height="1" fill="#201533" />
<rect x="24" y="54" width="1" height="1" fill="#FFFFFF" />
<rect x="72" y="54" width="1" height="1" fill="#FFFFFF" />
<rect x="22" y="55" width="3" height="1" fill="#0098DB" />
<rect x="25" y="55" width="1" height="1" fill="#201533" />
<rect x="26" y="55" width="1" height="1" fill="#0098DB" />
<rect x="71" y="55" width="2" height="3" fill="#0098DB" />
<rect x="73" y="55" width="1" height="1" fill="#201533" />
<rect x="74" y="55" width="1" height="1" fill="#0098DB" />
<rect x="21" y="56" width="2" height="2" fill="#0098DB" />
<rect x="23" y="56" width="3" height="2" fill="#FFFFFF" />
<rect x="26" y="56" width="1" height="7" fill="#201533" />
<rect x="27" y="56" width="1" height="2" fill="#0098DB" />
<rect x="70" y="56" width="1" height="1" fill="#1E579C" />
<rect x="73" y="56" width="1" height="2" fill="#0098DB" />
<rect x="74" y="56" width="3" height="2" fill="#FFFFFF" />
<rect x="70" y="57" width="1" height="1" fill="#FFFFFF" />
<rect x="23" y="58" width="1" height="1" fill="#0098DB" />
<rect x="24" y="58" width="2" height="2" fill="#201533" />
<rect x="71" y="58" width="1" height="1" fill="#0098DB" />
<rect x="72" y="58" width="3" height="2" fill="#201533" />
<rect x="23" y="59" width="1" height="3" fill="#201533" />
<rect x="27" y="59" width="1" height="4" fill="#201533" />
<rect x="71" y="59" width="1" height="3" fill="#201533" />
<rect x="75" y="59" width="1" height="4" fill="#201533" />
<rect x="22" y="60" width="1" height="3" fill="#201533" />
<rect x="24" y="60" width="1" height="1" fill="#201533" />
<rect x="70" y="60" width="1" height="3" fill="#201533" />
<rect x="72" y="60" width="1" height="1" fill="#201533" />
<rect x="74" y="60" width="1" height="3" fill="#201533" />
<rect x="21" y="61" width="1" height="2" fill="#201533" />
<rect x="69" y="61" width="1" height="2" fill="#201533" />
<rect x="28" y="62" width="1" height="1" fill="#201533" />
<rect x="76" y="62" width="1" height="1" fill="#201533" />
<rect x="25" y="66" width="1" height="1" fill="#252446" />
<rect x="27" y="66" width="1" height="1" fill="#252446" />
<rect x="73" y="66" width="1" height="1" fill="#252446" />
<rect x="75" y="66" width="1" height="1" fill="#252446" />
<rect x="83" y="66" width="1" height="1" fill="#FFFFFF" />
<rect x="23" y="67" width="1" height="2" fill="#252446" />
<rect x="24" y="67" width="4" height="1" fill="#201533" />
<rect x="71" y="67" width="1" height="2" fill="#252446" />
<rect x="72" y="67" width="4" height="1" fill="#201533" />
<rect x="79" y="67" width="2" height="1" fill="#FFFFFF" />
<rect x="84" y="67" width="1" height="1" fill="#FFFFFF" />
<rect x="22" y="68" width="1" height="1" fill="#201533" />
<rect x="24" y="68" width="3" height="1" fill="#201533" />
<rect x="27" y="68" width="1" height="1" fill="#252446" />
<rect x="70" y="68" width="1" height="1" fill="#201533" />
<rect x="72" y="68" width="3" height="1" fill="#201533" />
<rect x="75" y="68" width="1" height="1" fill="#252446" />
<rect x="85" y="68" width="1" height="1" fill="#FFFFFF" />
<rect x="22" y="69" width="1" height="1" fill="#252446" />
<rect x="23" y="69" width="3" height="1" fill="#201533" />
<rect x="26" y="69" width="1" height="2" fill="#FFFFFF" />
<rect x="31" y="69" width="1" height="1" fill="#FFFFFF" />
<rect x="35" y="69" width="1" height="1" fill="#FFFFFF" />
<rect x="71" y="69" width="1" height="2" fill="#201533" />
<rect x="72" y="69" width="1" height="1" fill="#252446" />
<rect x="73" y="69" width="1" height="1" fill="#201533" />
<rect x="74" y="69" width="1" height="2" fill="#FFFFFF" />
<rect x="81" y="69" width="1" height="1" fill="#FFFFFF" />
<rect x="83" y="69" width="1" height="1" fill="#FFFFFF" />
<rect x="86" y="69" width="1" height="1" fill="#FFFFFF" />
<rect x="23" y="70" width="2" height="1" fill="#201533" />
<rect x="25" y="70" width="1" height="1" fill="#FFFFFF" />
<rect x="33" y="70" width="1" height="1" fill="#FFFFFF" />
<rect x="36" y="70" width="1" height="1" fill="#FFFFFF" />
<rect x="72" y="70" width="1" height="1" fill="#201533" />
<rect x="73" y="70" width="1" height="1" fill="#FFFFFF" />
<rect x="84" y="70" width="1" height="1" fill="#FFFFFF" />
<rect x="22" y="71" width="2" height="1" fill="#1E579C" />
<rect x="24" y="71" width="5" height="2" fill="#0098DB" />
<rect x="29" y="71" width="3" height="2" fill="#FFFFFF" />
<rect x="70" y="71" width="2" height="2" fill="#1E579C" />
<rect x="72" y="71" width="6" height="2" fill="#0098DB" />
<rect x="78" y="71" width="2" height="2" fill="#FFFFFF" />
<rect x="21" y="72" width="1" height="2" fill="#FFFFFF" />
<rect x="22" y="72" width="1" height="1" fill="#1E579C" />
<rect x="23" y="72" width="1" height="3" fill="#0098DB" />
<rect x="69" y="72" width="1" height="2" fill="#FFFFFF" />
<rect x="22" y="73" width="1" height="1" fill="#FFFFFF" />
<rect x="24" y="73" width="3" height="1" fill="#0098DB" />
<rect x="33" y="73" width="1" height="1" fill="#FFFFFF" />
<rect x="36" y="73" width="1" height="1" fill="#FFFFFF" />
<rect x="70" y="73" width="1" height="1" fill="#FFFFFF" />
<rect x="71" y="73" width="1" height="1" fill="#1E579C" />
<rect x="72" y="73" width="3" height="2" fill="#0098DB" />
<rect x="84" y="73" width="1" height="1" fill="#FFFFFF" />
<rect x="24" y="74" width="2" height="1" fill="#0098DB" />
<rect x="26" y="74" width="1" height="5" fill="#201533" />
<rect x="31" y="74" width="1" height="1" fill="#FFFFFF" />
<rect x="35" y="74" width="1" height="1" fill="#FFFFFF" />
<rect x="71" y="74" width="1" height="1" fill="#0098DB" />
<rect x="81" y="74" width="1" height="1" fill="#FFFFFF" />
<rect x="83" y="74" width="1" height="1" fill="#FFFFFF" />
<rect x="86" y="74" width="1" height="1" fill="#FFFFFF" />
<rect x="23" y="75" width="3" height="2" fill="#201533" />
<rect x="27" y="75" width="1" height="4" fill="#201533" />
<rect x="71" y="75" width="5" height="2" fill="#201533" />
<rect x="85" y="75" width="1" height="1" fill="#FFFFFF" />
<rect x="21" y="76" width="2" height="3" fill="#201533" />
<rect x="69" y="76" width="2" height="3" fill="#201533" />
<rect x="79" y="76" width="2" height="1" fill="#FFFFFF" />
<rect x="84" y="76" width="1" height="1" fill="#FFFFFF" />
<rect x="23" y="77" width="2" height="1" fill="#201533" />
<rect x="71" y="77" width="2" height="1" fill="#201533" />
<rect x="74" y="77" width="2" height="2" fill="#201533" />
<rect x="83" y="77" width="1" height="1" fill="#FFFFFF" />
<rect x="28" y="78" width="1" height="1" fill="#201533" />
<rect x="76" y="78" width="1" height="1" fill="#201533" />
<rect x="35" y="80" width="2" height="1" fill="#FFFFFF" />
<rect x="38" y="81" width="1" height="2" fill="#FFFFFF" />
<rect x="85" y="81" width="2" height="1" fill="#FFFFFF" />
<rect x="88" y="81" width="1" height="1" fill="#FFFFFF" />
<rect x="25" y="82" width="1" height="1" fill="#252446" />
<rect x="27" y="82" width="1" height="1" fill="#252446" />
<rect x="33" y="82" width="2" height="1" fill="#FFFFFF" />
<rect x="37" y="82" width="1" height="2" fill="#FFFFFF" />
<rect x="72" y="82" width="1" height="1" fill="#252446" />
<rect x="74" y="82" width="1" height="2" fill="#201533" />
<rect x="87" y="82" width="1" height="1" fill="#FFFFFF" />
<rect x="89" y="82" width="1" height="1" fill="#FFFFFF" />
<rect x="23" y="83" width="1" height="2" fill="#252446" />
<rect x="24" y="83" width="4" height="1" fill="#201533" />
<rect x="39" y="83" width="1" height="10" fill="#FFFFFF" />
<rect x="70" y="83" width="1" height="1" fill="#252446" />
<rect x="71" y="83" width="3" height="2" fill="#201533" />
<rect x="86" y="83" width="1" height="2" fill="#FFFFFF" />
<rect x="90" y="83" width="1" height="2" fill="#FFFFFF" />
<rect x="22" y="84" width="1" height="2" fill="#201533" />
<rect x="24" y="84" width="3" height="1" fill="#201533" />
<rect x="27" y="84" width="1" height="1" fill="#252446" />
<rect x="35" y="84" width="2" height="1" fill="#FFFFFF" />
<rect x="40" y="84" width="1" height="1" fill="#FFFFFF" />
<rect x="69" y="84" width="1" height="1" fill="#252446" />
<rect x="70" y="84" width="1" height="1" fill="#201533" />
<rect x="88" y="84" width="1" height="1" fill="#FFFFFF" />
<rect x="23" y="85" width="3" height="1" fill="#201533" />
<rect x="26" y="85" width="1" height="2" fill="#FFFFFF" />
<rect x="36" y="85" width="1" height="7" fill="#FFFFFF" />
<rect x="38" y="85" width="1" height="1" fill="#FFFFFF" />
<rect x="41" y="85" width="1" height="6" fill="#FFFFFF" />
<rect x="69" y="85" width="1" height="1" fill="#201533" />
<rect x="70" y="85" width="2" height="1" fill="#252446" />
<rect x="72" y="85" width="2" height="2" fill="#FFFFFF" />
<rect x="74" y="85" width="1" height="1" fill="#201533" />
<rect x="85" y="85" width="1" height="6" fill="#FFFFFF" />
<rect x="89" y="85" width="1" height="1" fill="#FFFFFF" />
<rect x="91" y="85" width="1" height="6" fill="#FFFFFF" />
<rect x="23" y="86" width="2" height="1" fill="#201533" />
<rect x="25" y="86" width="1" height="1" fill="#FFFFFF" />
<rect x="70" y="86" width="1" height="1" fill="#201533" />
<rect x="71" y="86" width="1" height="1" fill="#FFFFFF" />
<rect x="88" y="86" width="1" height="4" fill="#FFFFFF" />
<rect x="90" y="86" width="1" height="4" fill="#FFFFFF" />
<rect x="22" y="87" width="2" height="3" fill="#1E579C" />
<rect x="24" y="87" width="6" height="2" fill="#0098DB" />
<rect x="30" y="87" width="2" height="2" fill="#FFFFFF" />
<rect x="35" y="87" width="1" height="2" fill="#FFFFFF" />
<rect x="38" y="87" width="1" height="2" fill="#FFFFFF" />
<rect x="70" y="87" width="1" height="4" fill="#1E579C" />
<rect x="71" y="87" width="5" height="2" fill="#0098DB" />
<rect x="76" y="87" width="3" height="2" fill="#FFFFFF" />
<rect x="69" y="88" width="1" height="1" fill="#1E579C" />
<rect x="21" y="89" width="1" height="2" fill="#FFFFFF" />
<rect x="24" y="89" width="3" height="2" fill="#0098DB" />
<rect x="69" y="89" width="1" height="1" fill="#FFFFFF" />
<rect x="71" y="89" width="3" height="2" fill="#0098DB" />
<rect x="22" y="90" width="1" height="1" fill="#FFFFFF" />
<rect x="23" y="90" width="1" height="1" fill="#1E579C" />
<rect x="27" y="90" width="1" height="1" fill="#0098DB" />
<rect x="38" y="90" width="1" height="1" fill="#FFFFFF" />
<rect x="74" y="90" width="1" height="1" fill="#0098DB" />
<rect x="89" y="90" width="1" height="1" fill="#FFFFFF" />
<rect x="23" y="91" width="5" height="2" fill="#201533" />
<rect x="35" y="91" width="1" height="1" fill="#FFFFFF" />
<rect x="40" y="91" width="1" height="1" fill="#FFFFFF" />
<rect x="70" y="91" width="5" height="2" fill="#201533" />
<rect x="86" y="91" width="1" height="2" fill="#FFFFFF" />
<rect x="88" y="91" width="1" height="1" fill="#FFFFFF" />
<rect x="90" y="91" width="1" height="2" fill="#FFFFFF" />
<rect x="21" y="92" width="2" height="3" fill="#201533" />
<rect x="37" y="92" width="1" height="2" fill="#FFFFFF" />
<rect x="69" y="92" width="1" height="3" fill="#201533" />
<rect x="75" y="92" width="1" height="3" fill="#201533" />
<rect x="23" y="93" width="2" height="1" fill="#201533" />
<rect x="26" y="93" width="2" height="2" fill="#201533" />
<rect x="33" y="93" width="2" height="1" fill="#FFFFFF" />
<rect x="38" y="93" width="1" height="2" fill="#FFFFFF" />
<rect x="70" y="93" width="2" height="1" fill="#201533" />
<rect x="74" y="93" width="1" height="1" fill="#201533" />
<rect x="87" y="93" width="1" height="1" fill="#FFFFFF" />
<rect x="89" y="93" width="1" height="1" fill="#FFFFFF" />
<rect x="28" y="94" width="1" height="1" fill="#201533" />
<rect x="70" y="94" width="1" height="1" fill="#201533" />
<rect x="76" y="94" width="1" height="1" fill="#201533" />
<rect x="85" y="94" width="2" height="1" fill="#FFFFFF" />
<rect x="88" y="94" width="1" height="1" fill="#FFFFFF" />
<rect x="35" y="95" width="2" height="1" fill="#FFFFFF" />
<rect x="38" y="96" width="1" height="1" fill="#FFFFFF" />
<rect x="25" y="98" width="1" height="3" fill="#201533" />
<rect x="27" y="98" width="1" height="2" fill="#201533" />
<rect x="41" y="98" width="1" height="1" fill="#FFFFFF" />
<rect x="73" y="98" width="1" height="3" fill="#201533" />
<rect x="75" y="98" width="1" height="2" fill="#201533" />
<rect x="21" y="99" width="1" height="1" fill="#201533" />
<rect x="23" y="99" width="2" height="2" fill="#201533" />
<rect x="26" y="99" width="1" height="2" fill="#201533" />
<rect x="69" y="99" width="1" height="1" fill="#201533" />
<rect x="71" y="99" width="2" height="2" fill="#201533" />
<rect x="74" y="99" width="1" height="2" fill="#201533" />
<rect x="90" y="99" width="1" height="1" fill="#FFFFFF" />
<rect x="19" y="100" width="2" height="1" fill="#201533" />
<rect x="21" y="100" width="1" height="2" fill="#252446" />
<rect x="22" y="100" width="1" height="1" fill="#201533" />
<rect x="39" y="100" width="1" height="1" fill="#FFFFFF" />
<rect x="42" y="100" width="1" height="1" fill="#FFFFFF" />
<rect x="67" y="100" width="2" height="1" fill="#201533" />
<rect x="69" y="100" width="1" height="2" fill="#252446" />
<rect x="70" y="100" width="1" height="1" fill="#201533" />
<rect x="20" y="101" width="1" height="1" fill="#201533" />
<rect x="22" y="101" width="1" height="1" fill="#252446" />
<rect x="23" y="101" width="1" height="1" fill="#201533" />
<rect x="24" y="101" width="2" height="2" fill="#FFFFFF" />
<rect x="26" y="101" width="1" height="1" fill="#252446" />
<rect x="27" y="101" width="1" height="1" fill="#201533" />
<rect x="41" y="101" width="1" height="1" fill="#FFFFFF" />
<rect x="43" y="101" width="1" height="2" fill="#FFFFFF" />
<rect x="68" y="101" width="1" height="1" fill="#201533" />
<rect x="70" y="101" width="1" height="1" fill="#252446" />
<rect x="71" y="101" width="1" height="1" fill="#201533" />
<rect x="72" y="101" width="2" height="2" fill="#FFFFFF" />
<rect x="74" y="101" width="1" height="1" fill="#252446" />
<rect x="75" y="101" width="1" height="1" fill="#201533" />
<rect x="88" y="101" width="1" height="1" fill="#FFFFFF" />
<rect x="92" y="101" width="1" height="1" fill="#FFFFFF" />
<rect x="22" y="102" width="1" height="1" fill="#201533" />
<rect x="23" y="102" width="1" height="1" fill="#FFFFFF" />
<rect x="70" y="102" width="1" height="1" fill="#201533" />
<rect x="71" y="102" width="1" height="1" fill="#FFFFFF" />
<rect x="91" y="102" width="1" height="1" fill="#FFFFFF" />
<rect x="93" y="102" width="1" height="1" fill="#FFFFFF" />
<rect x="22" y="103" width="3" height="4" fill="#0098DB" />
<rect x="25" y="103" width="1" height="1" fill="#201533" />
<rect x="40" y="103" width="1" height="2" fill="#FFFFFF" />
<rect x="42" y="103" width="1" height="2" fill="#FFFFFF" />
<rect x="44" y="103" width="1" height="2" fill="#FFFFFF" />
<rect x="70" y="103" width="3" height="1" fill="#0098DB" />
<rect x="73" y="103" width="1" height="1" fill="#201533" />
<rect x="25" y="104" width="3" height="2" fill="#FFFFFF" />
<rect x="69" y="104" width="2" height="2" fill="#0098DB" />
<rect x="71" y="104" width="3" height="2" fill="#FFFFFF" />
<rect x="74" y="104" width="1" height="2" fill="#1E579C" />
<rect x="43" y="105" width="1" height="2" fill="#FFFFFF" />
<rect x="75" y="105" width="1" height="2" fill="#FFFFFF" />
<rect x="91" y="105" width="1" height="1" fill="#FFFFFF" />
<rect x="93" y="105" width="1" height="1" fill="#FFFFFF" />
<rect x="25" y="106" width="1" height="4" fill="#201533" />
<rect x="26" y="106" width="1" height="1" fill="#0098DB" />
<rect x="41" y="106" width="1" height="1" fill="#FFFFFF" />
<rect x="70" y="106" width="3" height="1" fill="#0098DB" />
<rect x="73" y="106" width="1" height="4" fill="#201533" />
<rect x="74" y="106" width="1" height="1" fill="#0098DB" />
<rect x="88" y="106" width="1" height="1" fill="#FFFFFF" />
<rect x="92" y="106" width="1" height="1" fill="#FFFFFF" />
<rect x="22" y="107" width="3" height="1" fill="#201533" />
<rect x="26" y="107" width="1" height="3" fill="#201533" />
<rect x="39" y="107" width="1" height="1" fill="#FFFFFF" />
<rect x="42" y="107" width="1" height="1" fill="#FFFFFF" />
<rect x="70" y="107" width="3" height="1" fill="#201533" />
<rect x="74" y="107" width="1" height="3" fill="#201533" />
<rect x="21" y="108" width="3" height="1" fill="#201533" />
<rect x="69" y="108" width="3" height="1" fill="#201533" />
<rect x="90" y="108" width="1" height="1" fill="#FFFFFF" />
<rect x="21" y="109" width="2" height="2" fill="#201533" />
<rect x="27" y="109" width="1" height="1" fill="#201533" />
<rect x="41" y="109" width="1" height="1" fill="#FFFFFF" />
<rect x="68" y="109" width="3" height="2" fill="#201533" />
<rect x="75" y="109" width="1" height="1" fill="#201533" />
<rect x="38" y="111" width="1" height="1" fill="#FFFFFF" />
</svg>