<?xml version="1.0" encoding="UTF-8" ?>
<svg version="1.1" width="96" height="16" xmlns="http://www.w3.org/2000/svg" shape-rendering="crispEdges">
<rect x="25" y="1" width="1" height="3" fill="#201533" />
<rect x="27" y="1" width="1" height="2" fill="#201533" />
<rect x="41" y="1" width="1" height="3" fill="#201533" />
<rect x="43" y="1" width="1" height="2" fill="#201533" />
<rect x="57" y="1" width="1" height="3" fill="#201533" />
<rect x="59" y="1" width="1" height="2" fill="#201533" />
<rect x="73" y="1" width="1" height="3" fill="#201533" />
<rect x="75" y="1" width="1" height="2" fill="#201533" />
<rect x="89" y="1" width="1" height="4" fill="#201533" />
<rect x="91" y="1" width="1" height="3" fill="#201533" />
<rect x="9" y="2" width="1" height="3" fill="#201533" />
<rect x="11" y="2" width="1" height="2" fill="#201533" />
<rect x="21" y="2" width="1" height="1" fill="#201533" />
<rect x="23" y="2" width="2" height="2" fill="#201533" />
<rect x="26" y="2" width="1" height="2" fill="#201533" />
<rect x="37" y="2" width="1" height="1" fill="#201533" />
<rect x="39" y="2" width="2" height="2" fill="#201533" />
<rect x="42" y="2" width="1" height="2" fill="#201533" />
<rect x="53" y="2" width="1" height="1" fill="#201533" />
<rect x="55" y="2" width="2" height="2" fill="#201533" />
<rect x="58" y="2" width="1" height="2" fill="#201533" />
<rect x="69" y="2" width="1" height="1" fill="#201533" />
<rect x="71" y="2" width="2" height="2" fill="#201533" />
<rect x="74" y="2" width="1" height="2" fill="#201533" />
<rect x="85" y="2" width="1" height="1" fill="#201533" />
<rect x="87" y="2" width="2" height="3" fill="#201533" />
<rect x="90" y="2" width="1" height="3" fill="#201533" />
<rect x="5" y="3" width="1" height="1" fill="#201533" />
<rect x="7" y="3" width="2" height="2" fill="#201533" />
<rect x="10" y="3" width="1" height="2" fill="#201533" />
<rect x="19" y="3" width="2" height="1" fill="#201533" />
<rect x="22" y="3" width="1" height="4" fill="#201533" />
<rect x="35" y="3" width="2" height="1" fill="#201533" />
<rect x="38" y="3" width="1" height="3" fill="#201533" />
<rect x="51" y="3" width="2" height="1" fill="#201533" />
<rect x="54" y="3" width="1" height="3" fill="#201533" />
<rect x="67" y="3" width="2" height="1" fill="#201533" />
<rect x="70" y="3" width="1" height="3" fill="#201533" />
<rect x="83" y="3" width="2" height="1" fill="#201533" />
<rect x="86" y="3" width="1" height="4" fill="#201533" />
<rect x="3" y="4" width="2" height="1" fill="#201533" />
<rect x="6" y="4" width="1" height="3" fill="#201533" />
<rect x="20" y="4" width="1" height="2" fill="#201533" />
<rect x="23" y="4" width="1" height="1" fill="#201533" />
<rect x="24" y="4" width="2" height="3" fill="#FFFFFF" />
<rect x="27" y="4" width="1" height="2" fill="#201533" />
<rect x="36" y="4" width="1" height="1" fill="#201533" />
<rect x="39" y="4" width="1" height="1" fill="#201533" />
<rect x="40" y="4" width="2" height="2" fill="#FFFFFF" />
<rect x="43" y="4" width="1" height="1" fill="#201533" />
<rect x="52" y="4" width="1" height="1" fill="#201533" />
<rect x="55" y="4" width="1" height="1" fill="#201533" />
<rect x="56" y="4" width="2" height="2" fill="#FFFFFF" />
<rect x="59" y="4" width="1" height="1" fill="#201533" />
<rect x="68" y="4" width="1" height="1" fill="#201533" />
<rect x="71" y="4" width="1" height="1" fill="#201533" />
<rect x="72" y="4" width="2" height="2" fill="#FFFFFF" />
<rect x="75" y="4" width="1" height="1" fill="#201533" />
<rect x="84" y="4" width="1" height="1" fill="#201533" />
<rect x="4" y="5" width="1" height="1" fill="#201533" />
<rect x="7" y="5" width="1" height="1" fill="#201533" />
<rect x="8" y="5" width="2" height="2" fill="#FFFFFF" />
<rect x="11" y="5" width="1" height="1" fill="#201533" />
<rect x="23" y="5" width="1" height="2" fill="#FFFFFF" />
<rect x="39" y="5" width="1" height="1" fill="#FFFFFF" />
<rect x="55" y="5" width="1" height="1" fill="#FFFFFF" />
<rect x="71" y="5" width="1" height="1" fill="#FFFFFF" />
<rect x="87" y="5" width="1" height="1" fill="#201533" />
<rect x="88" y="5" width="2" height="2" fill="#FFFFFF" />
<rect x="91" y="5" width="1" height="1" fill="#201533" />
<rect x="7" y="6" width="1" height="1" fill="#FFFFFF" />
<rect x="21" y="6" width="1" height="2" fill="#0098DB" />
<rect x="36" y="6" width="4" height="2" fill="#0098DB" />
<rect x="40" y="6" width="1" height="6" fill="#201533" />
<rect x="41" y="6" width="1" height="4" fill="#0098DB" />
<rect x="52" y="6" width="4" height="1" fill="#0098DB" />
<rect x="56" y="6" width="1" height="5" fill="#201533" />
<rect x="57" y="6" width="1" height="3" fill="#0098DB" />
<rect x="59" y="6" width="2" height="2" fill="#FFFFFF" />
<rect x="68" y="6" width="4" height="1" fill="#0098DB" />
<rect x="72" y="6" width="1" height="6" fill="#201533" />
<rect x="73" y="6" width="1" height="4" fill="#0098DB" />
<rect x="85" y="6" width="1" height="2" fill="#0098DB" />
<rect x="87" y="6" width="1" height="1" fill="#FFFFFF" />
<rect x="4" y="7" width="4" height="1" fill="#0098DB" />
<rect x="8" y="7" width="1" height="5" fill="#201533" />
<rect x="9" y="7" width="1" height="3" fill="#0098DB" />
<rect x="11" y="7" width="2" height="2" fill="#FFFFFF" />
<rect x="20" y="7" width="1" height="3" fill="#0098DB" />
<rect x="22" y="7" width="2" height="1" fill="#0098DB" />
<rect x="24" y="7" width="1" height="5" fill="#201533" />
<rect x="25" y="7" width="1" height="3" fill="#0098DB" />
<rect x="27" y="7" width="2" height="2" fill="#FFFFFF" />
<rect x="35" y="7" width="1" height="1" fill="#0098DB" />
<rect x="42" y="7" width="1" height="3" fill="#1E579C" />
<rect x="43" y="7" width="2" height="2" fill="#FFFFFF" />
<rect x="51" y="7" width="2" height="1" fill="#0098DB" />
<rect x="53" y="7" width="2" height="2" fill="#FFFFFF" />
<rect x="55" y="7" width="1" height="2" fill="#0098DB" />
<rect x="58" y="7" width="1" height="2" fill="#1E579C" />
<rect x="67" y="7" width="2" height="1" fill="#0098DB" />
<rect x="69" y="7" width="2" height="2" fill="#FFFFFF" />
<rect x="71" y="7" width="1" height="3" fill="#0098DB" />
<rect x="74" y="7" width="1" height="2" fill="#1E579C" />
<rect x="75" y="7" width="2" height="2" fill="#FFFFFF" />
<rect x="84" y="7" width="1" height="3" fill="#0098DB" />
<rect x="86" y="7" width="2" height="1" fill="#0098DB" />
<rect x="88" y="7" width="1" height="5" fill="#201533" />
<rect x="89" y="7" width="1" height="3" fill="#0098DB" />
<rect x="91" y="7" width="2" height="2" fill="#FFFFFF" />
<rect x="3" y="8" width="2" height="1" fill="#0098DB" />
<rect x="5" y="8" width="2" height="2" fill="#FFFFFF" />
<rect x="7" y="8" width="1" height="2" fill="#0098DB" />
<rect x="10" y="8" width="1" height="2" fill="#1E579C" />
<rect x="19" y="8" width="1" height="1" fill="#0098DB" />
<rect x="21" y="8" width="2" height="2" fill="#FFFFFF" />
<rect x="23" y="8" width="1" height="2" fill="#0098DB" />
<rect x="26" y="8" width="1" height="2" fill="#1E579C" />
<rect x="36" y="8" width="1" height="1" fill="#0098DB" />
<rect x="37" y="8" width="2" height="2" fill="#FFFFFF" />
<rect x="39" y="8" width="1" height="2" fill="#0098DB" />
<rect x="52" y="8" width="1" height="1" fill="#0098DB" />
<rect x="59" y="8" width="1" height="1" fill="#1E579C" />
<rect x="68" y="8" width="1" height="1" fill="#0098DB" />
<rect x="83" y="8" width="1" height="1" fill="#0098DB" />
<rect x="85" y="8" width="2" height="2" fill="#FFFFFF" />
<rect x="87" y="8" width="1" height="2" fill="#0098DB" />
<rect x="90" y="8" width="1" height="2" fill="#1E579C" />
<rect x="4" y="9" width="1" height="1" fill="#0098DB" />
<rect x="11" y="9" width="1" height="1" fill="#1E579C" />
<rect x="27" y="9" width="1" height="1" fill="#1E579C" />
<rect x="43" y="9" width="1" height="1" fill="#1E579C" />
<rect x="54" y="9" width="1" height="1" fill="#0098DB" />
<rect x="55" y="9" width="1" height="3" fill="#201533" />
<rect x="57" y="9" width="1" height="4" fill="#201533" />
<rect x="70" y="9" width="1" height="2" fill="#0098DB" />
<rect x="91" y="9" width="1" height="1" fill="#1E579C" />
<rect x="6" y="10" width="1" height="1" fill="#0098DB" />
<rect x="7" y="10" width="1" height="3" fill="#201533" />
<rect x="9" y="10" width="1" height="4" fill="#201533" />
<rect x="22" y="10" width="1" height="1" fill="#0098DB" />
<rect x="23" y="10" width="1" height="3" fill="#201533" />
<rect x="25" y="10" width="1" height="4" fill="#201533" />
<rect x="38" y="10" width="1" height="1" fill="#0098DB" />
<rect x="39" y="10" width="1" height="3" fill="#201533" />
<rect x="41" y="10" width="1" height="4" fill="#201533" />
<rect x="54" y="10" width="1" height="4" fill="#201533" />
<rect x="58" y="10" width="1" height="4" fill="#201533" />
<rect x="71" y="10" width="1" height="3" fill="#201533" />
<rect x="73" y="10" width="1" height="3" fill="#201533" />
<rect x="86" y="10" width="1" height="1" fill="#0098DB" />
<rect x="87" y="10" width="1" height="3" fill="#201533" />
<rect x="89" y="10" width="1" height="4" fill="#201533" />
<rect x="5" y="11" width="2" height="4" fill="#201533" />
<rect x="10" y="11" width="1" height="3" fill="#201533" />
<rect x="21" y="11" width="2" height="4" fill="#201533" />
<rect x="26" y="11" width="1" height="3" fill="#201533" />
<rect x="37" y="11" width="2" height="4" fill="#201533" />
<rect x="42" y="11" width="1" height="3" fill="#201533" />
<rect x="53" y="11" width="1" height="4" fill="#201533" />
<rect x="69" y="11" width="2" height="4" fill="#201533" />
<rect x="74" y="11" width="1" height="3" fill="#201533" />
<rect x="85" y="11" width="2" height="4" fill="#201533" />
<rect x="90" y="11" width="1" height="3" fill="#201533" />
<rect x="4" y="13" width="1" height="2" fill="#201533" />
<rect x="11" y="13" width="1" height="1" fill="#201533" />
<rect x="20" y="13" width="1" height="2" fill="#201533" />
<rect x="27" y="13" width="1" height="1" fill="#201533" />
<rect x="36" y="13" width="1" height="2" fill="#201533" />
<rect x="43" y="13" width="1" height="1" fill="#201533" />
<rect x="52" y="13" width="1" height="2" fill="#201533" />
<rect x="59" y="13" width="1" height="1" fill="#201533" />
<rect x="68" y="13" width="1" height="2" fill="#201533" />
<rect x="75" y="13" width="1" height="1" fill="#201533" />
<rect x="84" y="13" width="1" height="2" fill="#201533" />
<rect x="91" y="13" width="1" height="1" fill="#201533" />
</svg>