<?xml version="1.0" encoding="UTF-8" ?>
<svg version="1.1" width="64" height="48" xmlns="http://www.w3.org/2000/svg" shape-rendering="crispEdges">
<rect x="36" y="0" width="1" height="1" fill="#FF0048" />
<rect x="4" y="1" width="1" height="1" fill="#FF0048" />
<rect x="11" y="1" width="1" height="1" fill="#FF0048" />
<rect x="21" y="1" width="1" height="4" fill="#FF0048" />
<rect x="33" y="1" width="1" height="1" fill="#FF0048" />
<rect x="40" y="1" width="1" height="2" fill="#FF0048" />
<rect x="56" y="1" width="1" height="1" fill="#FF0048" />
<rect x="6" y="2" width="3" height="1" fill="#FF0048" />
<rect x="19" y="2" width="1" height="1" fill="#FF0048" />
<rect x="22" y="2" width="3" height="1" fill="#FF0048" />
<rect x="34" y="2" width="2" height="1" fill="#FF0048" />
<rect x="37" y="2" width="3" height="1" fill="#FF0048" />
<rect x="50" y="2" width="1" height="1" fill="#FF0048" />
<rect x="53" y="2" width="3" height="1" fill="#FF0048" />
<rect x="4" y="3" width="2" height="1" fill="#FF0048" />
<rect x="6" y="3" width="1" height="1" fill="#B52603" />
<rect x="7" y="3" width="2" height="1" fill="#DB0007" />
<rect x="9" y="3" width="2" height="1" fill="#FF0048" />
<rect x="20" y="3" width="1" height="1" fill="#FF0048" />
<rect x="22" y="3" width="1" height="1" fill="#B52603" />
<rect x="23" y="3" width="2" height="1" fill="#DB0007" />
<rect x="25" y="3" width="2" height="1" fill="#FF0048" />
<rect x="35" y="3" width="2" height="1" fill="#FF0048" />
<rect x="37" y="3" width="1" height="1" fill="#DB0007" />
<rect x="38" y="3" width="1" height="1" fill="#B52603" />
<rect x="39" y="3" width="2" height="1" fill="#DB0007" />
<rect x="41" y="3" width="2" height="1" fill="#FF0048" />
<rect x="51" y="3" width="2" height="1" fill="#FF0048" />
<rect x="53" y="3" width="1" height="1" fill="#DB0007" />
<rect x="54" y="3" width="1" height="1" fill="#B52603" />
<rect x="55" y="3" width="2" height="1" fill="#DB0007" />
<rect x="57" y="3" width="2" height="1" fill="#FF0048" />
<rect x="5" y="4" width="1" height="1" fill="#FF0048" />
<rect x="6" y="4" width="1" height="1" fill="#DB0007" />
<rect x="7" y="4" width="1" height="1" fill="#B52603" />
<rect x="8" y="4" width="1" height="1" fill="#732F0D" />
<rect x="9" y="4" width="3" height="1" fill="#FFFFFF" />
<rect x="22" y="4" width="1" height="1" fill="#DB0007" />
<rect x="23" y="4" width="1" height="1" fill="#B52603" />
<rect x="24" y="4" width="1" height="1" fill="#732F0D" />
<rect x="25" y="4" width="3" height="1" fill="#FFFFFF" />
<rect x="36" y="4" width="2" height="1" fill="#FF0048" />
<rect x="38" y="4" width="1" height="1" fill="#DB0007" />
<rect x="39" y="4" width="1" height="1" fill="#B52603" />
<rect x="40" y="4" width="1" height="1" fill="#732F0D" />
<rect x="41" y="4" width="3" height="1" fill="#FFFFFF" />
<rect x="49" y="4" width="1" height="1" fill="#FF0048" />
<rect x="52" y="4" width="2" height="1" fill="#FF0048" />
<rect x="54" y="4" width="1" height="1" fill="#DB0007" />
<rect x="55" y="4" width="1" height="1" fill="#B52603" />
<rect x="56" y="4" width="1" height="1" fill="#732F0D" />
<rect x="57" y="4" width="3" height="1" fill="#FFFFFF" />
<rect x="3" y="5" width="1" height="1" fill="#FF0048" />
<rect x="6" y="5" width="1" height="1" fill="#FF0048" />
<rect x="7" y="5" width="1" height="1" fill="#DB0007" />
<rect x="8" y="5" width="1" height="2" fill="#FFFFFF" />
<rect x="9" y="5" width="1" height="1" fill="#3C3D0A" />
<rect x="10" y="5" width="1" height="2" fill="#FFFFFF" />
<rect x="11" y="5" width="1" height="1" fill="#3C3D0A" />
<rect x="12" y="5" width="1" height="2" fill="#FF0048" />
<rect x="19" y="5" width="1" height="1" fill="#FF0048" />
<rect x="22" y="5" width="1" height="1" fill="#FF0048" />
<rect x="23" y="5" width="1" height="1" fill="#DB0007" />
<rect x="24" y="5" width="1" height="2" fill="#FFFFFF" />
<rect x="25" y="5" width="1" height="1" fill="#3C3D0A" />
<rect x="26" y="5" width="1" height="2" fill="#FFFFFF" />
<rect x="27" y="5" width="1" height="1" fill="#3C3D0A" />
<rect x="28" y="5" width="1" height="2" fill="#FF0048" />
<rect x="33" y="5" width="1" height="1" fill="#FF0048" />
<rect x="35" y="5" width="1" height="1" fill="#FF0048" />
<rect x="38" y="5" width="1" height="1" fill="#FF0048" />
<rect x="39" y="5" width="1" height="1" fill="#DB0007" />
<rect x="40" y="5" width="1" height="2" fill="#FFFFFF" />
<rect x="41" y="5" width="1" height="1" fill="#3C3D0A" />
<rect x="42" y="5" width="1" height="2" fill="#FFFFFF" />
<rect x="43" y="5" width="1" height="1" fill="#3C3D0A" />
<rect x="44" y="5" width="1" height="2" fill="#FF0048" />
<rect x="51" y="5" width="1" height="1" fill="#FF0048" />
<rect x="54" y="5" width="1" height="1" fill="#FF0048" />
<rect x="55" y="5" width="1" height="1" fill="#DB0007" />
<rect x="56" y="5" width="1" height="2" fill="#FFFFFF" />
<rect x="57" y="5" width="1" height="1" fill="#3C3D0A" />
<rect x="58" y="5" width="1" height="2" fill="#FFFFFF" />
<rect x="59" y="5" width="1" height="1" fill="#3C3D0A" />
<rect x="60" y="5" width="1" height="2" fill="#FF0048" />
<rect x="7" y="6" width="1" height="1" fill="#FF0048" />
<rect x="9" y="6" width="1" height="2" fill="#FFFFFF" />
<rect x="11" y="6" width="1" height="2" fill="#FFFFFF" />
<rect x="21" y="6" width="1" height="1" fill="#FF0048" />
<rect x="23" y="6" width="1" height="1" fill="#FF0048" />
<rect x="25" y="6" width="1" height="2" fill="#FFFFFF" />
<rect x="27" y="6" width="1" height="2" fill="#FFFFFF" />
<rect x="39" y="6" width="1" height="1" fill="#FF0048" />
<rect x="41" y="6" width="1" height="2" fill="#FFFFFF" />
<rect x="43" y="6" width="1" height="3" fill="#FFFFFF" />
<rect x="55" y="6" width="1" height="1" fill="#FF0048" />
<rect x="57" y="6" width="1" height="2" fill="#FFFFFF" />
<rect x="59" y="6" width="1" height="3" fill="#FFFFFF" />
<rect x="6" y="7" width="1" height="1" fill="#FF0048" />
<rect x="8" y="7" width="1" height="1" fill="#FF0048" />
<rect x="10" y="7" width="1" height="1" fill="#3C3D0A" />
<rect x="24" y="7" width="1" height="1" fill="#FF0048" />
<rect x="26" y="7" width="1" height="1" fill="#3C3D0A" />
<rect x="40" y="7" width="1" height="1" fill="#FF0048" />
<rect x="42" y="7" width="1" height="1" fill="#3C3D0A" />
<rect x="56" y="7" width="1" height="1" fill="#FF0048" />
<rect x="58" y="7" width="1" height="1" fill="#3C3D0A" />
<rect x="38" y="8" width="3" height="1" fill="#FFFFFF" />
<rect x="41" y="8" width="1" height="1" fill="#564215" />
<rect x="42" y="8" width="1" height="1" fill="#FFFFFF" />
<rect x="54" y="8" width="3" height="1" fill="#FFFFFF" />
<rect x="57" y="8" width="1" height="1" fill="#564215" />
<rect x="58" y="8" width="1" height="1" fill="#FFFFFF" />
<rect x="6" y="9" width="3" height="1" fill="#FFFFFF" />
<rect x="9" y="9" width="1" height="1" fill="#564215" />
<rect x="10" y="9" width="2" height="1" fill="#FFFFFF" />
<rect x="22" y="9" width="3" height="1" fill="#FFFFFF" />
<rect x="25" y="9" width="1" height="1" fill="#564215" />
<rect x="26" y="9" width="2" height="1" fill="#FFFFFF" />
<rect x="39" y="9" width="2" height="1" fill="#564215" />
<rect x="41" y="9" width="1" height="3" fill="#FFFFFF" />
<rect x="42" y="9" width="1" height="1" fill="#564215" />
<rect x="55" y="9" width="2" height="1" fill="#564215" />
<rect x="57" y="9" width="1" height="2" fill="#FFFFFF" />
<rect x="58" y="9" width="1" height="1" fill="#564215" />
<rect x="7" y="10" width="2" height="1" fill="#564215" />
<rect x="9" y="10" width="1" height="2" fill="#FFFFFF" />
<rect x="10" y="10" width="1" height="1" fill="#564215" />
<rect x="23" y="10" width="2" height="1" fill="#564215" />
<rect x="25" y="10" width="1" height="2" fill="#FFFFFF" />
<rect x="26" y="10" width="1" height="1" fill="#564215" />
<rect x="38" y="10" width="3" height="1" fill="#FFFFFF" />
<rect x="42" y="10" width="2" height="1" fill="#FFFFFF" />
<rect x="54" y="10" width="3" height="1" fill="#FFFFFF" />
<rect x="58" y="10" width="2" height="1" fill="#FFFFFF" />
<rect x="3" y="11" width="2" height="2" fill="#FF0048" />
<rect x="6" y="11" width="3" height="1" fill="#FFFFFF" />
<rect x="10" y="11" width="2" height="1" fill="#FFFFFF" />
<rect x="12" y="11" width="2" height="2" fill="#B52603" />
<rect x="19" y="11" width="2" height="2" fill="#FF0048" />
<rect x="22" y="11" width="3" height="1" fill="#FFFFFF" />
<rect x="26" y="11" width="2" height="1" fill="#FFFFFF" />
<rect x="28" y="11" width="2" height="2" fill="#B52603" />
<rect x="35" y="11" width="2" height="2" fill="#FF0048" />
<rect x="39" y="11" width="1" height="1" fill="#564215" />
<rect x="40" y="11" width="1" height="2" fill="#FFFFFF" />
<rect x="42" y="11" width="1" height="2" fill="#FFFFFF" />
<rect x="44" y="11" width="2" height="2" fill="#B52603" />
<rect x="51" y="11" width="2" height="2" fill="#FF0048" />
<rect x="55" y="11" width="1" height="1" fill="#564215" />
<rect x="56" y="11" width="1" height="1" fill="#FFFFFF" />
<rect x="57" y="11" width="1" height="2" fill="#564215" />
<rect x="58" y="11" width="1" height="1" fill="#FFFFFF" />
<rect x="60" y="11" width="2" height="2" fill="#B52603" />
<rect x="7" y="12" width="1" height="1" fill="#564215" />
<rect x="8" y="12" width="1" height="1" fill="#FFFFFF" />
<rect x="9" y="12" width="1" height="2" fill="#564215" />
<rect x="10" y="12" width="1" height="1" fill="#FFFFFF" />
<rect x="23" y="12" width="1" height="1" fill="#564215" />
<rect x="24" y="12" width="1" height="1" fill="#FFFFFF" />
<rect x="25" y="12" width="1" height="2" fill="#564215" />
<rect x="26" y="12" width="1" height="1" fill="#FFFFFF" />
<rect x="38" y="12" width="2" height="2" fill="#FFFFFF" />
<rect x="41" y="12" width="1" height="2" fill="#564215" />
<rect x="43" y="12" width="1" height="2" fill="#FFFFFF" />
<rect x="54" y="12" width="2" height="1" fill="#FFFFFF" />
<rect x="56" y="12" width="1" height="2" fill="#564215" />
<rect x="58" y="12" width="1" height="2" fill="#564215" />
<rect x="59" y="12" width="1" height="1" fill="#FFFFFF" />
<rect x="6" y="13" width="2" height="1" fill="#FFFFFF" />
<rect x="8" y="13" width="1" height="2" fill="#564215" />
<rect x="10" y="13" width="1" height="2" fill="#564215" />
<rect x="11" y="13" width="1" height="1" fill="#FFFFFF" />
<rect x="22" y="13" width="2" height="1" fill="#FFFFFF" />
<rect x="24" y="13" width="1" height="2" fill="#564215" />
<rect x="26" y="13" width="1" height="2" fill="#564215" />
<rect x="27" y="13" width="1" height="1" fill="#FFFFFF" />
<rect x="40" y="13" width="1" height="2" fill="#564215" />
<rect x="42" y="13" width="1" height="2" fill="#564215" />
<rect x="55" y="13" width="1" height="2" fill="#564215" />
<rect x="7" y="14" width="1" height="2" fill="#564215" />
<rect x="23" y="14" width="1" height="2" fill="#564215" />
<rect x="39" y="14" width="1" height="2" fill="#564215" />
<rect x="37" y="16" width="1" height="1" fill="#FF0048" />
<rect x="52" y="16" width="1" height="1" fill="#FF0048" />
<rect x="55" y="16" width="1" height="2" fill="#FF0048" />
<rect x="5" y="17" width="1" height="1" fill="#FF0048" />
<rect x="24" y="17" width="2" height="1" fill="#FF0048" />
<rect x="39" y="17" width="2" height="1" fill="#FF0048" />
<rect x="43" y="17" width="1" height="1" fill="#FF0048" />
<rect x="49" y="17" width="1" height="1" fill="#FF0048" />
<rect x="53" y="17" width="2" height="1" fill="#FF0048" />
<rect x="56" y="17" width="1" height="1" fill="#FF0048" />
<rect x="0" y="18" width="1" height="1" fill="#FF0048" />
<rect x="7" y="18" width="2" height="1" fill="#FF0048" />
<rect x="11" y="18" width="1" height="1" fill="#FF0048" />
<rect x="17" y="18" width="1" height="1" fill="#FF0048" />
<rect x="22" y="18" width="2" height="1" fill="#FF0048" />
<rect x="24" y="18" width="2" height="1" fill="#DB0007" />
<rect x="26" y="18" width="1" height="1" fill="#FF0048" />
<rect x="37" y="18" width="2" height="1" fill="#FF0048" />
<rect x="39" y="18" width="2" height="1" fill="#DB0007" />
<rect x="41" y="18" width="2" height="1" fill="#FF0048" />
<rect x="51" y="18" width="2" height="1" fill="#FF0048" />
<rect x="53" y="18" width="4" height="1" fill="#DB0007" />
<rect x="57" y="18" width="2" height="1" fill="#FF0048" />
<rect x="2" y="19" width="1" height="1" fill="#FF0048" />
<rect x="5" y="19" width="2" height="1" fill="#FF0048" />
<rect x="7" y="19" width="2" height="1" fill="#DB0007" />
<rect x="9" y="19" width="2" height="1" fill="#FF0048" />
<rect x="19" y="19" width="1" height="1" fill="#FF0048" />
<rect x="21" y="19" width="2" height="1" fill="#FF0048" />
<rect x="23" y="19" width="1" height="1" fill="#DB0007" />
<rect x="24" y="19" width="1" height="1" fill="#B52603" />
<rect x="25" y="19" width="3" height="1" fill="#FFFFFF" />
<rect x="35" y="19" width="2" height="1" fill="#FF0048" />
<rect x="37" y="19" width="1" height="1" fill="#DB0007" />
<rect x="38" y="19" width="2" height="1" fill="#B52603" />
<rect x="40" y="19" width="1" height="1" fill="#732F0D" />
<rect x="41" y="19" width="3" height="1" fill="#FFFFFF" />
<rect x="44" y="19" width="1" height="3" fill="#FF0048" />
<rect x="52" y="19" width="1" height="1" fill="#FF0048" />
<rect x="53" y="19" width="1" height="1" fill="#DB0007" />
<rect x="54" y="19" width="1" height="1" fill="#B52603" />
<rect x="55" y="19" width="1" height="1" fill="#732F0D" />
<rect x="56" y="19" width="1" height="1" fill="#B52603" />
<rect x="57" y="19" width="1" height="1" fill="#DB0007" />
<rect x="58" y="19" width="2" height="1" fill="#FF0048" />
<rect x="3" y="20" width="2" height="1" fill="#FF0048" />
<rect x="5" y="20" width="1" height="1" fill="#DB0007" />
<rect x="6" y="20" width="2" height="1" fill="#B52603" />
<rect x="8" y="20" width="1" height="1" fill="#732F0D" />
<rect x="9" y="20" width="3" height="1" fill="#FFFFFF" />
<rect x="20" y="20" width="1" height="2" fill="#FF0048" />
<rect x="21" y="20" width="2" height="1" fill="#DB0007" />
<rect x="23" y="20" width="1" height="1" fill="#B52603" />
<rect x="24" y="20" width="1" height="2" fill="#FFFFFF" />
<rect x="25" y="20" width="1" height="1" fill="#3C3D0A" />
<rect x="26" y="20" width="1" height="2" fill="#FFFFFF" />
<rect x="27" y="20" width="1" height="1" fill="#3C3D0A" />
<rect x="28" y="20" width="1" height="2" fill="#FF0048" />
<rect x="33" y="20" width="1" height="1" fill="#FF0048" />
<rect x="36" y="20" width="2" height="1" fill="#FF0048" />
<rect x="38" y="20" width="2" height="1" fill="#DB0007" />
<rect x="40" y="20" width="1" height="2" fill="#FFFFFF" />
<rect x="41" y="20" width="1" height="1" fill="#3C3D0A" />
<rect x="42" y="20" width="1" height="2" fill="#FFFFFF" />
<rect x="43" y="20" width="1" height="1" fill="#3C3D0A" />
<rect x="51" y="20" width="1" height="1" fill="#FF0048" />
<rect x="53" y="20" width="1" height="1" fill="#FF0048" />
<rect x="54" y="20" width="1" height="1" fill="#DB0007" />
<rect x="55" y="20" width="1" height="1" fill="#B52603" />
<rect x="56" y="20" width="1" height="1" fill="#732F0D" />
<rect x="57" y="20" width="3" height="1" fill="#FFFFFF" />
<rect x="1" y="21" width="1" height="1" fill="#FF0048" />
<rect x="4" y="21" width="2" height="1" fill="#FF0048" />
<rect x="6" y="21" width="2" height="1" fill="#DB0007" />
<rect x="8" y="21" width="1" height="2" fill="#FFFFFF" />
<rect x="9" y="21" width="1" height="1" fill="#3C3D0A" />
<rect x="10" y="21" width="1" height="2" fill="#FFFFFF" />
<rect x="11" y="21" width="1" height="1" fill="#3C3D0A" />
<rect x="12" y="21" width="1" height="2" fill="#FF0048" />
<rect x="19" y="21" width="1" height="1" fill="#FF0048" />
<rect x="21" y="21" width="2" height="1" fill="#FF0048" />
<rect x="23" y="21" width="1" height="1" fill="#DB0007" />
<rect x="25" y="21" width="1" height="2" fill="#FFFFFF" />
<rect x="27" y="21" width="1" height="2" fill="#FFFFFF" />
<rect x="38" y="21" width="2" height="1" fill="#FF0048" />
<rect x="41" y="21" width="1" height="2" fill="#FFFFFF" />
<rect x="43" y="21" width="1" height="2" fill="#FFFFFF" />
<rect x="54" y="21" width="1" height="1" fill="#FF0048" />
<rect x="55" y="21" width="1" height="1" fill="#DB0007" />
<rect x="56" y="21" width="1" height="2" fill="#FFFFFF" />
<rect x="57" y="21" width="1" height="1" fill="#3C3D0A" />
<rect x="58" y="21" width="1" height="2" fill="#FFFFFF" />
<rect x="59" y="21" width="1" height="1" fill="#3C3D0A" />
<rect x="60" y="21" width="1" height="2" fill="#FF0048" />
<rect x="6" y="22" width="2" height="1" fill="#FF0048" />
<rect x="9" y="22" width="1" height="2" fill="#FFFFFF" />
<rect x="11" y="22" width="1" height="3" fill="#FFFFFF" />
<rect x="21" y="22" width="1" height="1" fill="#FF0048" />
<rect x="24" y="22" width="1" height="1" fill="#FF0048" />
<rect x="26" y="22" width="1" height="1" fill="#3C3D0A" />
<rect x="29" y="22" width="1" height="1" fill="#FF0048" />
<rect x="37" y="22" width="1" height="1" fill="#FF0048" />
<rect x="40" y="22" width="1" height="1" fill="#FF0048" />
<rect x="42" y="22" width="1" height="1" fill="#3C3D0A" />
<rect x="52" y="22" width="1" height="1" fill="#FF0048" />
<rect x="55" y="22" width="1" height="1" fill="#FF0048" />
<rect x="57" y="22" width="1" height="2" fill="#FFFFFF" />
<rect x="59" y="22" width="1" height="2" fill="#FFFFFF" />
<rect x="8" y="23" width="1" height="1" fill="#FF0048" />
<rect x="10" y="23" width="1" height="1" fill="#3C3D0A" />
<rect x="23" y="23" width="1" height="1" fill="#FF0048" />
<rect x="34" y="23" width="1" height="1" fill="#FF0048" />
<rect x="49" y="23" width="1" height="1" fill="#FF0048" />
<rect x="56" y="23" width="1" height="1" fill="#FF0048" />
<rect x="58" y="23" width="1" height="1" fill="#3C3D0A" />
<rect x="6" y="24" width="3" height="1" fill="#FFFFFF" />
<rect x="9" y="24" width="1" height="1" fill="#564215" />
<rect x="10" y="24" width="1" height="1" fill="#FFFFFF" />
<rect x="19" y="24" width="1" height="1" fill="#FF0048" />
<rect x="22" y="24" width="3" height="1" fill="#FFFFFF" />
<rect x="25" y="24" width="1" height="1" fill="#564215" />
<rect x="26" y="24" width="2" height="1" fill="#FFFFFF" />
<rect x="38" y="24" width="3" height="2" fill="#FFFFFF" />
<rect x="41" y="24" width="1" height="2" fill="#564215" />
<rect x="42" y="24" width="2" height="2" fill="#FFFFFF" />
<rect x="7" y="25" width="2" height="1" fill="#564215" />
<rect x="9" y="25" width="1" height="2" fill="#FFFFFF" />
<rect x="10" y="25" width="1" height="1" fill="#564215" />
<rect x="23" y="25" width="2" height="1" fill="#564215" />
<rect x="25" y="25" width="1" height="2" fill="#FFFFFF" />
<rect x="26" y="25" width="1" height="1" fill="#564215" />
<rect x="54" y="25" width="3" height="1" fill="#FFFFFF" />
<rect x="57" y="25" width="1" height="1" fill="#564215" />
<rect x="58" y="25" width="2" height="1" fill="#FFFFFF" />
<rect x="6" y="26" width="3" height="1" fill="#FFFFFF" />
<rect x="10" y="26" width="2" height="1" fill="#FFFFFF" />
<rect x="22" y="26" width="3" height="1" fill="#FFFFFF" />
<rect x="26" y="26" width="2" height="1" fill="#FFFFFF" />
<rect x="39" y="26" width="2" height="1" fill="#564215" />
<rect x="41" y="26" width="1" height="2" fill="#FFFFFF" />
<rect x="42" y="26" width="1" height="1" fill="#564215" />
<rect x="44" y="26" width="2" height="2" fill="#B52603" />
<rect x="51" y="26" width="2" height="2" fill="#FF0048" />
<rect x="55" y="26" width="2" height="1" fill="#564215" />
<rect x="57" y="26" width="1" height="2" fill="#FFFFFF" />
<rect x="58" y="26" width="1" height="1" fill="#564215" />
<rect x="60" y="26" width="2" height="2" fill="#B52603" />
<rect x="3" y="27" width="2" height="2" fill="#FF0048" />
<rect x="7" y="27" width="1" height="1" fill="#564215" />
<rect x="8" y="27" width="1" height="1" fill="#FFFFFF" />
<rect x="9" y="27" width="1" height="2" fill="#564215" />
<rect x="10" y="27" width="1" height="1" fill="#FFFFFF" />
<rect x="12" y="27" width="2" height="2" fill="#B52603" />
<rect x="19" y="27" width="2" height="2" fill="#FF0048" />
<rect x="23" y="27" width="1" height="1" fill="#564215" />
<rect x="24" y="27" width="1" height="1" fill="#FFFFFF" />
<rect x="25" y="27" width="1" height="2" fill="#564215" />
<rect x="26" y="27" width="1" height="1" fill="#FFFFFF" />
<rect x="28" y="27" width="2" height="2" fill="#B52603" />
<rect x="35" y="27" width="2" height="2" fill="#FF0048" />
<rect x="38" y="27" width="3" height="1" fill="#FFFFFF" />
<rect x="42" y="27" width="2" height="1" fill="#FFFFFF" />
<rect x="54" y="27" width="3" height="1" fill="#FFFFFF" />
<rect x="58" y="27" width="2" height="1" fill="#FFFFFF" />
<rect x="6" y="28" width="2" height="1" fill="#FFFFFF" />
<rect x="8" y="28" width="1" height="2" fill="#564215" />
<rect x="10" y="28" width="1" height="2" fill="#564215" />
<rect x="11" y="28" width="1" height="1" fill="#FFFFFF" />
<rect x="22" y="28" width="2" height="1" fill="#FFFFFF" />
<rect x="24" y="28" width="1" height="2" fill="#564215" />
<rect x="26" y="28" width="1" height="2" fill="#564215" />
<rect x="27" y="28" width="1" height="1" fill="#FFFFFF" />
<rect x="39" y="28" width="1" height="1" fill="#564215" />
<rect x="40" y="28" width="1" height="1" fill="#FFFFFF" />
<rect x="41" y="28" width="1" height="2" fill="#564215" />
<rect x="42" y="28" width="1" height="1" fill="#FFFFFF" />
<rect x="55" y="28" width="1" height="1" fill="#564215" />
<rect x="56" y="28" width="1" height="1" fill="#FFFFFF" />
<rect x="57" y="28" width="1" height="2" fill="#564215" />
<rect x="58" y="28" width="1" height="1" fill="#FFFFFF" />
<rect x="7" y="29" width="1" height="2" fill="#564215" />
<rect x="23" y="29" width="1" height="2" fill="#564215" />
<rect x="38" y="29" width="2" height="1" fill="#FFFFFF" />
<rect x="40" y="29" width="1" height="2" fill="#564215" />
<rect x="42" y="29" width="1" height="2" fill="#564215" />
<rect x="43" y="29" width="1" height="1" fill="#FFFFFF" />
<rect x="54" y="29" width="2" height="1" fill="#FFFFFF" />
<rect x="56" y="29" width="1" height="2" fill="#564215" />
<rect x="58" y="29" width="1" height="2" fill="#564215" />
<rect x="59" y="29" width="1" height="1" fill="#FFFFFF" />
<rect x="39" y="30" width="1" height="2" fill="#564215" />
<rect x="55" y="30" width="1" height="2" fill="#564215" />
<rect x="0" y="32" width="1" height="1" fill="#FF0048" />
<rect x="21" y="32" width="2" height="1" fill="#FF0048" />
<rect x="38" y="32" width="3" height="1" fill="#FF0048" />
<rect x="53" y="32" width="1" height="1" fill="#FF0048" />
<rect x="4" y="33" width="1" height="1" fill="#FF0048" />
<rect x="6" y="33" width="2" height="1" fill="#FF0048" />
<rect x="19" y="33" width="1" height="1" fill="#FF0048" />
<rect x="21" y="33" width="1" height="1" fill="#FF0048" />
<rect x="22" y="33" width="1" height="1" fill="#DB0007" />
<rect x="23" y="33" width="2" height="1" fill="#FF0048" />
<rect x="36" y="33" width="2" height="1" fill="#FF0048" />
<rect x="39" y="33" width="1" height="2" fill="#FF0048" />
<rect x="40" y="33" width="1" height="1" fill="#DB0007" />
<rect x="41" y="33" width="1" height="1" fill="#FF0048" />
<rect x="43" y="33" width="1" height="1" fill="#FF0048" />
<rect x="54" y="33" width="2" height="1" fill="#FF0048" />
<rect x="58" y="33" width="1" height="1" fill="#FF0048" />
<rect x="5" y="34" width="1" height="1" fill="#FF0048" />
<rect x="6" y="34" width="2" height="1" fill="#DB0007" />
<rect x="8" y="34" width="3" height="1" fill="#FF0048" />
<rect x="22" y="34" width="1" height="5" fill="#FF0048" />
<rect x="23" y="34" width="1" height="2" fill="#DB0007" />
<rect x="24" y="34" width="3" height="1" fill="#FF0048" />
<rect x="34" y="34" width="1" height="1" fill="#FF0048" />
<rect x="40" y="34" width="1" height="2" fill="#B52603" />
<rect x="41" y="34" width="1" height="1" fill="#DB0007" />
<rect x="42" y="34" width="1" height="1" fill="#FF0048" />
<rect x="52" y="34" width="1" height="1" fill="#FF0048" />
<rect x="54" y="34" width="1" height="1" fill="#FF0048" />
<rect x="55" y="34" width="1" height="4" fill="#B52603" />
<rect x="56" y="34" width="2" height="1" fill="#FF0048" />
<rect x="60" y="34" width="1" height="1" fill="#FF0048" />
<rect x="3" y="35" width="2" height="1" fill="#FF0048" />
<rect x="5" y="35" width="1" height="1" fill="#DB0007" />
<rect x="6" y="35" width="1" height="1" fill="#B52603" />
<rect x="7" y="35" width="1" height="1" fill="#732F0D" />
<rect x="8" y="35" width="1" height="1" fill="#B52603" />
<rect x="9" y="35" width="1" height="1" fill="#DB0007" />
<rect x="10" y="35" width="2" height="1" fill="#FF0048" />
<rect x="20" y="35" width="1" height="1" fill="#FF0048" />
<rect x="24" y="35" width="1" height="1" fill="#B52603" />
<rect x="25" y="35" width="1" height="1" fill="#DB0007" />
<rect x="26" y="35" width="2" height="1" fill="#FF0048" />
<rect x="38" y="35" width="1" height="4" fill="#FF0048" />
<rect x="39" y="35" width="1" height="3" fill="#B52603" />
<rect x="41" y="35" width="1" height="1" fill="#B52603" />
<rect x="42" y="35" width="1" height="1" fill="#DB0007" />
<rect x="43" y="35" width="1" height="2" fill="#FF0048" />
<rect x="53" y="35" width="1" height="2" fill="#FF0048" />
<rect x="54" y="35" width="1" height="1" fill="#B52603" />
<rect x="56" y="35" width="1" height="1" fill="#B52603" />
<rect x="57" y="35" width="2" height="1" fill="#FF0048" />
<rect x="5" y="36" width="1" height="1" fill="#FF0048" />
<rect x="6" y="36" width="1" height="1" fill="#DB0007" />
<rect x="7" y="36" width="1" height="1" fill="#B52603" />
<rect x="8" y="36" width="1" height="1" fill="#732F0D" />
<rect x="9" y="36" width="3" height="1" fill="#FFFFFF" />
<rect x="21" y="36" width="1" height="1" fill="#FF0048" />
<rect x="23" y="36" width="1" height="1" fill="#732F0D" />
<rect x="24" y="36" width="1" height="1" fill="#DB0007" />
<rect x="25" y="36" width="1" height="1" fill="#B52603" />
<rect x="26" y="36" width="1" height="1" fill="#DB0007" />
<rect x="27" y="36" width="1" height="1" fill="#FF0048" />
<rect x="36" y="36" width="1" height="1" fill="#FF0048" />
<rect x="40" y="36" width="2" height="1" fill="#732F0D" />
<rect x="42" y="36" width="1" height="1" fill="#B52603" />
<rect x="54" y="36" width="1" height="3" fill="#FF0048" />
<rect x="56" y="36" width="2" height="1" fill="#732F0D" />
<rect x="58" y="36" width="1" height="1" fill="#B52603" />
<rect x="59" y="36" width="1" height="1" fill="#FF0048" />
<rect x="6" y="37" width="1" height="1" fill="#FF0048" />
<rect x="7" y="37" width="1" height="1" fill="#DB0007" />
<rect x="8" y="37" width="1" height="2" fill="#FFFFFF" />
<rect x="9" y="37" width="1" height="1" fill="#3C3D0A" />
<rect x="10" y="37" width="1" height="2" fill="#FFFFFF" />
<rect x="11" y="37" width="1" height="1" fill="#3C3D0A" />
<rect x="12" y="37" width="1" height="2" fill="#FF0048" />
<rect x="17" y="37" width="1" height="1" fill="#FF0048" />
<rect x="23" y="37" width="1" height="1" fill="#B52603" />
<rect x="24" y="37" width="1" height="1" fill="#732F0D" />
<rect x="25" y="37" width="3" height="1" fill="#FFFFFF" />
<rect x="29" y="37" width="1" height="1" fill="#FF0048" />
<rect x="40" y="37" width="1" height="1" fill="#732F0D" />
<rect x="41" y="37" width="3" height="1" fill="#FFFFFF" />
<rect x="56" y="37" width="1" height="1" fill="#732F0D" />
<rect x="57" y="37" width="3" height="1" fill="#FFFFFF" />
<rect x="2" y="38" width="1" height="1" fill="#FF0048" />
<rect x="7" y="38" width="1" height="1" fill="#FF0048" />
<rect x="9" y="38" width="1" height="2" fill="#FFFFFF" />
<rect x="11" y="38" width="1" height="2" fill="#FFFFFF" />
<rect x="23" y="38" width="1" height="1" fill="#DB0007" />
<rect x="24" y="38" width="1" height="2" fill="#FFFFFF" />
<rect x="25" y="38" width="1" height="1" fill="#3C3D0A" />
<rect x="26" y="38" width="1" height="2" fill="#FFFFFF" />
<rect x="27" y="38" width="1" height="1" fill="#3C3D0A" />
<rect x="28" y="38" width="1" height="2" fill="#FF0048" />
<rect x="39" y="38" width="1" height="1" fill="#DB0007" />
<rect x="40" y="38" width="1" height="2" fill="#FFFFFF" />
<rect x="41" y="38" width="1" height="1" fill="#3C3D0A" />
<rect x="42" y="38" width="1" height="2" fill="#FFFFFF" />
<rect x="43" y="38" width="1" height="1" fill="#3C3D0A" />
<rect x="44" y="38" width="1" height="2" fill="#FF0048" />
<rect x="55" y="38" width="1" height="1" fill="#DB0007" />
<rect x="56" y="38" width="1" height="2" fill="#FFFFFF" />
<rect x="57" y="38" width="1" height="1" fill="#3C3D0A" />
<rect x="58" y="38" width="1" height="2" fill="#FFFFFF" />
<rect x="59" y="38" width="1" height="1" fill="#3C3D0A" />
<rect x="60" y="38" width="1" height="2" fill="#FF0048" />
<rect x="8" y="39" width="1" height="1" fill="#FF0048" />
<rect x="10" y="39" width="1" height="1" fill="#3C3D0A" />
<rect x="20" y="39" width="1" height="1" fill="#FF0048" />
<rect x="23" y="39" width="1" height="1" fill="#FF0048" />
<rect x="25" y="39" width="1" height="2" fill="#FFFFFF" />
<rect x="27" y="39" width="1" height="3" fill="#FFFFFF" />
<rect x="39" y="39" width="1" height="1" fill="#FF0048" />
<rect x="41" y="39" width="1" height="2" fill="#FFFFFF" />
<rect x="43" y="39" width="1" height="3" fill="#FFFFFF" />
<rect x="55" y="39" width="1" height="1" fill="#FF0048" />
<rect x="57" y="39" width="1" height="2" fill="#FFFFFF" />
<rect x="59" y="39" width="1" height="3" fill="#FFFFFF" />
<rect x="24" y="40" width="1" height="1" fill="#FF0048" />
<rect x="26" y="40" width="1" height="1" fill="#3C3D0A" />
<rect x="40" y="40" width="1" height="1" fill="#FF0048" />
<rect x="42" y="40" width="1" height="1" fill="#3C3D0A" />
<rect x="56" y="40" width="1" height="1" fill="#FF0048" />
<rect x="58" y="40" width="1" height="1" fill="#3C3D0A" />
<rect x="6" y="41" width="3" height="1" fill="#FFFFFF" />
<rect x="9" y="41" width="1" height="1" fill="#564215" />
<rect x="10" y="41" width="2" height="1" fill="#FFFFFF" />
<rect x="22" y="41" width="3" height="1" fill="#FFFFFF" />
<rect x="25" y="41" width="1" height="1" fill="#564215" />
<rect x="26" y="41" width="1" height="1" fill="#FFFFFF" />
<rect x="38" y="41" width="3" height="1" fill="#FFFFFF" />
<rect x="41" y="41" width="1" height="1" fill="#564215" />
<rect x="42" y="41" width="1" height="1" fill="#FFFFFF" />
<rect x="54" y="41" width="3" height="1" fill="#FFFFFF" />
<rect x="57" y="41" width="1" height="1" fill="#564215" />
<rect x="58" y="41" width="1" height="1" fill="#FFFFFF" />
<rect x="3" y="42" width="2" height="2" fill="#FF0048" />
<rect x="7" y="42" width="2" height="1" fill="#564215" />
<rect x="9" y="42" width="1" height="2" fill="#FFFFFF" />
<rect x="10" y="42" width="1" height="1" fill="#564215" />
<rect x="12" y="42" width="2" height="2" fill="#B52603" />
<rect x="19" y="42" width="2" height="2" fill="#FF0048" />
<rect x="23" y="42" width="2" height="1" fill="#564215" />
<rect x="25" y="42" width="1" height="2" fill="#FFFFFF" />
<rect x="26" y="42" width="1" height="1" fill="#564215" />
<rect x="28" y="42" width="2" height="2" fill="#B52603" />
<rect x="35" y="42" width="2" height="2" fill="#FF0048" />
<rect x="39" y="42" width="2" height="1" fill="#564215" />
<rect x="41" y="42" width="1" height="2" fill="#FFFFFF" />
<rect x="42" y="42" width="1" height="1" fill="#564215" />
<rect x="44" y="42" width="2" height="2" fill="#B52603" />
<rect x="51" y="42" width="2" height="2" fill="#FF0048" />
<rect x="55" y="42" width="2" height="1" fill="#564215" />
<rect x="57" y="42" width="1" height="2" fill="#FFFFFF" />
<rect x="58" y="42" width="1" height="1" fill="#564215" />
<rect x="6" y="43" width="3" height="1" fill="#FFFFFF" />
<rect x="10" y="43" width="2" height="1" fill="#FFFFFF" />
<rect x="22" y="43" width="3" height="1" fill="#FFFFFF" />
<rect x="26" y="43" width="2" height="1" fill="#FFFFFF" />
<rect x="38" y="43" width="3" height="1" fill="#FFFFFF" />
<rect x="42" y="43" width="2" height="1" fill="#FFFFFF" />
<rect x="54" y="43" width="3" height="1" fill="#FFFFFF" />
<rect x="58" y="43" width="2" height="1" fill="#FFFFFF" />
<rect x="60" y="43" width="2" height="2" fill="#B52603" />
<rect x="7" y="44" width="1" height="1" fill="#564215" />
<rect x="8" y="44" width="1" height="1" fill="#FFFFFF" />
<rect x="9" y="44" width="1" height="2" fill="#564215" />
<rect x="10" y="44" width="1" height="1" fill="#FFFFFF" />
<rect x="23" y="44" width="1" height="1" fill="#564215" />
<rect x="24" y="44" width="1" height="1" fill="#FFFFFF" />
<rect x="25" y="44" width="1" height="2" fill="#564215" />
<rect x="26" y="44" width="1" height="1" fill="#FFFFFF" />
<rect x="39" y="44" width="1" height="1" fill="#564215" />
<rect x="40" y="44" width="1" height="1" fill="#FFFFFF" />
<rect x="41" y="44" width="1" height="2" fill="#564215" />
<rect x="42" y="44" width="1" height="1" fill="#FFFFFF" />
<rect x="55" y="44" width="1" height="1" fill="#564215" />
<rect x="56" y="44" width="1" height="1" fill="#FFFFFF" />
<rect x="57" y="44" width="1" height="2" fill="#564215" />
<rect x="58" y="44" width="1" height="1" fill="#FFFFFF" />
<rect x="6" y="45" width="2" height="1" fill="#FFFFFF" />
<rect x="8" y="45" width="1" height="2" fill="#564215" />
<rect x="10" y="45" width="1" height="2" fill="#564215" />
<rect x="11" y="45" width="1" height="1" fill="#FFFFFF" />
<rect x="22" y="45" width="2" height="1" fill="#FFFFFF" />
<rect x="24" y="45" width="1" height="2" fill="#564215" />
<rect x="26" y="45" width="1" height="2" fill="#564215" />
<rect x="27" y="45" width="1" height="1" fill="#FFFFFF" />
<rect x="38" y="45" width="2" height="1" fill="#FFFFFF" />
<rect x="40" y="45" width="1" height="2" fill="#564215" />
<rect x="42" y="45" width="1" height="2" fill="#564215" />
<rect x="43" y="45" width="1" height="1" fill="#FFFFFF" />
<rect x="54" y="45" width="2" height="1" fill="#FFFFFF" />
<rect x="56" y="45" width="1" height="2" fill="#564215" />
<rect x="58" y="45" width="1" height="2" fill="#564215" />
<rect x="59" y="45" width="1" height="1" fill="#FFFFFF" />
<rect x="7" y="46" width="1" height="2" fill="#564215" />
<rect x="23" y="46" width="1" height="2" fill="#564215" />
<rect x="39" y="46" width="1" height="2" fill="#564215" />
<rect x="55" y="46" width="1" height="2" fill="#564215" />
</svg>