<?xml version="1.0" encoding="UTF-8" ?>
<svg version="1.1" width="144" height="48" xmlns="http://www.w3.org/2000/svg" shape-rendering="crispEdges">
<rect x="1" y="0" width="46" height="1" fill="#1E579C" />
<rect x="49" y="0" width="46" height="1" fill="#0098DB" />
<rect x="0" y="1" width="1" height="12" fill="#1E579C" />
<rect x="1" y="1" width="46" height="2" fill="#0098DB" />
<rect x="47" y="1" width="1" height="12" fill="#203562" />
<rect x="48" y="1" width="1" height="12" fill="#0098DB" />
<rect x="49" y="1" width="46" height="2" fill="#0CE6F2" />
<rect x="95" y="1" width="1" height="12" fill="#1E579C" />
<rect x="97" y="1" width="46" height="1" fill="#1E579C" />
<rect x="96" y="2" width="1" height="12" fill="#1E579C" />
<rect x="97" y="2" width="46" height="2" fill="#0098DB" />
<rect x="143" y="2" width="1" height="12" fill="#203562" />
<rect x="1" y="3" width="6" height="10" fill="#0098DB" />
<rect x="7" y="3" width="6" height="2" fill="#FFFFFF" />
<rect x="13" y="3" width="2" height="10" fill="#0098DB" />
<rect x="15" y="3" width="6" height="2" fill="#FFFFFF" />
<rect x="21" y="3" width="2" height="10" fill="#0098DB" />
<rect x="23" y="3" width="6" height="2" fill="#FFFFFF" />
<rect x="29" y="3" width="2" height="10" fill="#0098DB" />
<rect x="31" y="3" width="4" height="2" fill="#FFFFFF" />
<rect x="35" y="3" width="12" height="2" fill="#0098DB" />
<rect x="49" y="3" width="9" height="1" fill="#0CE6F2" />
<rect x="58" y="3" width="6" height="2" fill="#FFFFFF" />
<rect x="64" y="3" width="2" height="10" fill="#0CE6F2" />
<rect x="66" y="3" width="6" height="2" fill="#FFFFFF" />
<rect x="72" y="3" width="2" height="10" fill="#0CE6F2" />
<rect x="74" y="3" width="6" height="2" fill="#FFFFFF" />
<rect x="80" y="3" width="2" height="10" fill="#0CE6F2" />
<rect x="82" y="3" width="4" height="2" fill="#FFFFFF" />
<rect x="86" y="3" width="9" height="2" fill="#0CE6F2" />
<rect x="49" y="4" width="3" height="9" fill="#0CE6F2" />
<rect x="52" y="4" width="1" height="6" fill="#FFFFFF" />
<rect x="53" y="4" width="5" height="1" fill="#0CE6F2" />
<rect x="97" y="4" width="9" height="1" fill="#0098DB" />
<rect x="106" y="4" width="6" height="2" fill="#201533" />
<rect x="112" y="4" width="2" height="10" fill="#0098DB" />
<rect x="114" y="4" width="6" height="2" fill="#201533" />
<rect x="120" y="4" width="2" height="10" fill="#0098DB" />
<rect x="122" y="4" width="6" height="2" fill="#201533" />
<rect x="128" y="4" width="2" height="10" fill="#0098DB" />
<rect x="130" y="4" width="4" height="2" fill="#201533" />
<rect x="134" y="4" width="9" height="2" fill="#0098DB" />
<rect x="7" y="5" width="2" height="6" fill="#FFFFFF" />
<rect x="9" y="5" width="4" height="4" fill="#0098DB" />
<rect x="15" y="5" width="2" height="6" fill="#FFFFFF" />
<rect x="17" y="5" width="2" height="2" fill="#0098DB" />
<rect x="19" y="5" width="2" height="2" fill="#FFFFFF" />
<rect x="23" y="5" width="2" height="6" fill="#FFFFFF" />
<rect x="25" y="5" width="4" height="2" fill="#0098DB" />
<rect x="31" y="5" width="2" height="6" fill="#FFFFFF" />
<rect x="33" y="5" width="2" height="4" fill="#0098DB" />
<rect x="35" y="5" width="2" height="4" fill="#FFFFFF" />
<rect x="37" y="5" width="10" height="4" fill="#0098DB" />
<rect x="53" y="5" width="1" height="4" fill="#FFFFFF" />
<rect x="54" y="5" width="4" height="1" fill="#0CE6F2" />
<rect x="58" y="5" width="2" height="6" fill="#FFFFFF" />
<rect x="60" y="5" width="4" height="4" fill="#0CE6F2" />
<rect x="66" y="5" width="2" height="6" fill="#FFFFFF" />
<rect x="68" y="5" width="2" height="2" fill="#0CE6F2" />
<rect x="70" y="5" width="2" height="2" fill="#FFFFFF" />
<rect x="74" y="5" width="2" height="6" fill="#FFFFFF" />
<rect x="76" y="5" width="4" height="2" fill="#0CE6F2" />
<rect x="82" y="5" width="2" height="6" fill="#FFFFFF" />
<rect x="84" y="5" width="2" height="4" fill="#0CE6F2" />
<rect x="86" y="5" width="2" height="4" fill="#FFFFFF" />
<rect x="88" y="5" width="7" height="4" fill="#0CE6F2" />
<rect x="97" y="5" width="3" height="9" fill="#0098DB" />
<rect x="100" y="5" width="1" height="6" fill="#201533" />
<rect x="101" y="5" width="5" height="1" fill="#0098DB" />
<rect x="54" y="6" width="1" height="2" fill="#FFFFFF" />
<rect x="55" y="6" width="3" height="7" fill="#0CE6F2" />
<rect x="101" y="6" width="1" height="4" fill="#201533" />
<rect x="102" y="6" width="4" height="1" fill="#0098DB" />
<rect x="106" y="6" width="2" height="6" fill="#201533" />
<rect x="108" y="6" width="4" height="4" fill="#0098DB" />
<rect x="114" y="6" width="2" height="6" fill="#201533" />
<rect x="116" y="6" width="2" height="2" fill="#0098DB" />
<rect x="118" y="6" width="2" height="2" fill="#201533" />
<rect x="122" y="6" width="2" height="6" fill="#201533" />
<rect x="124" y="6" width="4" height="2" fill="#0098DB" />
<rect x="130" y="6" width="2" height="6" fill="#201533" />
<rect x="132" y="6" width="2" height="4" fill="#0098DB" />
<rect x="134" y="6" width="2" height="4" fill="#201533" />
<rect x="136" y="6" width="7" height="4" fill="#0098DB" />
<rect x="17" y="7" width="2" height="2" fill="#FFFFFF" />
<rect x="19" y="7" width="2" height="2" fill="#0098DB" />
<rect x="25" y="7" width="2" height="4" fill="#FFFFFF" />
<rect x="27" y="7" width="2" height="2" fill="#0098DB" />
<rect x="68" y="7" width="2" height="2" fill="#FFFFFF" />
<rect x="70" y="7" width="2" height="2" fill="#0CE6F2" />
<rect x="76" y="7" width="2" height="4" fill="#FFFFFF" />
<rect x="78" y="7" width="2" height="2" fill="#0CE6F2" />
<rect x="102" y="7" width="1" height="2" fill="#201533" />
<rect x="103" y="7" width="3" height="7" fill="#0098DB" />
<rect x="54" y="8" width="1" height="5" fill="#0CE6F2" />
<rect x="116" y="8" width="2" height="2" fill="#201533" />
<rect x="118" y="8" width="2" height="2" fill="#0098DB" />
<rect x="124" y="8" width="2" height="4" fill="#201533" />
<rect x="126" y="8" width="2" height="2" fill="#0098DB" />
<rect x="9" y="9" width="4" height="2" fill="#FFFFFF" />
<rect x="17" y="9" width="2" height="4" fill="#0098DB" />
<rect x="19" y="9" width="2" height="2" fill="#FFFFFF" />
<rect x="27" y="9" width="2" height="2" fill="#FFFFFF" />
<rect x="33" y="9" width="2" height="2" fill="#FFFFFF" />
<rect x="35" y="9" width="4" height="4" fill="#0098DB" />
<rect x="39" y="9" width="2" height="2" fill="#FFFFFF" />
<rect x="41" y="9" width="6" height="4" fill="#0098DB" />
<rect x="53" y="9" width="1" height="4" fill="#0CE6F2" />
<rect x="60" y="9" width="4" height="2" fill="#FFFFFF" />
<rect x="68" y="9" width="2" height="4" fill="#0CE6F2" />
<rect x="70" y="9" width="2" height="2" fill="#FFFFFF" />
<rect x="78" y="9" width="2" height="2" fill="#FFFFFF" />
<rect x="84" y="9" width="2" height="2" fill="#FFFFFF" />
<rect x="86" y="9" width="4" height="4" fill="#0CE6F2" />
<rect x="90" y="9" width="2" height="2" fill="#FFFFFF" />
<rect x="92" y="9" width="3" height="4" fill="#0CE6F2" />
<rect x="102" y="9" width="1" height="5" fill="#0098DB" />
<rect x="52" y="10" width="1" height="3" fill="#0CE6F2" />
<rect x="101" y="10" width="1" height="4" fill="#0098DB" />
<rect x="108" y="10" width="4" height="2" fill="#201533" />
<rect x="116" y="10" width="2" height="4" fill="#0098DB" />
<rect x="118" y="10" width="2" height="2" fill="#201533" />
<rect x="126" y="10" width="2" height="2" fill="#201533" />
<rect x="132" y="10" width="2" height="2" fill="#201533" />
<rect x="134" y="10" width="4" height="4" fill="#0098DB" />
<rect x="138" y="10" width="2" height="2" fill="#201533" />
<rect x="140" y="10" width="3" height="4" fill="#0098DB" />
<rect x="7" y="11" width="6" height="2" fill="#0098DB" />
<rect x="15" y="11" width="2" height="2" fill="#0098DB" />
<rect x="19" y="11" width="2" height="2" fill="#0098DB" />
<rect x="23" y="11" width="6" height="2" fill="#0098DB" />
<rect x="31" y="11" width="4" height="2" fill="#0098DB" />
<rect x="39" y="11" width="2" height="2" fill="#0098DB" />
<rect x="58" y="11" width="6" height="2" fill="#0CE6F2" />
<rect x="66" y="11" width="2" height="2" fill="#0CE6F2" />
<rect x="70" y="11" width="2" height="2" fill="#0CE6F2" />
<rect x="74" y="11" width="6" height="2" fill="#0CE6F2" />
<rect x="82" y="11" width="4" height="2" fill="#0CE6F2" />
<rect x="90" y="11" width="2" height="2" fill="#0CE6F2" />
<rect x="100" y="11" width="1" height="3" fill="#0098DB" />
<rect x="106" y="12" width="6" height="2" fill="#0098DB" />
<rect x="114" y="12" width="2" height="2" fill="#0098DB" />
<rect x="118" y="12" width="2" height="2" fill="#0098DB" />
<rect x="122" y="12" width="6" height="2" fill="#0098DB" />
<rect x="130" y="12" width="4" height="2" fill="#0098DB" />
<rect x="138" y="12" width="2" height="2" fill="#0098DB" />
<rect x="0" y="13" width="1" height="2" fill="#252446" />
<rect x="1" y="13" width="46" height="1" fill="#203562" />
<rect x="47" y="13" width="1" height="2" fill="#252446" />
<rect x="48" y="13" width="1" height="2" fill="#203562" />
<rect x="49" y="13" width="46" height="1" fill="#1E579C" />
<rect x="95" y="13" width="1" height="2" fill="#203562" />
<rect x="1" y="14" width="46" height="2" fill="#252446" />
<rect x="49" y="14" width="46" height="2" fill="#203562" />
<rect x="96" y="14" width="1" height="1" fill="#252446" />
<rect x="97" y="14" width="46" height="1" fill="#203562" />
<rect x="143" y="14" width="1" height="1" fill="#252446" />
<rect x="97" y="15" width="46" height="1" fill="#252446" />
<rect x="1" y="16" width="46" height="1" fill="#1E579C" />
<rect x="49" y="16" width="46" height="1" fill="#0098DB" />
<rect x="0" y="17" width="1" height="12" fill="#1E579C" />
<rect x="1" y="17" width="46" height="2" fill="#0098DB" />
<rect x="47" y="17" width="1" height="12" fill="#203562" />
<rect x="48" y="17" width="1" height="12" fill="#0098DB" />
<rect x="49" y="17" width="46" height="2" fill="#0CE6F2" />
<rect x="95" y="17" width="1" height="12" fill="#1E579C" />
<rect x="97" y="17" width="46" height="1" fill="#1E579C" />
<rect x="96" y="18" width="1" height="12" fill="#1E579C" />
<rect x="97" y="18" width="46" height="2" fill="#0098DB" />
<rect x="143" y="18" width="1" height="12" fill="#203562" />
<rect x="1" y="19" width="2" height="10" fill="#0098DB" />
<rect x="3" y="19" width="6" height="2" fill="#FFFFFF" />
<rect x="9" y="19" width="2" height="10" fill="#0098DB" />
<rect x="11" y="19" width="6" height="2" fill="#FFFFFF" />
<rect x="17" y="19" width="2" height="10" fill="#0098DB" />
<rect x="19" y="19" width="4" height="2" fill="#FFFFFF" />
<rect x="23" y="19" width="4" height="2" fill="#0098DB" />
<rect x="27" y="19" width="6" height="2" fill="#FFFFFF" />
<rect x="33" y="19" width="2" height="10" fill="#0098DB" />
<rect x="35" y="19" width="2" height="8" fill="#FFFFFF" />
<rect x="37" y="19" width="2" height="10" fill="#0098DB" />
<rect x="39" y="19" width="6" height="2" fill="#FFFFFF" />
<rect x="45" y="19" width="2" height="10" fill="#0098DB" />
<rect x="49" y="19" width="4" height="1" fill="#0CE6F2" />
<rect x="53" y="19" width="6" height="2" fill="#FFFFFF" />
<rect x="59" y="19" width="2" height="10" fill="#0CE6F2" />
<rect x="61" y="19" width="6" height="2" fill="#FFFFFF" />
<rect x="67" y="19" width="2" height="10" fill="#0CE6F2" />
<rect x="69" y="19" width="4" height="2" fill="#FFFFFF" />
<rect x="73" y="19" width="4" height="2" fill="#0CE6F2" />
<rect x="77" y="19" width="6" height="2" fill="#FFFFFF" />
<rect x="83" y="19" width="2" height="10" fill="#0CE6F2" />
<rect x="85" y="19" width="2" height="8" fill="#FFFFFF" />
<rect x="87" y="19" width="2" height="10" fill="#0CE6F2" />
<rect x="89" y="19" width="6" height="2" fill="#FFFFFF" />
<rect x="49" y="20" width="1" height="6" fill="#FFFFFF" />
<rect x="50" y="20" width="3" height="1" fill="#0CE6F2" />
<rect x="97" y="20" width="4" height="1" fill="#0098DB" />
<rect x="101" y="20" width="6" height="2" fill="#201533" />
<rect x="107" y="20" width="2" height="10" fill="#0098DB" />
<rect x="109" y="20" width="6" height="2" fill="#201533" />
<rect x="115" y="20" width="2" height="10" fill="#0098DB" />
<rect x="117" y="20" width="4" height="2" fill="#201533" />
<rect x="121" y="20" width="4" height="2" fill="#0098DB" />
<rect x="125" y="20" width="6" height="2" fill="#201533" />
<rect x="131" y="20" width="2" height="10" fill="#0098DB" />
<rect x="133" y="20" width="2" height="8" fill="#201533" />
<rect x="135" y="20" width="2" height="10" fill="#0098DB" />
<rect x="137" y="20" width="6" height="2" fill="#201533" />
<rect x="3" y="21" width="2" height="6" fill="#FFFFFF" />
<rect x="5" y="21" width="4" height="4" fill="#0098DB" />
<rect x="11" y="21" width="2" height="6" fill="#FFFFFF" />
<rect x="13" y="21" width="2" height="4" fill="#0098DB" />
<rect x="15" y="21" width="2" height="6" fill="#FFFFFF" />
<rect x="19" y="21" width="2" height="6" fill="#FFFFFF" />
<rect x="21" y="21" width="2" height="8" fill="#0098DB" />
<rect x="23" y="21" width="2" height="6" fill="#FFFFFF" />
<rect x="25" y="21" width="2" height="8" fill="#0098DB" />
<rect x="27" y="21" width="2" height="6" fill="#FFFFFF" />
<rect x="29" y="21" width="4" height="2" fill="#0098DB" />
<rect x="39" y="21" width="2" height="6" fill="#FFFFFF" />
<rect x="41" y="21" width="4" height="2" fill="#0098DB" />
<rect x="50" y="21" width="1" height="4" fill="#FFFFFF" />
<rect x="51" y="21" width="2" height="1" fill="#0CE6F2" />
<rect x="53" y="21" width="2" height="6" fill="#FFFFFF" />
<rect x="55" y="21" width="4" height="4" fill="#0CE6F2" />
<rect x="61" y="21" width="2" height="6" fill="#FFFFFF" />
<rect x="63" y="21" width="2" height="4" fill="#0CE6F2" />
<rect x="65" y="21" width="2" height="6" fill="#FFFFFF" />
<rect x="69" y="21" width="2" height="6" fill="#FFFFFF" />
<rect x="71" y="21" width="2" height="8" fill="#0CE6F2" />
<rect x="73" y="21" width="2" height="6" fill="#FFFFFF" />
<rect x="75" y="21" width="2" height="8" fill="#0CE6F2" />
<rect x="77" y="21" width="2" height="6" fill="#FFFFFF" />
<rect x="79" y="21" width="4" height="2" fill="#0CE6F2" />
<rect x="89" y="21" width="2" height="6" fill="#FFFFFF" />
<rect x="91" y="21" width="4" height="2" fill="#0CE6F2" />
<rect x="97" y="21" width="1" height="6" fill="#201533" />
<rect x="98" y="21" width="3" height="1" fill="#0098DB" />
<rect x="51" y="22" width="1" height="2" fill="#FFFFFF" />
<rect x="52" y="22" width="1" height="7" fill="#0CE6F2" />
<rect x="98" y="22" width="1" height="4" fill="#201533" />
<rect x="99" y="22" width="2" height="1" fill="#0098DB" />
<rect x="101" y="22" width="2" height="6" fill="#201533" />
<rect x="103" y="22" width="4" height="4" fill="#0098DB" />
<rect x="109" y="22" width="2" height="6" fill="#201533" />
<rect x="111" y="22" width="2" height="4" fill="#0098DB" />
<rect x="113" y="22" width="2" height="6" fill="#201533" />
<rect x="117" y="22" width="2" height="6" fill="#201533" />
<rect x="119" y="22" width="2" height="8" fill="#0098DB" />
<rect x="121" y="22" width="2" height="6" fill="#201533" />
<rect x="123" y="22" width="2" height="8" fill="#0098DB" />
<rect x="125" y="22" width="2" height="6" fill="#201533" />
<rect x="127" y="22" width="4" height="2" fill="#0098DB" />
<rect x="137" y="22" width="2" height="6" fill="#201533" />
<rect x="139" y="22" width="4" height="2" fill="#0098DB" />
<rect x="29" y="23" width="2" height="2" fill="#FFFFFF" />
<rect x="31" y="23" width="2" height="6" fill="#0098DB" />
<rect x="41" y="23" width="2" height="2" fill="#0098DB" />
<rect x="43" y="23" width="2" height="4" fill="#FFFFFF" />
<rect x="79" y="23" width="2" height="2" fill="#FFFFFF" />
<rect x="81" y="23" width="2" height="6" fill="#0CE6F2" />
<rect x="91" y="23" width="2" height="2" fill="#0CE6F2" />
<rect x="93" y="23" width="2" height="4" fill="#FFFFFF" />
<rect x="99" y="23" width="1" height="2" fill="#201533" />
<rect x="100" y="23" width="1" height="7" fill="#0098DB" />
<rect x="51" y="24" width="1" height="5" fill="#0CE6F2" />
<rect x="127" y="24" width="2" height="2" fill="#201533" />
<rect x="129" y="24" width="2" height="6" fill="#0098DB" />
<rect x="139" y="24" width="2" height="2" fill="#0098DB" />
<rect x="141" y="24" width="2" height="4" fill="#201533" />
<rect x="5" y="25" width="4" height="2" fill="#FFFFFF" />
<rect x="13" y="25" width="2" height="2" fill="#FFFFFF" />
<rect x="29" y="25" width="2" height="4" fill="#0098DB" />
<rect x="41" y="25" width="2" height="2" fill="#FFFFFF" />
<rect x="50" y="25" width="1" height="4" fill="#0CE6F2" />
<rect x="55" y="25" width="4" height="2" fill="#FFFFFF" />
<rect x="63" y="25" width="2" height="2" fill="#FFFFFF" />
<rect x="79" y="25" width="2" height="4" fill="#0CE6F2" />
<rect x="91" y="25" width="2" height="2" fill="#FFFFFF" />
<rect x="99" y="25" width="1" height="5" fill="#0098DB" />
<rect x="49" y="26" width="1" height="3" fill="#0CE6F2" />
<rect x="98" y="26" width="1" height="4" fill="#0098DB" />
<rect x="103" y="26" width="4" height="2" fill="#201533" />
<rect x="111" y="26" width="2" height="2" fill="#201533" />
<rect x="127" y="26" width="2" height="4" fill="#0098DB" />
<rect x="139" y="26" width="2" height="2" fill="#201533" />
<rect x="3" y="27" width="6" height="2" fill="#0098DB" />
<rect x="11" y="27" width="6" height="2" fill="#0098DB" />
<rect x="19" y="27" width="2" height="2" fill="#0098DB" />
<rect x="23" y="27" width="2" height="2" fill="#0098DB" />
<rect x="27" y="27" width="2" height="2" fill="#0098DB" />
<rect x="35" y="27" width="2" height="2" fill="#0098DB" />
<rect x="39" y="27" width="6" height="2" fill="#0098DB" />
<rect x="53" y="27" width="6" height="2" fill="#0CE6F2" />
<rect x="61" y="27" width="6" height="2" fill="#0CE6F2" />
<rect x="69" y="27" width="2" height="2" fill="#0CE6F2" />
<rect x="73" y="27" width="2" height="2" fill="#0CE6F2" />
<rect x="77" y="27" width="2" height="2" fill="#0CE6F2" />
<rect x="85" y="27" width="2" height="2" fill="#0CE6F2" />
<rect x="89" y="27" width="6" height="2" fill="#0CE6F2" />
<rect x="97" y="27" width="1" height="3" fill="#0098DB" />
<rect x="101" y="28" width="6" height="2" fill="#0098DB" />
<rect x="109" y="28" width="6" height="2" fill="#0098DB" />
<rect x="117" y="28" width="2" height="2" fill="#0098DB" />
<rect x="121" y="28" width="2" height="2" fill="#0098DB" />
<rect x="125" y="28" width="2" height="2" fill="#0098DB" />
<rect x="133" y="28" width="2" height="2" fill="#0098DB" />
<rect x="137" y="28" width="6" height="2" fill="#0098DB" />
<rect x="0" y="29" width="1" height="2" fill="#252446" />
<rect x="1" y="29" width="46" height="1" fill="#203562" />
<rect x="47" y="29" width="1" height="2" fill="#252446" />
<rect x="48" y="29" width="1" height="2" fill="#203562" />
<rect x="49" y="29" width="46" height="1" fill="#1E579C" />
<rect x="95" y="29" width="1" height="2" fill="#203562" />
<rect x="1" y="30" width="46" height="2" fill="#252446" />
<rect x="49" y="30" width="46" height="2" fill="#203562" />
<rect x="96" y="30" width="1" height="1" fill="#252446" />
<rect x="97" y="30" width="46" height="1" fill="#203562" />
<rect x="143" y="30" width="1" height="1" fill="#252446" />
<rect x="97" y="31" width="46" height="1" fill="#252446" />
<rect x="1" y="32" width="46" height="1" fill="#1E579C" />
<rect x="49" y="32" width="46" height="1" fill="#0098DB" />
<rect x="0" y="33" width="1" height="12" fill="#1E579C" />
<rect x="1" y="33" width="46" height="2" fill="#0098DB" />
<rect x="47" y="33" width="1" height="12" fill="#203562" />
<rect x="48" y="33" width="1" height="12" fill="#0098DB" />
<rect x="49" y="33" width="46" height="2" fill="#0CE6F2" />
<rect x="95" y="33" width="1" height="12" fill="#1E579C" />
<rect x="97" y="33" width="46" height="1" fill="#1E579C" />
<rect x="96" y="34" width="1" height="12" fill="#1E579C" />
<rect x="97" y="34" width="46" height="2" fill="#0098DB" />
<rect x="143" y="34" width="1" height="12" fill="#203562" />
<rect x="1" y="35" width="3" height="10" fill="#0098DB" />
<rect x="4" y="35" width="8" height="2" fill="#FFFFFF" />
<rect x="12" y="35" width="2" height="10" fill="#0098DB" />
<rect x="14" y="35" width="6" height="2" fill="#FFFFFF" />
<rect x="20" y="35" width="2" height="10" fill="#0098DB" />
<rect x="22" y="35" width="6" height="2" fill="#FFFFFF" />
<rect x="28" y="35" width="2" height="10" fill="#0098DB" />
<rect x="30" y="35" width="6" height="2" fill="#FFFFFF" />
<rect x="36" y="35" width="2" height="10" fill="#0098DB" />
<rect x="38" y="35" width="6" height="2" fill="#FFFFFF" />
<rect x="44" y="35" width="3" height="10" fill="#0098DB" />
<rect x="49" y="35" width="5" height="1" fill="#0CE6F2" />
<rect x="54" y="35" width="8" height="2" fill="#FFFFFF" />
<rect x="62" y="35" width="2" height="10" fill="#0CE6F2" />
<rect x="64" y="35" width="6" height="2" fill="#FFFFFF" />
<rect x="70" y="35" width="2" height="10" fill="#0CE6F2" />
<rect x="72" y="35" width="6" height="2" fill="#FFFFFF" />
<rect x="78" y="35" width="2" height="10" fill="#0CE6F2" />
<rect x="80" y="35" width="6" height="2" fill="#FFFFFF" />
<rect x="86" y="35" width="2" height="10" fill="#0CE6F2" />
<rect x="88" y="35" width="6" height="2" fill="#FFFFFF" />
<rect x="94" y="35" width="1" height="10" fill="#0CE6F2" />
<rect x="49" y="36" width="1" height="9" fill="#0CE6F2" />
<rect x="50" y="36" width="1" height="6" fill="#FFFFFF" />
<rect x="51" y="36" width="3" height="1" fill="#0CE6F2" />
<rect x="97" y="36" width="5" height="1" fill="#0098DB" />
<rect x="102" y="36" width="8" height="2" fill="#201533" />
<rect x="110" y="36" width="2" height="10" fill="#0098DB" />
<rect x="112" y="36" width="6" height="2" fill="#201533" />
<rect x="118" y="36" width="2" height="10" fill="#0098DB" />
<rect x="120" y="36" width="6" height="2" fill="#201533" />
<rect x="126" y="36" width="2" height="10" fill="#0098DB" />
<rect x="128" y="36" width="6" height="2" fill="#201533" />
<rect x="134" y="36" width="2" height="10" fill="#0098DB" />
<rect x="136" y="36" width="6" height="2" fill="#201533" />
<rect x="142" y="36" width="1" height="10" fill="#0098DB" />
<rect x="4" y="37" width="4" height="2" fill="#0098DB" />
<rect x="8" y="37" width="2" height="6" fill="#FFFFFF" />
<rect x="10" y="37" width="2" height="8" fill="#0098DB" />
<rect x="14" y="37" width="2" height="6" fill="#FFFFFF" />
<rect x="16" y="37" width="2" height="4" fill="#0098DB" />
<rect x="18" y="37" width="2" height="6" fill="#FFFFFF" />
<rect x="22" y="37" width="2" height="6" fill="#FFFFFF" />
<rect x="24" y="37" width="4" height="2" fill="#0098DB" />
<rect x="30" y="37" width="2" height="6" fill="#FFFFFF" />
<rect x="32" y="37" width="2" height="2" fill="#0098DB" />
<rect x="34" y="37" width="2" height="6" fill="#FFFFFF" />
<rect x="38" y="37" width="2" height="6" fill="#FFFFFF" />
<rect x="40" y="37" width="2" height="2" fill="#0098DB" />
<rect x="42" y="37" width="2" height="2" fill="#FFFFFF" />
<rect x="51" y="37" width="1" height="4" fill="#FFFFFF" />
<rect x="52" y="37" width="6" height="1" fill="#0CE6F2" />
<rect x="58" y="37" width="2" height="6" fill="#FFFFFF" />
<rect x="60" y="37" width="2" height="8" fill="#0CE6F2" />
<rect x="64" y="37" width="2" height="6" fill="#FFFFFF" />
<rect x="66" y="37" width="2" height="4" fill="#0CE6F2" />
<rect x="68" y="37" width="2" height="6" fill="#FFFFFF" />
<rect x="72" y="37" width="2" height="6" fill="#FFFFFF" />
<rect x="74" y="37" width="4" height="2" fill="#0CE6F2" />
<rect x="80" y="37" width="2" height="6" fill="#FFFFFF" />
<rect x="82" y="37" width="2" height="2" fill="#0CE6F2" />
<rect x="84" y="37" width="2" height="6" fill="#FFFFFF" />
<rect x="88" y="37" width="2" height="6" fill="#FFFFFF" />
<rect x="90" y="37" width="2" height="2" fill="#0CE6F2" />
<rect x="92" y="37" width="2" height="2" fill="#FFFFFF" />
<rect x="97" y="37" width="1" height="9" fill="#0098DB" />
<rect x="98" y="37" width="1" height="6" fill="#201533" />
<rect x="99" y="37" width="3" height="1" fill="#0098DB" />
<rect x="52" y="38" width="1" height="2" fill="#FFFFFF" />
<rect x="53" y="38" width="5" height="1" fill="#0CE6F2" />
<rect x="99" y="38" width="1" height="4" fill="#201533" />
<rect x="100" y="38" width="6" height="1" fill="#0098DB" />
<rect x="106" y="38" width="2" height="6" fill="#201533" />
<rect x="108" y="38" width="2" height="8" fill="#0098DB" />
<rect x="112" y="38" width="2" height="6" fill="#201533" />
<rect x="114" y="38" width="2" height="4" fill="#0098DB" />
<rect x="116" y="38" width="2" height="6" fill="#201533" />
<rect x="120" y="38" width="2" height="6" fill="#201533" />
<rect x="122" y="38" width="4" height="2" fill="#0098DB" />
<rect x="128" y="38" width="2" height="6" fill="#201533" />
<rect x="130" y="38" width="2" height="2" fill="#0098DB" />
<rect x="132" y="38" width="2" height="6" fill="#201533" />
<rect x="136" y="38" width="2" height="6" fill="#201533" />
<rect x="138" y="38" width="2" height="2" fill="#0098DB" />
<rect x="140" y="38" width="2" height="2" fill="#201533" />
<rect x="4" y="39" width="2" height="4" fill="#FFFFFF" />
<rect x="6" y="39" width="2" height="2" fill="#0098DB" />
<rect x="24" y="39" width="2" height="2" fill="#0098DB" />
<rect x="26" y="39" width="2" height="4" fill="#FFFFFF" />
<rect x="32" y="39" width="2" height="2" fill="#FFFFFF" />
<rect x="40" y="39" width="2" height="2" fill="#FFFFFF" />
<rect x="42" y="39" width="2" height="2" fill="#0098DB" />
<rect x="53" y="39" width="1" height="6" fill="#0CE6F2" />
<rect x="54" y="39" width="2" height="4" fill="#FFFFFF" />
<rect x="56" y="39" width="2" height="2" fill="#0CE6F2" />
<rect x="74" y="39" width="2" height="2" fill="#0CE6F2" />
<rect x="76" y="39" width="2" height="4" fill="#FFFFFF" />
<rect x="82" y="39" width="2" height="2" fill="#FFFFFF" />
<rect x="90" y="39" width="2" height="2" fill="#FFFFFF" />
<rect x="92" y="39" width="2" height="2" fill="#0CE6F2" />
<rect x="100" y="39" width="1" height="2" fill="#201533" />
<rect x="101" y="39" width="5" height="1" fill="#0098DB" />
<rect x="52" y="40" width="1" height="5" fill="#0CE6F2" />
<rect x="101" y="40" width="1" height="6" fill="#0098DB" />
<rect x="102" y="40" width="2" height="4" fill="#201533" />
<rect x="104" y="40" width="2" height="2" fill="#0098DB" />
<rect x="122" y="40" width="2" height="2" fill="#0098DB" />
<rect x="124" y="40" width="2" height="4" fill="#201533" />
<rect x="130" y="40" width="2" height="2" fill="#201533" />
<rect x="138" y="40" width="2" height="2" fill="#201533" />
<rect x="140" y="40" width="2" height="2" fill="#0098DB" />
<rect x="6" y="41" width="2" height="2" fill="#FFFFFF" />
<rect x="16" y="41" width="2" height="2" fill="#FFFFFF" />
<rect x="24" y="41" width="2" height="2" fill="#FFFFFF" />
<rect x="32" y="41" width="2" height="4" fill="#0098DB" />
<rect x="40" y="41" width="2" height="4" fill="#0098DB" />
<rect x="42" y="41" width="2" height="2" fill="#FFFFFF" />
<rect x="51" y="41" width="1" height="4" fill="#0CE6F2" />
<rect x="56" y="41" width="2" height="2" fill="#FFFFFF" />
<rect x="66" y="41" width="2" height="2" fill="#FFFFFF" />
<rect x="74" y="41" width="2" height="2" fill="#FFFFFF" />
<rect x="82" y="41" width="2" height="4" fill="#0CE6F2" />
<rect x="90" y="41" width="2" height="4" fill="#0CE6F2" />
<rect x="92" y="41" width="2" height="2" fill="#FFFFFF" />
<rect x="100" y="41" width="1" height="5" fill="#0098DB" />
<rect x="50" y="42" width="1" height="3" fill="#0CE6F2" />
<rect x="99" y="42" width="1" height="4" fill="#0098DB" />
<rect x="104" y="42" width="2" height="2" fill="#201533" />
<rect x="114" y="42" width="2" height="2" fill="#201533" />
<rect x="122" y="42" width="2" height="2" fill="#201533" />
<rect x="130" y="42" width="2" height="4" fill="#0098DB" />
<rect x="138" y="42" width="2" height="4" fill="#0098DB" />
<rect x="140" y="42" width="2" height="2" fill="#201533" />
<rect x="4" y="43" width="6" height="2" fill="#0098DB" />
<rect x="14" y="43" width="6" height="2" fill="#0098DB" />
<rect x="22" y="43" width="6" height="2" fill="#0098DB" />
<rect x="30" y="43" width="2" height="2" fill="#0098DB" />
<rect x="34" y="43" width="2" height="2" fill="#0098DB" />
<rect x="38" y="43" width="2" height="2" fill="#0098DB" />
<rect x="42" y="43" width="2" height="2" fill="#0098DB" />
<rect x="54" y="43" width="6" height="2" fill="#0CE6F2" />
<rect x="64" y="43" width="6" height="2" fill="#0CE6F2" />
<rect x="72" y="43" width="6" height="2" fill="#0CE6F2" />
<rect x="80" y="43" width="2" height="2" fill="#0CE6F2" />
<rect x="84" y="43" width="2" height="2" fill="#0CE6F2" />
<rect x="88" y="43" width="2" height="2" fill="#0CE6F2" />
<rect x="92" y="43" width="2" height="2" fill="#0CE6F2" />
<rect x="98" y="43" width="1" height="3" fill="#0098DB" />
<rect x="102" y="44" width="6" height="2" fill="#0098DB" />
<rect x="112" y="44" width="6" height="2" fill="#0098DB" />
<rect x="120" y="44" width="6" height="2" fill="#0098DB" />
<rect x="128" y="44" width="2" height="2" fill="#0098DB" />
<rect x="132" y="44" width="2" height="2" fill="#0098DB" />
<rect x="136" y="44" width="2" height="2" fill="#0098DB" />
<rect x="140" y="44" width="2" height="2" fill="#0098DB" />
<rect x="0" y="45" width="1" height="2" fill="#252446" />
<rect x="1" y="45" width="46" height="1" fill="#203562" />
<rect x="47" y="45" width="1" height="2" fill="#252446" />
<rect x="48" y="45" width="1" height="2" fill="#203562" />
<rect x="49" y="45" width="46" height="1" fill="#1E579C" />
<rect x="95" y="45" width="1" height="2" fill="#203562" />
<rect x="1" y="46" width="46" height="2" fill="#252446" />
<rect x="49" y="46" width="46" height="2" fill="#203562" />
<rect x="96" y="46" width="1" height="1" fill="#252446" />
<rect x="97" y="46" width="46" height="1" fill="#203562" />
<rect x="143" y="46" width="1" height="1" fill="#252446" />
<rect x="97" y="47" width="46" height="1" fill="#252446" />
</svg>