<?xml version="1.0" encoding="UTF-8" ?>
<svg version="1.1" width="48" height="32" xmlns="http://www.w3.org/2000/svg" shape-rendering="crispEdges">
<rect x="0" y="0" width="48" height="4" fill="#201533" />
<rect x="0" y="4" width="8" height="1" fill="#252446" />
<rect x="8" y="4" width="2" height="2" fill="#201533" />
<rect x="10" y="4" width="4" height="1" fill="#252446" />
<rect x="14" y="4" width="2" height="2" fill="#201533" />
<rect x="16" y="4" width="8" height="1" fill="#252446" />
<rect x="24" y="4" width="2" height="2" fill="#201533" />
<rect x="26" y="4" width="4" height="1" fill="#252446" />
<rect x="30" y="4" width="2" height="2" fill="#201533" />
<rect x="32" y="4" width="16" height="1" fill="#252446" />
<rect x="0" y="5" width="1" height="11" fill="#252446" />
<rect x="1" y="5" width="2" height="8" fill="#FFFFFF" />
<rect x="3" y="5" width="2" height="3" fill="#252446" />
<rect x="5" y="5" width="2" height="8" fill="#FFFFFF" />
<rect x="7" y="5" width="1" height="11" fill="#252446" />
<rect x="10" y="5" width="1" height="2" fill="#252446" />
<rect x="11" y="5" width="2" height="2" fill="#FFFFFF" />
<rect x="13" y="5" width="1" height="2" fill="#252446" />
<rect x="16" y="5" width="1" height="11" fill="#252446" />
<rect x="17" y="5" width="2" height="4" fill="#FFFFFF" />
<rect x="19" y="5" width="2" height="4" fill="#252446" />
<rect x="21" y="5" width="2" height="6" fill="#FFFFFF" />
<rect x="23" y="5" width="1" height="9" fill="#252446" />
<rect x="26" y="5" width="1" height="2" fill="#252446" />
<rect x="27" y="5" width="2" height="2" fill="#FFFFFF" />
<rect x="29" y="5" width="1" height="2" fill="#252446" />
<rect x="32" y="5" width="1" height="5" fill="#252446" />
<rect x="33" y="5" width="6" height="2" fill="#FFFFFF" />
<rect x="39" y="5" width="2" height="5" fill="#252446" />
<rect x="41" y="5" width="6" height="2" fill="#FFFFFF" />
<rect x="47" y="5" width="1" height="11" fill="#252446" />
<rect x="8" y="6" width="2" height="1" fill="#252446" />
<rect x="14" y="6" width="2" height="1" fill="#252446" />
<rect x="24" y="6" width="2" height="1" fill="#252446" />
<rect x="30" y="6" width="2" height="1" fill="#252446" />
<rect x="8" y="7" width="1" height="9" fill="#252446" />
<rect x="9" y="7" width="2" height="6" fill="#FFFFFF" />
<rect x="11" y="7" width="2" height="2" fill="#0098DB" />
<rect x="13" y="7" width="2" height="6" fill="#FFFFFF" />
<rect x="15" y="7" width="1" height="9" fill="#252446" />
<rect x="24" y="7" width="1" height="9" fill="#252446" />
<rect x="25" y="7" width="2" height="6" fill="#FFFFFF" />
<rect x="27" y="7" width="2" height="2" fill="#0098DB" />
<rect x="29" y="7" width="2" height="6" fill="#FFFFFF" />
<rect x="31" y="7" width="1" height="9" fill="#252446" />
<rect x="33" y="7" width="2" height="2" fill="#0098DB" />
<rect x="35" y="7" width="2" height="6" fill="#FFFFFF" />
<rect x="37" y="7" width="2" height="2" fill="#0098DB" />
<rect x="41" y="7" width="2" height="6" fill="#FFFFFF" />
<rect x="43" y="7" width="2" height="2" fill="#0098DB" />
<rect x="45" y="7" width="2" height="6" fill="#FFFFFF" />
<rect x="3" y="8" width="2" height="2" fill="#FFFFFF" />
<rect x="11" y="9" width="2" height="2" fill="#FFFFFF" />
<rect x="17" y="9" width="2" height="2" fill="#0098DB" />
<rect x="19" y="9" width="2" height="4" fill="#FFFFFF" />
<rect x="27" y="9" width="2" height="2" fill="#FFFFFF" />
<rect x="33" y="9" width="2" height="1" fill="#252446" />
<rect x="37" y="9" width="2" height="1" fill="#252446" />
<rect x="43" y="9" width="2" height="2" fill="#252446" />
<rect x="3" y="10" width="2" height="2" fill="#0098DB" />
<rect x="32" y="10" width="2" height="13" fill="#201533" />
<rect x="34" y="10" width="1" height="6" fill="#252446" />
<rect x="37" y="10" width="1" height="6" fill="#252446" />
<rect x="38" y="10" width="2" height="13" fill="#201533" />
<rect x="40" y="10" width="1" height="6" fill="#252446" />
<rect x="11" y="11" width="2" height="2" fill="#0098DB" />
<rect x="17" y="11" width="2" height="2" fill="#FFFFFF" />
<rect x="21" y="11" width="2" height="2" fill="#0098DB" />
<rect x="27" y="11" width="2" height="2" fill="#0098DB" />
<rect x="43" y="11" width="2" height="2" fill="#FFFFFF" />
<rect x="3" y="12" width="2" height="4" fill="#252446" />
<rect x="1" y="13" width="2" height="2" fill="#0098DB" />
<rect x="5" y="13" width="2" height="2" fill="#0098DB" />
<rect x="9" y="13" width="2" height="2" fill="#0098DB" />
<rect x="11" y="13" width="2" height="3" fill="#252446" />
<rect x="13" y="13" width="2" height="2" fill="#0098DB" />
<rect x="17" y="13" width="4" height="2" fill="#0098DB" />
<rect x="21" y="13" width="2" height="1" fill="#252446" />
<rect x="25" y="13" width="2" height="2" fill="#0098DB" />
<rect x="27" y="13" width="2" height="3" fill="#252446" />
<rect x="29" y="13" width="2" height="2" fill="#0098DB" />
<rect x="35" y="13" width="2" height="2" fill="#0098DB" />
<rect x="41" y="13" width="6" height="2" fill="#0098DB" />
<rect x="21" y="14" width="1" height="2" fill="#252446" />
<rect x="22" y="14" width="2" height="3" fill="#201533" />
<rect x="1" y="15" width="2" height="1" fill="#252446" />
<rect x="5" y="15" width="2" height="1" fill="#252446" />
<rect x="9" y="15" width="2" height="1" fill="#252446" />
<rect x="13" y="15" width="2" height="1" fill="#252446" />
<rect x="17" y="15" width="4" height="1" fill="#252446" />
<rect x="25" y="15" width="2" height="1" fill="#252446" />
<rect x="29" y="15" width="2" height="1" fill="#252446" />
<rect x="35" y="15" width="2" height="1" fill="#252446" />
<rect x="41" y="15" width="6" height="1" fill="#252446" />
<rect x="0" y="16" width="22" height="1" fill="#201533" />
<rect x="24" y="16" width="8" height="1" fill="#201533" />
<rect x="34" y="16" width="4" height="7" fill="#201533" />
<rect x="40" y="16" width="8" height="7" fill="#201533" />
<rect x="0" y="17" width="29" height="1" fill="#203562" />
<rect x="29" y="17" width="3" height="6" fill="#201533" />
<rect x="0" y="18" width="1" height="5" fill="#203562" />
<rect x="1" y="18" width="3" height="1" fill="#FFFFFF" />
<rect x="4" y="18" width="1" height="5" fill="#203562" />
<rect x="5" y="18" width="2" height="1" fill="#FFFFFF" />
<rect x="7" y="18" width="3" height="1" fill="#203562" />
<rect x="10" y="18" width="1" height="1" fill="#FFFFFF" />
<rect x="11" y="18" width="2" height="1" fill="#203562" />
<rect x="13" y="18" width="1" height="4" fill="#FFFFFF" />
<rect x="14" y="18" width="1" height="5" fill="#203562" />
<rect x="15" y="18" width="2" height="1" fill="#FFFFFF" />
<rect x="17" y="18" width="2" height="1" fill="#203562" />
<rect x="19" y="18" width="1" height="4" fill="#FFFFFF" />
<rect x="20" y="18" width="1" height="5" fill="#203562" />
<rect x="21" y="18" width="2" height="1" fill="#FFFFFF" />
<rect x="23" y="18" width="2" height="1" fill="#203562" />
<rect x="25" y="18" width="3" height="1" fill="#FFFFFF" />
<rect x="28" y="18" width="1" height="6" fill="#203562" />
<rect x="1" y="19" width="1" height="4" fill="#203562" />
<rect x="2" y="19" width="1" height="3" fill="#FFFFFF" />
<rect x="3" y="19" width="1" height="4" fill="#203562" />
<rect x="5" y="19" width="1" height="3" fill="#FFFFFF" />
<rect x="6" y="19" width="1" height="1" fill="#203562" />
<rect x="7" y="19" width="1" height="1" fill="#FFFFFF" />
<rect x="8" y="19" width="1" height="4" fill="#203562" />
<rect x="9" y="19" width="1" height="3" fill="#FFFFFF" />
<rect x="10" y="19" width="1" height="1" fill="#203562" />
<rect x="11" y="19" width="1" height="3" fill="#FFFFFF" />
<rect x="12" y="19" width="1" height="4" fill="#203562" />
<rect x="15" y="19" width="1" height="3" fill="#FFFFFF" />
<rect x="16" y="19" width="1" height="4" fill="#203562" />
<rect x="17" y="19" width="1" height="3" fill="#FFFFFF" />
<rect x="18" y="19" width="1" height="4" fill="#203562" />
<rect x="21" y="19" width="1" height="3" fill="#FFFFFF" />
<rect x="22" y="19" width="1" height="4" fill="#203562" />
<rect x="23" y="19" width="1" height="3" fill="#FFFFFF" />
<rect x="24" y="19" width="1" height="5" fill="#203562" />
<rect x="25" y="19" width="1" height="3" fill="#FFFFFF" />
<rect x="26" y="19" width="2" height="1" fill="#203562" />
<rect x="6" y="20" width="1" height="1" fill="#FFFFFF" />
<rect x="7" y="20" width="1" height="1" fill="#203562" />
<rect x="10" y="20" width="1" height="1" fill="#FFFFFF" />
<rect x="26" y="20" width="1" height="1" fill="#203562" />
<rect x="27" y="20" width="1" height="2" fill="#FFFFFF" />
<rect x="6" y="21" width="1" height="2" fill="#203562" />
<rect x="7" y="21" width="1" height="1" fill="#FFFFFF" />
<rect x="10" y="21" width="1" height="2" fill="#203562" />
<rect x="26" y="21" width="1" height="1" fill="#FFFFFF" />
<rect x="2" y="22" width="1" height="1" fill="#203562" />
<rect x="5" y="22" width="1" height="1" fill="#203562" />
<rect x="7" y="22" width="1" height="1" fill="#203562" />
<rect x="9" y="22" width="1" height="1" fill="#203562" />
<rect x="11" y="22" width="1" height="1" fill="#203562" />
<rect x="13" y="22" width="1" height="1" fill="#203562" />
<rect x="15" y="22" width="1" height="1" fill="#203562" />
<rect x="17" y="22" width="1" height="1" fill="#203562" />
<rect x="19" y="22" width="1" height="1" fill="#203562" />
<rect x="21" y="22" width="1" height="1" fill="#203562" />
<rect x="23" y="22" width="1" height="7" fill="#203562" />
<rect x="25" y="22" width="3" height="2" fill="#203562" />
<rect x="0" y="23" width="23" height="9" fill="#201533" />
<rect x="29" y="23" width="19" height="1" fill="#203562" />
<rect x="24" y="24" width="3" height="1" fill="#FFFFFF" />
<rect x="27" y="24" width="1" height="5" fill="#203562" />
<rect x="28" y="24" width="2" height="1" fill="#FFFFFF" />
<rect x="30" y="24" width="2" height="1" fill="#203562" />
<rect x="32" y="24" width="3" height="1" fill="#FFFFFF" />
<rect x="35" y="24" width="1" height="5" fill="#203562" />
<rect x="36" y="24" width="1" height="4" fill="#FFFFFF" />
<rect x="37" y="24" width="1" height="3" fill="#203562" />
<rect x="38" y="24" width="1" height="4" fill="#FFFFFF" />
<rect x="39" y="24" width="1" height="5" fill="#203562" />
<rect x="40" y="24" width="2" height="1" fill="#FFFFFF" />
<rect x="42" y="24" width="2" height="1" fill="#203562" />
<rect x="44" y="24" width="2" height="1" fill="#FFFFFF" />
<rect x="46" y="24" width="2" height="1" fill="#203562" />
<rect x="24" y="25" width="1" height="3" fill="#FFFFFF" />
<rect x="25" y="25" width="2" height="1" fill="#203562" />
<rect x="28" y="25" width="1" height="3" fill="#FFFFFF" />
<rect x="29" y="25" width="1" height="1" fill="#203562" />
<rect x="30" y="25" width="1" height="1" fill="#FFFFFF" />
<rect x="31" y="25" width="1" height="4" fill="#203562" />
<rect x="32" y="25" width="1" height="3" fill="#FFFFFF" />
<rect x="33" y="25" width="1" height="2" fill="#203562" />
<rect x="34" y="25" width="1" height="3" fill="#FFFFFF" />
<rect x="40" y="25" width="1" height="3" fill="#FFFFFF" />
<rect x="41" y="25" width="1" height="4" fill="#203562" />
<rect x="42" y="25" width="1" height="3" fill="#FFFFFF" />
<rect x="43" y="25" width="1" height="4" fill="#203562" />
<rect x="44" y="25" width="1" height="3" fill="#FFFFFF" />
<rect x="45" y="25" width="1" height="2" fill="#203562" />
<rect x="46" y="25" width="1" height="2" fill="#FFFFFF" />
<rect x="47" y="25" width="1" height="4" fill="#203562" />
<rect x="25" y="26" width="1" height="1" fill="#203562" />
<rect x="26" y="26" width="1" height="2" fill="#FFFFFF" />
<rect x="29" y="26" width="1" height="1" fill="#FFFFFF" />
<rect x="30" y="26" width="1" height="1" fill="#203562" />
<rect x="25" y="27" width="1" height="1" fill="#FFFFFF" />
<rect x="29" y="27" width="1" height="2" fill="#203562" />
<rect x="30" y="27" width="1" height="1" fill="#FFFFFF" />
<rect x="33" y="27" width="1" height="1" fill="#FFFFFF" />
<rect x="37" y="27" width="1" height="1" fill="#FFFFFF" />
<rect x="45" y="27" width="1" height="1" fill="#FFFFFF" />
<rect x="46" y="27" width="1" height="2" fill="#203562" />
<rect x="24" y="28" width="3" height="1" fill="#203562" />
<rect x="28" y="28" width="1" height="1" fill="#203562" />
<rect x="30" y="28" width="1" height="1" fill="#203562" />
<rect x="32" y="28" width="3" height="1" fill="#203562" />
<rect x="36" y="28" width="3" height="1" fill="#203562" />
<rect x="40" y="28" width="1" height="1" fill="#203562" />
<rect x="42" y="28" width="1" height="1" fill="#203562" />
<rect x="44" y="28" width="2" height="1" fill="#203562" />
<rect x="23" y="29" width="25" height="3" fill="#201533" />
</svg>