<?xml version="1.0" encoding="UTF-8" ?>
<svg version="1.1" width="80" height="48" xmlns="http://www.w3.org/2000/svg" shape-rendering="crispEdges">
<rect x="9" y="1" width="1" height="2" fill="#FFFFFF" />
<rect x="26" y="1" width="1" height="2" fill="#FFFFFF" />
<rect x="8" y="2" width="1" height="2" fill="#FFFFFF" />
<rect x="10" y="2" width="1" height="9" fill="#FFFFFF" />
<rect x="25" y="2" width="1" height="2" fill="#FFFFFF" />
<rect x="27" y="2" width="1" height="7" fill="#FFFFFF" />
<rect x="42" y="2" width="1" height="2" fill="#FFFFFF" />
<rect x="74" y="2" width="1" height="1" fill="#0CE6F2" />
<rect x="7" y="3" width="1" height="4" fill="#FFFFFF" />
<rect x="9" y="3" width="1" height="1" fill="#0CE6F2" />
<rect x="11" y="3" width="1" height="7" fill="#FFFFFF" />
<rect x="24" y="3" width="1" height="4" fill="#FFFFFF" />
<rect x="26" y="3" width="1" height="1" fill="#0CE6F2" />
<rect x="41" y="3" width="1" height="2" fill="#FFFFFF" />
<rect x="43" y="3" width="1" height="3" fill="#FFFFFF" />
<rect x="59" y="3" width="1" height="3" fill="#FFFFFF" />
<rect x="73" y="3" width="1" height="2" fill="#0CE6F2" />
<rect x="74" y="3" width="1" height="1" fill="#0098DB" />
<rect x="75" y="3" width="1" height="5" fill="#FFFFFF" />
<rect x="6" y="4" width="1" height="8" fill="#FFFFFF" />
<rect x="8" y="4" width="1" height="1" fill="#0CE6F2" />
<rect x="9" y="4" width="1" height="8" fill="#FFFFFF" />
<rect x="12" y="4" width="1" height="5" fill="#FFFFFF" />
<rect x="23" y="4" width="1" height="4" fill="#FFFFFF" />
<rect x="25" y="4" width="1" height="1" fill="#0CE6F2" />
<rect x="26" y="4" width="1" height="6" fill="#FFFFFF" />
<rect x="40" y="4" width="1" height="5" fill="#FFFFFF" />
<rect x="42" y="4" width="1" height="1" fill="#0CE6F2" />
<rect x="58" y="4" width="1" height="3" fill="#FFFFFF" />
<rect x="60" y="4" width="1" height="1" fill="#FFFFFF" />
<rect x="72" y="4" width="1" height="2" fill="#0CE6F2" />
<rect x="74" y="4" width="1" height="5" fill="#FFFFFF" />
<rect x="76" y="4" width="1" height="3" fill="#FFFFFF" />
<rect x="5" y="5" width="1" height="9" fill="#FFFFFF" />
<rect x="8" y="5" width="1" height="2" fill="#FFFFFF" />
<rect x="13" y="5" width="1" height="3" fill="#FFFFFF" />
<rect x="22" y="5" width="1" height="6" fill="#FFFFFF" />
<rect x="25" y="5" width="1" height="6" fill="#FFFFFF" />
<rect x="28" y="5" width="1" height="3" fill="#FFFFFF" />
<rect x="39" y="5" width="1" height="5" fill="#FFFFFF" />
<rect x="41" y="5" width="1" height="1" fill="#0CE6F2" />
<rect x="42" y="5" width="1" height="2" fill="#FFFFFF" />
<rect x="44" y="5" width="1" height="1" fill="#FFFFFF" />
<rect x="57" y="5" width="1" height="3" fill="#FFFFFF" />
<rect x="71" y="5" width="1" height="2" fill="#0CE6F2" />
<rect x="73" y="5" width="1" height="5" fill="#FFFFFF" />
<rect x="77" y="5" width="1" height="1" fill="#FFFFFF" />
<rect x="4" y="6" width="1" height="7" fill="#FFFFFF" />
<rect x="14" y="6" width="1" height="1" fill="#FFFFFF" />
<rect x="21" y="6" width="1" height="6" fill="#FFFFFF" />
<rect x="29" y="6" width="1" height="1" fill="#FFFFFF" />
<rect x="38" y="6" width="1" height="5" fill="#FFFFFF" />
<rect x="41" y="6" width="1" height="2" fill="#FFFFFF" />
<rect x="43" y="6" width="2" height="1" fill="#0CE6F2" />
<rect x="56" y="6" width="1" height="3" fill="#FFFFFF" />
<rect x="70" y="6" width="1" height="2" fill="#0CE6F2" />
<rect x="72" y="6" width="1" height="5" fill="#FFFFFF" />
<rect x="3" y="7" width="1" height="5" fill="#FFFFFF" />
<rect x="7" y="7" width="2" height="2" fill="#0CE6F2" />
<rect x="20" y="7" width="1" height="7" fill="#FFFFFF" />
<rect x="24" y="7" width="1" height="1" fill="#0CE6F2" />
<rect x="37" y="7" width="1" height="5" fill="#FFFFFF" />
<rect x="42" y="7" width="2" height="1" fill="#0CE6F2" />
<rect x="55" y="7" width="1" height="3" fill="#FFFFFF" />
<rect x="69" y="7" width="1" height="2" fill="#0CE6F2" />
<rect x="71" y="7" width="1" height="5" fill="#FFFFFF" />
<rect x="2" y="8" width="1" height="3" fill="#FFFFFF" />
<rect x="19" y="8" width="1" height="3" fill="#FFFFFF" />
<rect x="23" y="8" width="1" height="1" fill="#0CE6F2" />
<rect x="24" y="8" width="1" height="4" fill="#FFFFFF" />
<rect x="36" y="8" width="1" height="5" fill="#FFFFFF" />
<rect x="41" y="8" width="2" height="1" fill="#0CE6F2" />
<rect x="54" y="8" width="1" height="3" fill="#FFFFFF" />
<rect x="68" y="8" width="1" height="2" fill="#0CE6F2" />
<rect x="70" y="8" width="1" height="2" fill="#FFFFFF" />
<rect x="1" y="9" width="1" height="1" fill="#FFFFFF" />
<rect x="7" y="9" width="2" height="2" fill="#FFFFFF" />
<rect x="18" y="9" width="1" height="1" fill="#FFFFFF" />
<rect x="23" y="9" width="1" height="4" fill="#FFFFFF" />
<rect x="35" y="9" width="1" height="4" fill="#FFFFFF" />
<rect x="40" y="9" width="2" height="1" fill="#0CE6F2" />
<rect x="53" y="9" width="1" height="3" fill="#FFFFFF" />
<rect x="67" y="9" width="1" height="2" fill="#0CE6F2" />
<rect x="69" y="9" width="1" height="2" fill="#FFFFFF" />
<rect x="34" y="10" width="1" height="1" fill="#FFFFFF" />
<rect x="39" y="10" width="2" height="1" fill="#0CE6F2" />
<rect x="52" y="10" width="1" height="3" fill="#FFFFFF" />
<rect x="68" y="10" width="1" height="3" fill="#FFFFFF" />
<rect x="70" y="10" width="1" height="1" fill="#0CE6F2" />
<rect x="7" y="11" width="1" height="1" fill="#0CE6F2" />
<rect x="8" y="11" width="1" height="2" fill="#FFFFFF" />
<rect x="22" y="11" width="1" height="1" fill="#0CE6F2" />
<rect x="38" y="11" width="2" height="1" fill="#0CE6F2" />
<rect x="51" y="11" width="1" height="1" fill="#FFFFFF" />
<rect x="69" y="11" width="1" height="1" fill="#0CE6F2" />
<rect x="70" y="11" width="1" height="2" fill="#FFFFFF" />
<rect x="6" y="12" width="1" height="1" fill="#0CE6F2" />
<rect x="7" y="12" width="1" height="2" fill="#FFFFFF" />
<rect x="21" y="12" width="1" height="1" fill="#0CE6F2" />
<rect x="22" y="12" width="1" height="2" fill="#FFFFFF" />
<rect x="37" y="12" width="1" height="1" fill="#0098DB" />
<rect x="38" y="12" width="1" height="1" fill="#0CE6F2" />
<rect x="69" y="12" width="1" height="2" fill="#FFFFFF" />
<rect x="6" y="13" width="1" height="2" fill="#FFFFFF" />
<rect x="21" y="13" width="1" height="2" fill="#FFFFFF" />
<rect x="36" y="13" width="2" height="1" fill="#0CE6F2" />
<rect x="36" y="14" width="1" height="1" fill="#0CE6F2" />
<rect x="9" y="17" width="1" height="2" fill="#0CE6F2" />
<rect x="26" y="17" width="1" height="2" fill="#0CE6F2" />
<rect x="8" y="18" width="1" height="2" fill="#0CE6F2" />
<rect x="10" y="18" width="1" height="9" fill="#0CE6F2" />
<rect x="25" y="18" width="1" height="2" fill="#0CE6F2" />
<rect x="27" y="18" width="1" height="7" fill="#0CE6F2" />
<rect x="42" y="18" width="1" height="2" fill="#0CE6F2" />
<rect x="74" y="18" width="1" height="2" fill="#0098DB" />
<rect x="7" y="19" width="1" height="4" fill="#0CE6F2" />
<rect x="9" y="19" width="1" height="1" fill="#0098DB" />
<rect x="11" y="19" width="1" height="7" fill="#0CE6F2" />
<rect x="24" y="19" width="1" height="4" fill="#0CE6F2" />
<rect x="26" y="19" width="1" height="1" fill="#0098DB" />
<rect x="41" y="19" width="1" height="2" fill="#0CE6F2" />
<rect x="43" y="19" width="1" height="3" fill="#0CE6F2" />
<rect x="59" y="19" width="1" height="3" fill="#0CE6F2" />
<rect x="73" y="19" width="1" height="2" fill="#0098DB" />
<rect x="75" y="19" width="1" height="5" fill="#0CE6F2" />
<rect x="6" y="20" width="1" height="8" fill="#0CE6F2" />
<rect x="8" y="20" width="1" height="1" fill="#0098DB" />
<rect x="9" y="20" width="1" height="8" fill="#0CE6F2" />
<rect x="12" y="20" width="1" height="5" fill="#0CE6F2" />
<rect x="23" y="20" width="1" height="4" fill="#0CE6F2" />
<rect x="25" y="20" width="1" height="1" fill="#0098DB" />
<rect x="26" y="20" width="1" height="6" fill="#0CE6F2" />
<rect x="40" y="20" width="1" height="5" fill="#0CE6F2" />
<rect x="42" y="20" width="1" height="1" fill="#0098DB" />
<rect x="58" y="20" width="1" height="3" fill="#0CE6F2" />
<rect x="60" y="20" width="1" height="1" fill="#0CE6F2" />
<rect x="72" y="20" width="1" height="2" fill="#0098DB" />
<rect x="74" y="20" width="1" height="5" fill="#0CE6F2" />
<rect x="76" y="20" width="1" height="3" fill="#0CE6F2" />
<rect x="5" y="21" width="1" height="9" fill="#0CE6F2" />
<rect x="8" y="21" width="1" height="2" fill="#0CE6F2" />
<rect x="13" y="21" width="1" height="3" fill="#0CE6F2" />
<rect x="22" y="21" width="1" height="6" fill="#0CE6F2" />
<rect x="25" y="21" width="1" height="6" fill="#0CE6F2" />
<rect x="28" y="21" width="1" height="3" fill="#0CE6F2" />
<rect x="39" y="21" width="1" height="5" fill="#0CE6F2" />
<rect x="41" y="21" width="1" height="1" fill="#0098DB" />
<rect x="42" y="21" width="1" height="2" fill="#0CE6F2" />
<rect x="44" y="21" width="1" height="1" fill="#0CE6F2" />
<rect x="57" y="21" width="1" height="3" fill="#0CE6F2" />
<rect x="71" y="21" width="1" height="2" fill="#0098DB" />
<rect x="73" y="21" width="1" height="5" fill="#0CE6F2" />
<rect x="77" y="21" width="1" height="1" fill="#0CE6F2" />
<rect x="4" y="22" width="1" height="7" fill="#0CE6F2" />
<rect x="14" y="22" width="1" height="1" fill="#0CE6F2" />
<rect x="21" y="22" width="1" height="6" fill="#0CE6F2" />
<rect x="29" y="22" width="1" height="1" fill="#0CE6F2" />
<rect x="38" y="22" width="1" height="5" fill="#0CE6F2" />
<rect x="41" y="22" width="1" height="2" fill="#0CE6F2" />
<rect x="43" y="22" width="2" height="1" fill="#0098DB" />
<rect x="56" y="22" width="1" height="3" fill="#0CE6F2" />
<rect x="70" y="22" width="1" height="2" fill="#0098DB" />
<rect x="72" y="22" width="1" height="5" fill="#0CE6F2" />
<rect x="3" y="23" width="1" height="5" fill="#0CE6F2" />
<rect x="7" y="23" width="2" height="2" fill="#0098DB" />
<rect x="20" y="23" width="1" height="7" fill="#0CE6F2" />
<rect x="24" y="23" width="1" height="1" fill="#0098DB" />
<rect x="37" y="23" width="1" height="5" fill="#0CE6F2" />
<rect x="42" y="23" width="2" height="1" fill="#0098DB" />
<rect x="55" y="23" width="1" height="3" fill="#0CE6F2" />
<rect x="69" y="23" width="1" height="2" fill="#0098DB" />
<rect x="71" y="23" width="1" height="5" fill="#0CE6F2" />
<rect x="2" y="24" width="1" height="3" fill="#0CE6F2" />
<rect x="19" y="24" width="1" height="3" fill="#0CE6F2" />
<rect x="23" y="24" width="1" height="1" fill="#0098DB" />
<rect x="24" y="24" width="1" height="4" fill="#0CE6F2" />
<rect x="36" y="24" width="1" height="5" fill="#0CE6F2" />
<rect x="41" y="24" width="2" height="1" fill="#0098DB" />
<rect x="54" y="24" width="1" height="3" fill="#0CE6F2" />
<rect x="68" y="24" width="1" height="2" fill="#0098DB" />
<rect x="70" y="24" width="1" height="2" fill="#0CE6F2" />
<rect x="1" y="25" width="1" height="1" fill="#0CE6F2" />
<rect x="7" y="25" width="2" height="2" fill="#0CE6F2" />
<rect x="18" y="25" width="1" height="1" fill="#0CE6F2" />
<rect x="23" y="25" width="1" height="4" fill="#0CE6F2" />
<rect x="35" y="25" width="1" height="4" fill="#0CE6F2" />
<rect x="40" y="25" width="2" height="1" fill="#0098DB" />
<rect x="53" y="25" width="1" height="3" fill="#0CE6F2" />
<rect x="67" y="25" width="1" height="2" fill="#0098DB" />
<rect x="69" y="25" width="1" height="2" fill="#0CE6F2" />
<rect x="34" y="26" width="1" height="1" fill="#0CE6F2" />
<rect x="39" y="26" width="2" height="1" fill="#0098DB" />
<rect x="52" y="26" width="1" height="3" fill="#0CE6F2" />
<rect x="68" y="26" width="1" height="3" fill="#0CE6F2" />
<rect x="70" y="26" width="1" height="1" fill="#0098DB" />
<rect x="7" y="27" width="1" height="1" fill="#0098DB" />
<rect x="8" y="27" width="1" height="2" fill="#0CE6F2" />
<rect x="22" y="27" width="1" height="1" fill="#0098DB" />
<rect x="38" y="27" width="2" height="1" fill="#0098DB" />
<rect x="51" y="27" width="1" height="1" fill="#0CE6F2" />
<rect x="69" y="27" width="1" height="1" fill="#0098DB" />
<rect x="70" y="27" width="1" height="2" fill="#0CE6F2" />
<rect x="6" y="28" width="1" height="1" fill="#0098DB" />
<rect x="7" y="28" width="1" height="2" fill="#0CE6F2" />
<rect x="21" y="28" width="1" height="1" fill="#0098DB" />
<rect x="22" y="28" width="1" height="2" fill="#0CE6F2" />
<rect x="37" y="28" width="2" height="1" fill="#0098DB" />
<rect x="69" y="28" width="1" height="2" fill="#0CE6F2" />
<rect x="6" y="29" width="1" height="2" fill="#0CE6F2" />
<rect x="21" y="29" width="1" height="2" fill="#0CE6F2" />
<rect x="36" y="29" width="2" height="1" fill="#0098DB" />
<rect x="36" y="30" width="1" height="1" fill="#0098DB" />
<rect x="9" y="33" width="1" height="2" fill="#0098DB" />
<rect x="26" y="33" width="1" height="2" fill="#0098DB" />
<rect x="8" y="34" width="1" height="2" fill="#0098DB" />
<rect x="10" y="34" width="1" height="9" fill="#0098DB" />
<rect x="25" y="34" width="1" height="2" fill="#0098DB" />
<rect x="27" y="34" width="1" height="7" fill="#0098DB" />
<rect x="42" y="34" width="1" height="2" fill="#0098DB" />
<rect x="74" y="34" width="1" height="1" fill="#1E579C" />
<rect x="7" y="35" width="1" height="4" fill="#0098DB" />
<rect x="9" y="35" width="1" height="1" fill="#1E579C" />
<rect x="11" y="35" width="1" height="7" fill="#0098DB" />
<rect x="24" y="35" width="1" height="4" fill="#0098DB" />
<rect x="26" y="35" width="1" height="1" fill="#1E579C" />
<rect x="41" y="35" width="1" height="2" fill="#0098DB" />
<rect x="43" y="35" width="1" height="3" fill="#0098DB" />
<rect x="59" y="35" width="1" height="3" fill="#0098DB" />
<rect x="73" y="35" width="1" height="2" fill="#1E579C" />
<rect x="74" y="35" width="2" height="5" fill="#0098DB" />
<rect x="6" y="36" width="1" height="8" fill="#0098DB" />
<rect x="8" y="36" width="1" height="1" fill="#1E579C" />
<rect x="9" y="36" width="1" height="8" fill="#0098DB" />
<rect x="12" y="36" width="1" height="5" fill="#0098DB" />
<rect x="23" y="36" width="1" height="4" fill="#0098DB" />
<rect x="25" y="36" width="1" height="1" fill="#1E579C" />
<rect x="26" y="36" width="1" height="6" fill="#0098DB" />
<rect x="40" y="36" width="1" height="5" fill="#0098DB" />
<rect x="42" y="36" width="1" height="1" fill="#1E579C" />
<rect x="58" y="36" width="1" height="3" fill="#0098DB" />
<rect x="60" y="36" width="1" height="1" fill="#0098DB" />
<rect x="72" y="36" width="1" height="2" fill="#1E579C" />
<rect x="76" y="36" width="1" height="3" fill="#0098DB" />
<rect x="5" y="37" width="1" height="9" fill="#0098DB" />
<rect x="8" y="37" width="1" height="2" fill="#0098DB" />
<rect x="13" y="37" width="1" height="3" fill="#0098DB" />
<rect x="22" y="37" width="1" height="6" fill="#0098DB" />
<rect x="25" y="37" width="1" height="6" fill="#0098DB" />
<rect x="28" y="37" width="1" height="3" fill="#0098DB" />
<rect x="39" y="37" width="1" height="5" fill="#0098DB" />
<rect x="41" y="37" width="1" height="1" fill="#1E579C" />
<rect x="42" y="37" width="1" height="2" fill="#0098DB" />
<rect x="44" y="37" width="1" height="1" fill="#0098DB" />
<rect x="57" y="37" width="1" height="3" fill="#0098DB" />
<rect x="71" y="37" width="1" height="2" fill="#1E579C" />
<rect x="73" y="37" width="1" height="5" fill="#0098DB" />
<rect x="77" y="37" width="1" height="1" fill="#0098DB" />
<rect x="4" y="38" width="1" height="7" fill="#0098DB" />
<rect x="14" y="38" width="1" height="1" fill="#0098DB" />
<rect x="21" y="38" width="1" height="6" fill="#0098DB" />
<rect x="29" y="38" width="1" height="1" fill="#0098DB" />
<rect x="38" y="38" width="1" height="5" fill="#0098DB" />
<rect x="41" y="38" width="1" height="2" fill="#0098DB" />
<rect x="43" y="38" width="2" height="1" fill="#1E579C" />
<rect x="56" y="38" width="1" height="3" fill="#0098DB" />
<rect x="70" y="38" width="1" height="2" fill="#1E579C" />
<rect x="72" y="38" width="1" height="5" fill="#0098DB" />
<rect x="3" y="39" width="1" height="5" fill="#0098DB" />
<rect x="7" y="39" width="2" height="2" fill="#1E579C" />
<rect x="20" y="39" width="1" height="7" fill="#0098DB" />
<rect x="24" y="39" width="1" height="1" fill="#1E579C" />
<rect x="37" y="39" width="1" height="6" fill="#0098DB" />
<rect x="42" y="39" width="2" height="1" fill="#1E579C" />
<rect x="55" y="39" width="1" height="3" fill="#0098DB" />
<rect x="69" y="39" width="1" height="2" fill="#1E579C" />
<rect x="71" y="39" width="1" height="5" fill="#0098DB" />
<rect x="2" y="40" width="1" height="3" fill="#0098DB" />
<rect x="19" y="40" width="1" height="3" fill="#0098DB" />
<rect x="23" y="40" width="1" height="1" fill="#1E579C" />
<rect x="24" y="40" width="1" height="4" fill="#0098DB" />
<rect x="36" y="40" width="1" height="5" fill="#0098DB" />
<rect x="41" y="40" width="2" height="1" fill="#1E579C" />
<rect x="54" y="40" width="1" height="3" fill="#0098DB" />
<rect x="68" y="40" width="1" height="2" fill="#1E579C" />
<rect x="70" y="40" width="1" height="2" fill="#0098DB" />
<rect x="74" y="40" width="1" height="1" fill="#0098DB" />
<rect x="1" y="41" width="1" height="1" fill="#0098DB" />
<rect x="7" y="41" width="2" height="2" fill="#0098DB" />
<rect x="18" y="41" width="1" height="1" fill="#0098DB" />
<rect x="23" y="41" width="1" height="4" fill="#0098DB" />
<rect x="35" y="41" width="1" height="4" fill="#0098DB" />
<rect x="40" y="41" width="2" height="1" fill="#1E579C" />
<rect x="53" y="41" width="1" height="3" fill="#0098DB" />
<rect x="67" y="41" width="1" height="2" fill="#1E579C" />
<rect x="69" y="41" width="1" height="2" fill="#0098DB" />
<rect x="34" y="42" width="1" height="1" fill="#0098DB" />
<rect x="39" y="42" width="2" height="1" fill="#1E579C" />
<rect x="52" y="42" width="1" height="3" fill="#0098DB" />
<rect x="68" y="42" width="1" height="3" fill="#0098DB" />
<rect x="70" y="42" width="1" height="1" fill="#1E579C" />
<rect x="7" y="43" width="1" height="1" fill="#1E579C" />
<rect x="8" y="43" width="1" height="2" fill="#0098DB" />
<rect x="22" y="43" width="1" height="1" fill="#1E579C" />
<rect x="38" y="43" width="2" height="1" fill="#1E579C" />
<rect x="51" y="43" width="1" height="1" fill="#0098DB" />
<rect x="69" y="43" width="1" height="1" fill="#1E579C" />
<rect x="70" y="43" width="1" height="2" fill="#0098DB" />
<rect x="6" y="44" width="1" height="1" fill="#1E579C" />
<rect x="7" y="44" width="1" height="2" fill="#0098DB" />
<rect x="21" y="44" width="1" height="1" fill="#1E579C" />
<rect x="22" y="44" width="1" height="2" fill="#0098DB" />
<rect x="38" y="44" width="1" height="1" fill="#1E579C" />
<rect x="69" y="44" width="1" height="2" fill="#0098DB" />
<rect x="6" y="45" width="1" height="2" fill="#0098DB" />
<rect x="21" y="45" width="1" height="2" fill="#0098DB" />
<rect x="36" y="45" width="2" height="1" fill="#1E579C" />
<rect x="36" y="46" width="1" height="1" fill="#1E579C" />
</svg>