<?xml version="1.0" encoding="UTF-8" ?>
<svg version="1.1" width="96" height="16" xmlns="http://www.w3.org/2000/svg" shape-rendering="crispEdges">
<rect x="44" y="0" width="1" height="2" fill="#FFFFFF" />
<rect x="28" y="1" width="1" height="2" fill="#FFFFFF" />
<rect x="40" y="1" width="3" height="1" fill="#0098DB" />
<rect x="45" y="1" width="1" height="1" fill="#FFFFFF" />
<rect x="60" y="1" width="1" height="2" fill="#FFFFFF" />
<rect x="12" y="2" width="1" height="2" fill="#FFFFFF" />
<rect x="24" y="2" width="3" height="1" fill="#0098DB" />
<rect x="29" y="2" width="1" height="1" fill="#FFFFFF" />
<rect x="38" y="2" width="3" height="1" fill="#0098DB" />
<rect x="41" y="2" width="2" height="1" fill="#0CE6F2" />
<rect x="43" y="2" width="1" height="1" fill="#0098DB" />
<rect x="44" y="2" width="2" height="1" fill="#1E579C" />
<rect x="56" y="2" width="3" height="1" fill="#0098DB" />
<rect x="61" y="2" width="1" height="1" fill="#FFFFFF" />
<rect x="76" y="2" width="1" height="2" fill="#FFFFFF" />
<rect x="8" y="3" width="3" height="1" fill="#0098DB" />
<rect x="13" y="3" width="1" height="1" fill="#FFFFFF" />
<rect x="22" y="3" width="3" height="1" fill="#0098DB" />
<rect x="25" y="3" width="2" height="1" fill="#0CE6F2" />
<rect x="27" y="3" width="1" height="1" fill="#0098DB" />
<rect x="28" y="3" width="2" height="1" fill="#1E579C" />
<rect x="37" y="3" width="1" height="2" fill="#0098DB" />
<rect x="38" y="3" width="2" height="1" fill="#0CE6F2" />
<rect x="40" y="3" width="3" height="1" fill="#0098DB" />
<rect x="43" y="3" width="1" height="1" fill="#0CE6F2" />
<rect x="44" y="3" width="1" height="2" fill="#0098DB" />
<rect x="54" y="3" width="3" height="1" fill="#0098DB" />
<rect x="57" y="3" width="2" height="1" fill="#0CE6F2" />
<rect x="59" y="3" width="1" height="1" fill="#0098DB" />
<rect x="60" y="3" width="2" height="1" fill="#1E579C" />
<rect x="72" y="3" width="3" height="1" fill="#0098DB" />
<rect x="77" y="3" width="1" height="1" fill="#FFFFFF" />
<rect x="92" y="3" width="1" height="2" fill="#FFFFFF" />
<rect x="6" y="4" width="3" height="1" fill="#0098DB" />
<rect x="9" y="4" width="2" height="1" fill="#0CE6F2" />
<rect x="11" y="4" width="1" height="1" fill="#0098DB" />
<rect x="12" y="4" width="2" height="1" fill="#1E579C" />
<rect x="21" y="4" width="1" height="2" fill="#0098DB" />
<rect x="22" y="4" width="2" height="1" fill="#0CE6F2" />
<rect x="24" y="4" width="3" height="1" fill="#0098DB" />
<rect x="27" y="4" width="1" height="1" fill="#0CE6F2" />
<rect x="28" y="4" width="1" height="2" fill="#0098DB" />
<rect x="36" y="4" width="1" height="1" fill="#0098DB" />
<rect x="38" y="4" width="3" height="1" fill="#0098DB" />
<rect x="41" y="4" width="1" height="1" fill="#0CE6F2" />
<rect x="42" y="4" width="2" height="1" fill="#0098DB" />
<rect x="53" y="4" width="1" height="2" fill="#0098DB" />
<rect x="54" y="4" width="2" height="1" fill="#0CE6F2" />
<rect x="56" y="4" width="3" height="1" fill="#0098DB" />
<rect x="59" y="4" width="1" height="1" fill="#0CE6F2" />
<rect x="60" y="4" width="1" height="2" fill="#0098DB" />
<rect x="70" y="4" width="3" height="1" fill="#0098DB" />
<rect x="73" y="4" width="2" height="1" fill="#0CE6F2" />
<rect x="75" y="4" width="1" height="1" fill="#0098DB" />
<rect x="76" y="4" width="2" height="1" fill="#1E579C" />
<rect x="88" y="4" width="3" height="1" fill="#0098DB" />
<rect x="93" y="4" width="1" height="1" fill="#FFFFFF" />
<rect x="5" y="5" width="1" height="2" fill="#0098DB" />
<rect x="6" y="5" width="2" height="1" fill="#0CE6F2" />
<rect x="8" y="5" width="3" height="1" fill="#0098DB" />
<rect x="11" y="5" width="1" height="1" fill="#0CE6F2" />
<rect x="12" y="5" width="1" height="2" fill="#0098DB" />
<rect x="20" y="5" width="1" height="1" fill="#0098DB" />
<rect x="22" y="5" width="3" height="1" fill="#0098DB" />
<rect x="25" y="5" width="1" height="1" fill="#0CE6F2" />
<rect x="26" y="5" width="2" height="1" fill="#0098DB" />
<rect x="35" y="5" width="1" height="1" fill="#0098DB" />
<rect x="36" y="5" width="3" height="1" fill="#1E579C" />
<rect x="39" y="5" width="1" height="1" fill="#0CE6F2" />
<rect x="40" y="5" width="2" height="2" fill="#0098DB" />
<rect x="42" y="5" width="1" height="1" fill="#0CE6F2" />
<rect x="43" y="5" width="1" height="2" fill="#0098DB" />
<rect x="44" y="5" width="1" height="1" fill="#1E579C" />
<rect x="52" y="5" width="1" height="1" fill="#0098DB" />
<rect x="54" y="5" width="3" height="1" fill="#0098DB" />
<rect x="57" y="5" width="1" height="1" fill="#0CE6F2" />
<rect x="58" y="5" width="2" height="1" fill="#0098DB" />
<rect x="69" y="5" width="1" height="2" fill="#0098DB" />
<rect x="70" y="5" width="2" height="1" fill="#0CE6F2" />
<rect x="72" y="5" width="3" height="1" fill="#0098DB" />
<rect x="75" y="5" width="1" height="1" fill="#0CE6F2" />
<rect x="76" y="5" width="1" height="2" fill="#0098DB" />
<rect x="86" y="5" width="3" height="1" fill="#0098DB" />
<rect x="89" y="5" width="2" height="1" fill="#0CE6F2" />
<rect x="91" y="5" width="1" height="1" fill="#0098DB" />
<rect x="92" y="5" width="2" height="1" fill="#1E579C" />
<rect x="4" y="6" width="1" height="1" fill="#0098DB" />
<rect x="6" y="6" width="3" height="1" fill="#0098DB" />
<rect x="9" y="6" width="1" height="1" fill="#0CE6F2" />
<rect x="10" y="6" width="2" height="1" fill="#0098DB" />
<rect x="19" y="6" width="1" height="1" fill="#0098DB" />
<rect x="20" y="6" width="3" height="1" fill="#1E579C" />
<rect x="23" y="6" width="1" height="1" fill="#0CE6F2" />
<rect x="24" y="6" width="2" height="2" fill="#0098DB" />
<rect x="26" y="6" width="1" height="1" fill="#0CE6F2" />
<rect x="27" y="6" width="1" height="2" fill="#0098DB" />
<rect x="28" y="6" width="1" height="1" fill="#1E579C" />
<rect x="35" y="6" width="1" height="2" fill="#1E579C" />
<rect x="36" y="6" width="2" height="2" fill="#203562" />
<rect x="38" y="6" width="2" height="1" fill="#1E579C" />
<rect x="42" y="6" width="1" height="2" fill="#0098DB" />
<rect x="51" y="6" width="1" height="1" fill="#0098DB" />
<rect x="52" y="6" width="3" height="1" fill="#1E579C" />
<rect x="55" y="6" width="1" height="1" fill="#0CE6F2" />
<rect x="56" y="6" width="2" height="2" fill="#0098DB" />
<rect x="58" y="6" width="1" height="1" fill="#0CE6F2" />
<rect x="59" y="6" width="1" height="2" fill="#0098DB" />
<rect x="60" y="6" width="1" height="1" fill="#1E579C" />
<rect x="68" y="6" width="1" height="1" fill="#0098DB" />
<rect x="70" y="6" width="3" height="1" fill="#0098DB" />
<rect x="73" y="6" width="1" height="1" fill="#0CE6F2" />
<rect x="74" y="6" width="2" height="1" fill="#0098DB" />
<rect x="85" y="6" width="1" height="2" fill="#0098DB" />
<rect x="86" y="6" width="2" height="1" fill="#0CE6F2" />
<rect x="88" y="6" width="3" height="1" fill="#0098DB" />
<rect x="91" y="6" width="1" height="1" fill="#0CE6F2" />
<rect x="92" y="6" width="1" height="2" fill="#0098DB" />
<rect x="3" y="7" width="1" height="1" fill="#0098DB" />
<rect x="4" y="7" width="3" height="1" fill="#1E579C" />
<rect x="7" y="7" width="1" height="1" fill="#0CE6F2" />
<rect x="8" y="7" width="2" height="2" fill="#0098DB" />
<rect x="10" y="7" width="1" height="1" fill="#0CE6F2" />
<rect x="11" y="7" width="1" height="2" fill="#0098DB" />
<rect x="12" y="7" width="1" height="1" fill="#1E579C" />
<rect x="19" y="7" width="1" height="2" fill="#1E579C" />
<rect x="20" y="7" width="2" height="2" fill="#203562" />
<rect x="22" y="7" width="2" height="1" fill="#1E579C" />
<rect x="26" y="7" width="1" height="2" fill="#0098DB" />
<rect x="38" y="7" width="1" height="2" fill="#203562" />
<rect x="39" y="7" width="2" height="1" fill="#1E579C" />
<rect x="41" y="7" width="1" height="1" fill="#0CE6F2" />
<rect x="43" y="7" width="1" height="1" fill="#1E579C" />
<rect x="51" y="7" width="1" height="2" fill="#1E579C" />
<rect x="52" y="7" width="2" height="2" fill="#203562" />
<rect x="54" y="7" width="2" height="1" fill="#1E579C" />
<rect x="58" y="7" width="1" height="2" fill="#0098DB" />
<rect x="67" y="7" width="1" height="1" fill="#0098DB" />
<rect x="68" y="7" width="3" height="1" fill="#1E579C" />
<rect x="71" y="7" width="1" height="1" fill="#0CE6F2" />
<rect x="72" y="7" width="2" height="2" fill="#0098DB" />
<rect x="74" y="7" width="1" height="1" fill="#0CE6F2" />
<rect x="75" y="7" width="1" height="2" fill="#0098DB" />
<rect x="76" y="7" width="1" height="1" fill="#1E579C" />
<rect x="84" y="7" width="1" height="1" fill="#0098DB" />
<rect x="86" y="7" width="3" height="1" fill="#0098DB" />
<rect x="89" y="7" width="1" height="1" fill="#0CE6F2" />
<rect x="90" y="7" width="2" height="1" fill="#0098DB" />
<rect x="3" y="8" width="1" height="2" fill="#1E579C" />
<rect x="4" y="8" width="2" height="2" fill="#203562" />
<rect x="6" y="8" width="2" height="1" fill="#1E579C" />
<rect x="10" y="8" width="1" height="2" fill="#0098DB" />
<rect x="22" y="8" width="1" height="2" fill="#203562" />
<rect x="23" y="8" width="2" height="1" fill="#1E579C" />
<rect x="25" y="8" width="1" height="1" fill="#0CE6F2" />
<rect x="27" y="8" width="1" height="1" fill="#1E579C" />
<rect x="36" y="8" width="2" height="1" fill="#FFFFFF" />
<rect x="39" y="8" width="1" height="1" fill="#203562" />
<rect x="40" y="8" width="1" height="2" fill="#1E579C" />
<rect x="41" y="8" width="1" height="2" fill="#0098DB" />
<rect x="42" y="8" width="1" height="1" fill="#1E579C" />
<rect x="54" y="8" width="1" height="2" fill="#203562" />
<rect x="55" y="8" width="2" height="1" fill="#1E579C" />
<rect x="57" y="8" width="1" height="1" fill="#0CE6F2" />
<rect x="59" y="8" width="1" height="1" fill="#1E579C" />
<rect x="67" y="8" width="1" height="2" fill="#1E579C" />
<rect x="68" y="8" width="2" height="2" fill="#203562" />
<rect x="70" y="8" width="2" height="1" fill="#1E579C" />
<rect x="74" y="8" width="1" height="2" fill="#0098DB" />
<rect x="83" y="8" width="1" height="1" fill="#0098DB" />
<rect x="84" y="8" width="3" height="1" fill="#1E579C" />
<rect x="87" y="8" width="1" height="1" fill="#0CE6F2" />
<rect x="88" y="8" width="2" height="2" fill="#0098DB" />
<rect x="90" y="8" width="1" height="1" fill="#0CE6F2" />
<rect x="91" y="8" width="1" height="2" fill="#0098DB" />
<rect x="92" y="8" width="1" height="1" fill="#1E579C" />
<rect x="6" y="9" width="1" height="2" fill="#203562" />
<rect x="7" y="9" width="2" height="1" fill="#1E579C" />
<rect x="9" y="9" width="1" height="1" fill="#0CE6F2" />
<rect x="11" y="9" width="1" height="1" fill="#1E579C" />
<rect x="20" y="9" width="2" height="1" fill="#FFFFFF" />
<rect x="23" y="9" width="1" height="1" fill="#203562" />
<rect x="24" y="9" width="1" height="2" fill="#1E579C" />
<rect x="25" y="9" width="1" height="2" fill="#0098DB" />
<rect x="26" y="9" width="1" height="1" fill="#1E579C" />
<rect x="33" y="9" width="4" height="1" fill="#FFFFFF" />
<rect x="37" y="9" width="1" height="1" fill="#0CE6F2" />
<rect x="38" y="9" width="2" height="1" fill="#252446" />
<rect x="52" y="9" width="2" height="1" fill="#FFFFFF" />
<rect x="55" y="9" width="1" height="1" fill="#203562" />
<rect x="56" y="9" width="1" height="2" fill="#1E579C" />
<rect x="57" y="9" width="1" height="2" fill="#0098DB" />
<rect x="58" y="9" width="1" height="1" fill="#1E579C" />
<rect x="70" y="9" width="1" height="2" fill="#203562" />
<rect x="71" y="9" width="2" height="1" fill="#1E579C" />
<rect x="73" y="9" width="1" height="1" fill="#0CE6F2" />
<rect x="75" y="9" width="1" height="1" fill="#1E579C" />
<rect x="83" y="9" width="1" height="2" fill="#1E579C" />
<rect x="84" y="9" width="2" height="2" fill="#203562" />
<rect x="86" y="9" width="2" height="1" fill="#1E579C" />
<rect x="90" y="9" width="1" height="2" fill="#0098DB" />
<rect x="4" y="10" width="2" height="1" fill="#FFFFFF" />
<rect x="7" y="10" width="1" height="1" fill="#203562" />
<rect x="8" y="10" width="1" height="2" fill="#1E579C" />
<rect x="9" y="10" width="1" height="2" fill="#0098DB" />
<rect x="10" y="10" width="1" height="1" fill="#1E579C" />
<rect x="17" y="10" width="4" height="1" fill="#FFFFFF" />
<rect x="21" y="10" width="1" height="1" fill="#0CE6F2" />
<rect x="22" y="10" width="2" height="1" fill="#252446" />
<rect x="33" y="10" width="2" height="1" fill="#0CE6F2" />
<rect x="35" y="10" width="2" height="2" fill="#FFFFFF" />
<rect x="37" y="10" width="1" height="1" fill="#203562" />
<rect x="38" y="10" width="1" height="1" fill="#252446" />
<rect x="39" y="10" width="2" height="1" fill="#203562" />
<rect x="49" y="10" width="4" height="1" fill="#FFFFFF" />
<rect x="53" y="10" width="1" height="1" fill="#0CE6F2" />
<rect x="54" y="10" width="2" height="1" fill="#252446" />
<rect x="68" y="10" width="2" height="1" fill="#FFFFFF" />
<rect x="71" y="10" width="1" height="1" fill="#203562" />
<rect x="72" y="10" width="1" height="2" fill="#1E579C" />
<rect x="73" y="10" width="1" height="2" fill="#0098DB" />
<rect x="74" y="10" width="1" height="1" fill="#1E579C" />
<rect x="86" y="10" width="1" height="2" fill="#203562" />
<rect x="87" y="10" width="2" height="1" fill="#1E579C" />
<rect x="89" y="10" width="1" height="1" fill="#0CE6F2" />
<rect x="91" y="10" width="1" height="1" fill="#1E579C" />
<rect x="1" y="11" width="4" height="1" fill="#FFFFFF" />
<rect x="5" y="11" width="1" height="1" fill="#0CE6F2" />
<rect x="6" y="11" width="2" height="1" fill="#252446" />
<rect x="17" y="11" width="2" height="1" fill="#0CE6F2" />
<rect x="19" y="11" width="2" height="2" fill="#FFFFFF" />
<rect x="21" y="11" width="1" height="1" fill="#203562" />
<rect x="22" y="11" width="1" height="1" fill="#252446" />
<rect x="23" y="11" width="2" height="1" fill="#203562" />
<rect x="38" y="11" width="2" height="1" fill="#203562" />
<rect x="49" y="11" width="2" height="1" fill="#0CE6F2" />
<rect x="51" y="11" width="2" height="2" fill="#FFFFFF" />
<rect x="53" y="11" width="1" height="1" fill="#203562" />
<rect x="54" y="11" width="1" height="1" fill="#252446" />
<rect x="55" y="11" width="2" height="1" fill="#203562" />
<rect x="65" y="11" width="4" height="1" fill="#FFFFFF" />
<rect x="69" y="11" width="1" height="1" fill="#0CE6F2" />
<rect x="70" y="11" width="2" height="1" fill="#252446" />
<rect x="84" y="11" width="2" height="1" fill="#FFFFFF" />
<rect x="87" y="11" width="1" height="1" fill="#203562" />
<rect x="88" y="11" width="1" height="2" fill="#1E579C" />
<rect x="89" y="11" width="1" height="2" fill="#0098DB" />
<rect x="90" y="11" width="1" height="1" fill="#1E579C" />
<rect x="1" y="12" width="2" height="1" fill="#0CE6F2" />
<rect x="3" y="12" width="2" height="2" fill="#FFFFFF" />
<rect x="5" y="12" width="1" height="1" fill="#203562" />
<rect x="6" y="12" width="1" height="1" fill="#252446" />
<rect x="7" y="12" width="2" height="1" fill="#203562" />
<rect x="22" y="12" width="2" height="1" fill="#203562" />
<rect x="35" y="12" width="2" height="1" fill="#0CE6F2" />
<rect x="54" y="12" width="2" height="1" fill="#203562" />
<rect x="65" y="12" width="2" height="1" fill="#0CE6F2" />
<rect x="67" y="12" width="2" height="2" fill="#FFFFFF" />
<rect x="69" y="12" width="1" height="1" fill="#203562" />
<rect x="70" y="12" width="1" height="1" fill="#252446" />
<rect x="71" y="12" width="2" height="1" fill="#203562" />
<rect x="81" y="12" width="4" height="1" fill="#FFFFFF" />
<rect x="85" y="12" width="1" height="1" fill="#0CE6F2" />
<rect x="86" y="12" width="2" height="1" fill="#252446" />
<rect x="6" y="13" width="2" height="1" fill="#203562" />
<rect x="19" y="13" width="2" height="1" fill="#0CE6F2" />
<rect x="51" y="13" width="2" height="1" fill="#0CE6F2" />
<rect x="70" y="13" width="2" height="1" fill="#203562" />
<rect x="81" y="13" width="2" height="1" fill="#0CE6F2" />
<rect x="83" y="13" width="2" height="2" fill="#FFFFFF" />
<rect x="85" y="13" width="1" height="1" fill="#203562" />
<rect x="86" y="13" width="1" height="1" fill="#252446" />
<rect x="87" y="13" width="2" height="1" fill="#203562" />
<rect x="3" y="14" width="2" height="1" fill="#0CE6F2" />
<rect x="67" y="14" width="2" height="1" fill="#0CE6F2" />
<rect x="86" y="14" width="2" height="1" fill="#203562" />
<rect x="83" y="15" width="2" height="1" fill="#0CE6F2" />
</svg>