<?xml version="1.0" encoding="UTF-8" ?>
<svg version="1.1" width="64" height="16" xmlns="http://www.w3.org/2000/svg" shape-rendering="crispEdges">
<rect x="21" y="0" width="1" height="1" fill="#FFFFFF" />
<rect x="23" y="0" width="2" height="2" fill="#FFFFFF" />
<rect x="2" y="1" width="1" height="1" fill="#FFFFFF" />
<rect x="22" y="1" width="1" height="3" fill="#FFFFFF" />
<rect x="3" y="2" width="2" height="3" fill="#FFFFFF" />
<rect x="24" y="2" width="2" height="2" fill="#FFFFFF" />
<rect x="27" y="2" width="1" height="1" fill="#FFFFFF" />
<rect x="41" y="2" width="2" height="3" fill="#FFFFFF" />
<rect x="19" y="3" width="1" height="1" fill="#FFFFFF" />
<rect x="29" y="3" width="1" height="2" fill="#FFFFFF" />
<rect x="1" y="4" width="1" height="1" fill="#FFFFFF" />
<rect x="21" y="4" width="1" height="8" fill="#FFFFFF" />
<rect x="25" y="4" width="2" height="8" fill="#FFFFFF" />
<rect x="59" y="4" width="1" height="2" fill="#FFFFFF" />
<rect x="2" y="5" width="1" height="6" fill="#FFFFFF" />
<rect x="4" y="5" width="2" height="6" fill="#FFFFFF" />
<rect x="23" y="5" width="1" height="1" fill="#FFFFFF" />
<rect x="28" y="5" width="1" height="6" fill="#FFFFFF" />
<rect x="30" y="5" width="1" height="6" fill="#FFFFFF" />
<rect x="40" y="5" width="1" height="6" fill="#FFFFFF" />
<rect x="42" y="5" width="2" height="6" fill="#FFFFFF" />
<rect x="0" y="6" width="1" height="1" fill="#FFFFFF" />
<rect x="7" y="6" width="1" height="4" fill="#FFFFFF" />
<rect x="18" y="6" width="1" height="1" fill="#FFFFFF" />
<rect x="45" y="6" width="1" height="4" fill="#FFFFFF" />
<rect x="58" y="6" width="1" height="4" fill="#FFFFFF" />
<rect x="60" y="6" width="1" height="4" fill="#FFFFFF" />
<rect x="0" y="9" width="1" height="1" fill="#FFFFFF" />
<rect x="18" y="9" width="1" height="1" fill="#FFFFFF" />
<rect x="23" y="10" width="1" height="1" fill="#FFFFFF" />
<rect x="59" y="10" width="1" height="2" fill="#FFFFFF" />
<rect x="1" y="11" width="1" height="1" fill="#FFFFFF" />
<rect x="3" y="11" width="2" height="3" fill="#FFFFFF" />
<rect x="29" y="11" width="1" height="2" fill="#FFFFFF" />
<rect x="41" y="11" width="2" height="3" fill="#FFFFFF" />
<rect x="19" y="12" width="1" height="1" fill="#FFFFFF" />
<rect x="22" y="12" width="1" height="3" fill="#FFFFFF" />
<rect x="24" y="12" width="2" height="2" fill="#FFFFFF" />
<rect x="27" y="13" width="1" height="1" fill="#FFFFFF" />
<rect x="2" y="14" width="1" height="1" fill="#FFFFFF" />
<rect x="23" y="14" width="2" height="2" fill="#FFFFFF" />
<rect x="21" y="15" width="1" height="1" fill="#FFFFFF" />
</svg>