<?xml version="1.0" encoding="UTF-8" ?>
<svg version="1.1" width="112" height="16" xmlns="http://www.w3.org/2000/svg" shape-rendering="crispEdges">
<rect x="6" y="3" width="4" height="1" fill="#DB0007" />
<rect x="22" y="3" width="4" height="1" fill="#DB0007" />
<rect x="38" y="3" width="4" height="1" fill="#DB0007" />
<rect x="54" y="3" width="4" height="1" fill="#DB0007" />
<rect x="70" y="3" width="4" height="1" fill="#DB0007" />
<rect x="86" y="3" width="4" height="2" fill="#FF0048" />
<rect x="102" y="3" width="4" height="1" fill="#FF0048" />
<rect x="5" y="4" width="1" height="1" fill="#DB0007" />
<rect x="6" y="4" width="4" height="1" fill="#732F0D" />
<rect x="10" y="4" width="1" height="1" fill="#DB0007" />
<rect x="21" y="4" width="1" height="1" fill="#DB0007" />
<rect x="22" y="4" width="4" height="1" fill="#732F0D" />
<rect x="26" y="4" width="1" height="1" fill="#DB0007" />
<rect x="37" y="4" width="1" height="1" fill="#DB0007" />
<rect x="38" y="4" width="4" height="1" fill="#732F0D" />
<rect x="42" y="4" width="1" height="1" fill="#DB0007" />
<rect x="53" y="4" width="1" height="1" fill="#DB0007" />
<rect x="54" y="4" width="4" height="1" fill="#732F0D" />
<rect x="58" y="4" width="1" height="1" fill="#DB0007" />
<rect x="69" y="4" width="1" height="1" fill="#DB0007" />
<rect x="70" y="4" width="4" height="1" fill="#FF0048" />
<rect x="74" y="4" width="1" height="1" fill="#DB0007" />
<rect x="85" y="4" width="1" height="2" fill="#FF0048" />
<rect x="90" y="4" width="1" height="2" fill="#FF0048" />
<rect x="101" y="4" width="1" height="1" fill="#FF0048" />
<rect x="102" y="4" width="4" height="1" fill="#732F0D" />
<rect x="106" y="4" width="1" height="1" fill="#FF0048" />
<rect x="4" y="5" width="1" height="1" fill="#DB0007" />
<rect x="5" y="5" width="1" height="1" fill="#732F0D" />
<rect x="6" y="5" width="4" height="6" fill="#564215" />
<rect x="10" y="5" width="1" height="1" fill="#732F0D" />
<rect x="11" y="5" width="1" height="1" fill="#DB0007" />
<rect x="20" y="5" width="1" height="1" fill="#DB0007" />
<rect x="21" y="5" width="1" height="1" fill="#732F0D" />
<rect x="22" y="5" width="4" height="2" fill="#564215" />
<rect x="26" y="5" width="1" height="1" fill="#732F0D" />
<rect x="27" y="5" width="1" height="1" fill="#DB0007" />
<rect x="36" y="5" width="1" height="1" fill="#DB0007" />
<rect x="37" y="5" width="1" height="1" fill="#732F0D" />
<rect x="38" y="5" width="4" height="1" fill="#564215" />
<rect x="42" y="5" width="1" height="1" fill="#732F0D" />
<rect x="43" y="5" width="1" height="1" fill="#DB0007" />
<rect x="52" y="5" width="1" height="1" fill="#DB0007" />
<rect x="53" y="5" width="1" height="1" fill="#732F0D" />
<rect x="54" y="5" width="1" height="1" fill="#564215" />
<rect x="55" y="5" width="2" height="1" fill="#FF0048" />
<rect x="57" y="5" width="1" height="1" fill="#564215" />
<rect x="58" y="5" width="1" height="1" fill="#732F0D" />
<rect x="59" y="5" width="1" height="1" fill="#DB0007" />
<rect x="68" y="5" width="1" height="1" fill="#DB0007" />
<rect x="69" y="5" width="1" height="1" fill="#FF0048" />
<rect x="70" y="5" width="4" height="6" fill="#564215" />
<rect x="74" y="5" width="1" height="1" fill="#FF0048" />
<rect x="75" y="5" width="1" height="1" fill="#DB0007" />
<rect x="84" y="5" width="1" height="6" fill="#FF0048" />
<rect x="86" y="5" width="4" height="6" fill="#564215" />
<rect x="91" y="5" width="1" height="6" fill="#FF0048" />
<rect x="100" y="5" width="1" height="1" fill="#FF0048" />
<rect x="101" y="5" width="1" height="1" fill="#732F0D" />
<rect x="102" y="5" width="4" height="6" fill="#564215" />
<rect x="106" y="5" width="1" height="1" fill="#732F0D" />
<rect x="107" y="5" width="1" height="1" fill="#FF0048" />
<rect x="3" y="6" width="1" height="4" fill="#DB0007" />
<rect x="4" y="6" width="1" height="4" fill="#732F0D" />
<rect x="5" y="6" width="1" height="4" fill="#564215" />
<rect x="10" y="6" width="1" height="4" fill="#564215" />
<rect x="11" y="6" width="1" height="4" fill="#732F0D" />
<rect x="12" y="6" width="1" height="4" fill="#DB0007" />
<rect x="19" y="6" width="1" height="4" fill="#DB0007" />
<rect x="20" y="6" width="1" height="4" fill="#732F0D" />
<rect x="21" y="6" width="1" height="4" fill="#564215" />
<rect x="26" y="6" width="1" height="4" fill="#564215" />
<rect x="27" y="6" width="1" height="4" fill="#732F0D" />
<rect x="28" y="6" width="1" height="4" fill="#DB0007" />
<rect x="35" y="6" width="1" height="4" fill="#DB0007" />
<rect x="36" y="6" width="1" height="4" fill="#732F0D" />
<rect x="37" y="6" width="2" height="1" fill="#564215" />
<rect x="39" y="6" width="2" height="1" fill="#FF0048" />
<rect x="41" y="6" width="2" height="1" fill="#564215" />
<rect x="43" y="6" width="1" height="4" fill="#732F0D" />
<rect x="44" y="6" width="1" height="4" fill="#DB0007" />
<rect x="51" y="6" width="1" height="4" fill="#DB0007" />
<rect x="52" y="6" width="1" height="4" fill="#732F0D" />
<rect x="53" y="6" width="1" height="1" fill="#564215" />
<rect x="54" y="6" width="1" height="1" fill="#FF0048" />
<rect x="55" y="6" width="2" height="4" fill="#564215" />
<rect x="57" y="6" width="1" height="1" fill="#FF0048" />
<rect x="58" y="6" width="1" height="1" fill="#564215" />
<rect x="59" y="6" width="1" height="4" fill="#732F0D" />
<rect x="60" y="6" width="1" height="4" fill="#DB0007" />
<rect x="67" y="6" width="1" height="4" fill="#DB0007" />
<rect x="68" y="6" width="1" height="4" fill="#FF0048" />
<rect x="69" y="6" width="1" height="4" fill="#564215" />
<rect x="74" y="6" width="1" height="4" fill="#564215" />
<rect x="75" y="6" width="1" height="4" fill="#FF0048" />
<rect x="76" y="6" width="1" height="4" fill="#DB0007" />
<rect x="83" y="6" width="1" height="4" fill="#FF0048" />
<rect x="85" y="6" width="1" height="4" fill="#564215" />
<rect x="90" y="6" width="1" height="4" fill="#564215" />
<rect x="92" y="6" width="1" height="4" fill="#FF0048" />
<rect x="99" y="6" width="1" height="4" fill="#FF0048" />
<rect x="100" y="6" width="1" height="4" fill="#732F0D" />
<rect x="101" y="6" width="1" height="4" fill="#564215" />
<rect x="106" y="6" width="1" height="4" fill="#564215" />
<rect x="107" y="6" width="1" height="4" fill="#732F0D" />
<rect x="108" y="6" width="1" height="4" fill="#FF0048" />
<rect x="22" y="7" width="1" height="4" fill="#564215" />
<rect x="23" y="7" width="2" height="2" fill="#FF0048" />
<rect x="25" y="7" width="1" height="4" fill="#564215" />
<rect x="37" y="7" width="1" height="3" fill="#564215" />
<rect x="38" y="7" width="1" height="2" fill="#FF0048" />
<rect x="39" y="7" width="2" height="2" fill="#564215" />
<rect x="41" y="7" width="1" height="2" fill="#FF0048" />
<rect x="42" y="7" width="1" height="3" fill="#564215" />
<rect x="53" y="7" width="1" height="2" fill="#FF0048" />
<rect x="54" y="7" width="1" height="2" fill="#564215" />
<rect x="57" y="7" width="1" height="2" fill="#564215" />
<rect x="58" y="7" width="1" height="2" fill="#FF0048" />
<rect x="23" y="9" width="2" height="2" fill="#564215" />
<rect x="38" y="9" width="1" height="2" fill="#564215" />
<rect x="39" y="9" width="2" height="1" fill="#FF0048" />
<rect x="41" y="9" width="1" height="2" fill="#564215" />
<rect x="53" y="9" width="1" height="1" fill="#564215" />
<rect x="54" y="9" width="1" height="1" fill="#FF0048" />
<rect x="57" y="9" width="1" height="1" fill="#FF0048" />
<rect x="58" y="9" width="1" height="1" fill="#564215" />
<rect x="4" y="10" width="1" height="1" fill="#DB0007" />
<rect x="5" y="10" width="1" height="1" fill="#732F0D" />
<rect x="10" y="10" width="1" height="1" fill="#732F0D" />
<rect x="11" y="10" width="1" height="1" fill="#DB0007" />
<rect x="20" y="10" width="1" height="1" fill="#DB0007" />
<rect x="21" y="10" width="1" height="1" fill="#732F0D" />
<rect x="26" y="10" width="1" height="1" fill="#732F0D" />
<rect x="27" y="10" width="1" height="1" fill="#DB0007" />
<rect x="36" y="10" width="1" height="1" fill="#DB0007" />
<rect x="37" y="10" width="1" height="1" fill="#732F0D" />
<rect x="39" y="10" width="2" height="1" fill="#564215" />
<rect x="42" y="10" width="1" height="1" fill="#732F0D" />
<rect x="43" y="10" width="1" height="1" fill="#DB0007" />
<rect x="52" y="10" width="1" height="1" fill="#DB0007" />
<rect x="53" y="10" width="1" height="1" fill="#732F0D" />
<rect x="54" y="10" width="1" height="1" fill="#564215" />
<rect x="55" y="10" width="2" height="1" fill="#FF0048" />
<rect x="57" y="10" width="1" height="1" fill="#564215" />
<rect x="58" y="10" width="1" height="1" fill="#732F0D" />
<rect x="59" y="10" width="1" height="1" fill="#DB0007" />
<rect x="68" y="10" width="1" height="1" fill="#DB0007" />
<rect x="69" y="10" width="1" height="1" fill="#FF0048" />
<rect x="74" y="10" width="1" height="1" fill="#FF0048" />
<rect x="75" y="10" width="1" height="1" fill="#DB0007" />
<rect x="85" y="10" width="1" height="2" fill="#FF0048" />
<rect x="90" y="10" width="1" height="2" fill="#FF0048" />
<rect x="100" y="10" width="1" height="1" fill="#FF0048" />
<rect x="101" y="10" width="1" height="1" fill="#732F0D" />
<rect x="106" y="10" width="1" height="1" fill="#732F0D" />
<rect x="107" y="10" width="1" height="1" fill="#FF0048" />
<rect x="5" y="11" width="1" height="1" fill="#DB0007" />
<rect x="6" y="11" width="4" height="1" fill="#732F0D" />
<rect x="10" y="11" width="1" height="1" fill="#DB0007" />
<rect x="21" y="11" width="1" height="1" fill="#DB0007" />
<rect x="22" y="11" width="4" height="1" fill="#732F0D" />
<rect x="26" y="11" width="1" height="1" fill="#DB0007" />
<rect x="37" y="11" width="1" height="1" fill="#DB0007" />
<rect x="38" y="11" width="4" height="1" fill="#732F0D" />
<rect x="42" y="11" width="1" height="1" fill="#DB0007" />
<rect x="53" y="11" width="1" height="1" fill="#DB0007" />
<rect x="54" y="11" width="4" height="1" fill="#732F0D" />
<rect x="58" y="11" width="1" height="1" fill="#DB0007" />
<rect x="69" y="11" width="1" height="1" fill="#DB0007" />
<rect x="70" y="11" width="4" height="1" fill="#FF0048" />
<rect x="74" y="11" width="1" height="1" fill="#DB0007" />
<rect x="86" y="11" width="4" height="2" fill="#FF0048" />
<rect x="101" y="11" width="1" height="1" fill="#FF0048" />
<rect x="102" y="11" width="4" height="1" fill="#732F0D" />
<rect x="106" y="11" width="1" height="1" fill="#FF0048" />
<rect x="6" y="12" width="4" height="1" fill="#DB0007" />
<rect x="22" y="12" width="4" height="1" fill="#DB0007" />
<rect x="38" y="12" width="4" height="1" fill="#DB0007" />
<rect x="54" y="12" width="4" height="1" fill="#DB0007" />
<rect x="70" y="12" width="4" height="1" fill="#DB0007" />
<rect x="102" y="12" width="4" height="1" fill="#FF0048" />
</svg>