<?xml version="1.0" encoding="UTF-8" ?>
<svg version="1.1" width="64" height="16" xmlns="http://www.w3.org/2000/svg" shape-rendering="crispEdges">
<rect x="23" y="0" width="2" height="1" fill="#FFFFFF" />
<rect x="39" y="0" width="2" height="1" fill="#FFFFFF" />
<rect x="55" y="0" width="2" height="1" fill="#FFFFFF" />
<rect x="7" y="1" width="2" height="1" fill="#FFFFFF" />
<rect x="17" y="1" width="2" height="1" fill="#FFFFFF" />
<rect x="22" y="1" width="1" height="2" fill="#FFFFFF" />
<rect x="23" y="1" width="1" height="1" fill="#0CE6F2" />
<rect x="24" y="1" width="1" height="2" fill="#0098DB" />
<rect x="25" y="1" width="1" height="2" fill="#FFFFFF" />
<rect x="29" y="1" width="2" height="1" fill="#FFFFFF" />
<rect x="33" y="1" width="2" height="1" fill="#FFFFFF" />
<rect x="38" y="1" width="1" height="2" fill="#FFFFFF" />
<rect x="39" y="1" width="1" height="1" fill="#0CE6F2" />
<rect x="40" y="1" width="1" height="2" fill="#0098DB" />
<rect x="41" y="1" width="1" height="2" fill="#FFFFFF" />
<rect x="45" y="1" width="2" height="1" fill="#FFFFFF" />
<rect x="49" y="1" width="2" height="1" fill="#FFFFFF" />
<rect x="54" y="1" width="1" height="2" fill="#FFFFFF" />
<rect x="55" y="1" width="1" height="1" fill="#0CE6F2" />
<rect x="56" y="1" width="1" height="2" fill="#0098DB" />
<rect x="57" y="1" width="1" height="2" fill="#FFFFFF" />
<rect x="61" y="1" width="2" height="1" fill="#FFFFFF" />
<rect x="1" y="2" width="2" height="1" fill="#FFFFFF" />
<rect x="6" y="2" width="1" height="2" fill="#FFFFFF" />
<rect x="7" y="2" width="1" height="1" fill="#0CE6F2" />
<rect x="8" y="2" width="1" height="2" fill="#0098DB" />
<rect x="9" y="2" width="1" height="2" fill="#FFFFFF" />
<rect x="13" y="2" width="2" height="1" fill="#FFFFFF" />
<rect x="17" y="2" width="1" height="5" fill="#FFFFFF" />
<rect x="18" y="2" width="1" height="4" fill="#0098DB" />
<rect x="19" y="2" width="3" height="1" fill="#FFFFFF" />
<rect x="23" y="2" width="1" height="1" fill="#0098DB" />
<rect x="26" y="2" width="3" height="1" fill="#FFFFFF" />
<rect x="29" y="2" width="1" height="4" fill="#0098DB" />
<rect x="30" y="2" width="1" height="5" fill="#FFFFFF" />
<rect x="33" y="2" width="1" height="4" fill="#FFFFFF" />
<rect x="34" y="2" width="1" height="4" fill="#0098DB" />
<rect x="35" y="2" width="3" height="1" fill="#FFFFFF" />
<rect x="39" y="2" width="1" height="1" fill="#0098DB" />
<rect x="42" y="2" width="3" height="1" fill="#FFFFFF" />
<rect x="45" y="2" width="1" height="4" fill="#0098DB" />
<rect x="46" y="2" width="1" height="4" fill="#FFFFFF" />
<rect x="49" y="2" width="1" height="5" fill="#FFFFFF" />
<rect x="50" y="2" width="1" height="5" fill="#0098DB" />
<rect x="51" y="2" width="3" height="1" fill="#FFFFFF" />
<rect x="55" y="2" width="1" height="1" fill="#0098DB" />
<rect x="58" y="2" width="3" height="1" fill="#FFFFFF" />
<rect x="61" y="2" width="1" height="5" fill="#0098DB" />
<rect x="62" y="2" width="1" height="5" fill="#FFFFFF" />
<rect x="1" y="3" width="1" height="4" fill="#FFFFFF" />
<rect x="2" y="3" width="1" height="4" fill="#0098DB" />
<rect x="3" y="3" width="3" height="1" fill="#FFFFFF" />
<rect x="7" y="3" width="1" height="1" fill="#0098DB" />
<rect x="10" y="3" width="3" height="1" fill="#FFFFFF" />
<rect x="13" y="3" width="1" height="4" fill="#0098DB" />
<rect x="14" y="3" width="1" height="4" fill="#FFFFFF" />
<rect x="19" y="3" width="1" height="1" fill="#0098DB" />
<rect x="20" y="3" width="1" height="1" fill="#FFFFFF" />
<rect x="21" y="3" width="1" height="1" fill="#203562" />
<rect x="22" y="3" width="1" height="1" fill="#1E579C" />
<rect x="23" y="3" width="2" height="1" fill="#FFFFFF" />
<rect x="25" y="3" width="1" height="1" fill="#1E579C" />
<rect x="26" y="3" width="1" height="1" fill="#203562" />
<rect x="27" y="3" width="1" height="1" fill="#FFFFFF" />
<rect x="28" y="3" width="1" height="1" fill="#0098DB" />
<rect x="35" y="3" width="1" height="1" fill="#0098DB" />
<rect x="36" y="3" width="1" height="1" fill="#FFFFFF" />
<rect x="37" y="3" width="1" height="1" fill="#203562" />
<rect x="38" y="3" width="1" height="1" fill="#1E579C" />
<rect x="39" y="3" width="2" height="1" fill="#FFFFFF" />
<rect x="41" y="3" width="1" height="1" fill="#1E579C" />
<rect x="42" y="3" width="1" height="1" fill="#203562" />
<rect x="43" y="3" width="1" height="1" fill="#FFFFFF" />
<rect x="44" y="3" width="1" height="1" fill="#0098DB" />
<rect x="51" y="3" width="1" height="1" fill="#0098DB" />
<rect x="52" y="3" width="1" height="1" fill="#FFFFFF" />
<rect x="53" y="3" width="1" height="1" fill="#203562" />
<rect x="54" y="3" width="1" height="1" fill="#1E579C" />
<rect x="55" y="3" width="2" height="1" fill="#FFFFFF" />
<rect x="57" y="3" width="1" height="1" fill="#1E579C" />
<rect x="58" y="3" width="1" height="1" fill="#203562" />
<rect x="59" y="3" width="1" height="1" fill="#FFFFFF" />
<rect x="60" y="3" width="1" height="1" fill="#0098DB" />
<rect x="3" y="4" width="1" height="1" fill="#0098DB" />
<rect x="4" y="4" width="1" height="1" fill="#FFFFFF" />
<rect x="5" y="4" width="1" height="1" fill="#203562" />
<rect x="6" y="4" width="1" height="1" fill="#1E579C" />
<rect x="7" y="4" width="2" height="1" fill="#FFFFFF" />
<rect x="9" y="4" width="1" height="1" fill="#1E579C" />
<rect x="10" y="4" width="1" height="1" fill="#203562" />
<rect x="11" y="4" width="1" height="1" fill="#FFFFFF" />
<rect x="12" y="4" width="1" height="1" fill="#0098DB" />
<rect x="19" y="4" width="2" height="1" fill="#0CE6F2" />
<rect x="21" y="4" width="1" height="1" fill="#0098DB" />
<rect x="22" y="4" width="1" height="1" fill="#203562" />
<rect x="23" y="4" width="2" height="1" fill="#1E579C" />
<rect x="25" y="4" width="1" height="1" fill="#203562" />
<rect x="26" y="4" width="1" height="1" fill="#0098DB" />
<rect x="27" y="4" width="2" height="1" fill="#0CE6F2" />
<rect x="35" y="4" width="2" height="1" fill="#0CE6F2" />
<rect x="37" y="4" width="1" height="1" fill="#0098DB" />
<rect x="38" y="4" width="1" height="1" fill="#203562" />
<rect x="39" y="4" width="2" height="1" fill="#1E579C" />
<rect x="41" y="4" width="1" height="1" fill="#203562" />
<rect x="42" y="4" width="1" height="1" fill="#0098DB" />
<rect x="43" y="4" width="2" height="1" fill="#0CE6F2" />
<rect x="51" y="4" width="2" height="1" fill="#0CE6F2" />
<rect x="53" y="4" width="1" height="2" fill="#0098DB" />
<rect x="54" y="4" width="1" height="2" fill="#203562" />
<rect x="55" y="4" width="2" height="1" fill="#1E579C" />
<rect x="57" y="4" width="1" height="2" fill="#203562" />
<rect x="58" y="4" width="1" height="2" fill="#0098DB" />
<rect x="59" y="4" width="2" height="1" fill="#0CE6F2" />
<rect x="3" y="5" width="2" height="1" fill="#0CE6F2" />
<rect x="5" y="5" width="1" height="1" fill="#0098DB" />
<rect x="6" y="5" width="1" height="1" fill="#203562" />
<rect x="7" y="5" width="2" height="1" fill="#1E579C" />
<rect x="9" y="5" width="1" height="1" fill="#203562" />
<rect x="10" y="5" width="1" height="1" fill="#0098DB" />
<rect x="11" y="5" width="2" height="1" fill="#0CE6F2" />
<rect x="19" y="5" width="1" height="2" fill="#203562" />
<rect x="20" y="5" width="1" height="2" fill="#201533" />
<rect x="21" y="5" width="1" height="1" fill="#0CE6F2" />
<rect x="22" y="5" width="1" height="1" fill="#0098DB" />
<rect x="23" y="5" width="2" height="1" fill="#FFFFFF" />
<rect x="25" y="5" width="1" height="1" fill="#0098DB" />
<rect x="26" y="5" width="1" height="1" fill="#0CE6F2" />
<rect x="27" y="5" width="1" height="2" fill="#201533" />
<rect x="28" y="5" width="1" height="2" fill="#203562" />
<rect x="35" y="5" width="1" height="2" fill="#203562" />
<rect x="36" y="5" width="1" height="2" fill="#201533" />
<rect x="37" y="5" width="1" height="1" fill="#0CE6F2" />
<rect x="38" y="5" width="1" height="1" fill="#0098DB" />
<rect x="39" y="5" width="2" height="1" fill="#FFFFFF" />
<rect x="41" y="5" width="1" height="1" fill="#0098DB" />
<rect x="42" y="5" width="1" height="1" fill="#0CE6F2" />
<rect x="43" y="5" width="1" height="2" fill="#201533" />
<rect x="44" y="5" width="1" height="2" fill="#203562" />
<rect x="51" y="5" width="1" height="3" fill="#203562" />
<rect x="52" y="5" width="1" height="1" fill="#0CE6F2" />
<rect x="55" y="5" width="2" height="2" fill="#FFFFFF" />
<rect x="59" y="5" width="1" height="1" fill="#0CE6F2" />
<rect x="60" y="5" width="1" height="3" fill="#203562" />
<rect x="3" y="6" width="1" height="2" fill="#203562" />
<rect x="4" y="6" width="1" height="2" fill="#201533" />
<rect x="5" y="6" width="1" height="1" fill="#0CE6F2" />
<rect x="6" y="6" width="1" height="1" fill="#0098DB" />
<rect x="7" y="6" width="2" height="1" fill="#FFFFFF" />
<rect x="9" y="6" width="1" height="1" fill="#0098DB" />
<rect x="10" y="6" width="1" height="1" fill="#0CE6F2" />
<rect x="11" y="6" width="1" height="2" fill="#201533" />
<rect x="12" y="6" width="1" height="2" fill="#203562" />
<rect x="18" y="6" width="1" height="3" fill="#FFFFFF" />
<rect x="21" y="6" width="2" height="3" fill="#201533" />
<rect x="23" y="6" width="1" height="1" fill="#FFFFFF" />
<rect x="24" y="6" width="1" height="8" fill="#1E579C" />
<rect x="25" y="6" width="2" height="3" fill="#201533" />
<rect x="29" y="6" width="1" height="3" fill="#FFFFFF" />
<rect x="34" y="6" width="1" height="2" fill="#FFFFFF" />
<rect x="37" y="6" width="2" height="3" fill="#201533" />
<rect x="39" y="6" width="1" height="1" fill="#FFFFFF" />
<rect x="40" y="6" width="1" height="7" fill="#1E579C" />
<rect x="41" y="6" width="2" height="3" fill="#201533" />
<rect x="45" y="6" width="1" height="2" fill="#FFFFFF" />
<rect x="52" y="6" width="1" height="2" fill="#201533" />
<rect x="53" y="6" width="1" height="1" fill="#0CE6F2" />
<rect x="54" y="6" width="1" height="1" fill="#0098DB" />
<rect x="57" y="6" width="1" height="1" fill="#0098DB" />
<rect x="58" y="6" width="1" height="1" fill="#0CE6F2" />
<rect x="59" y="6" width="1" height="2" fill="#201533" />
<rect x="2" y="7" width="1" height="2" fill="#FFFFFF" />
<rect x="5" y="7" width="2" height="3" fill="#201533" />
<rect x="7" y="7" width="1" height="1" fill="#FFFFFF" />
<rect x="8" y="7" width="1" height="7" fill="#1E579C" />
<rect x="9" y="7" width="2" height="3" fill="#201533" />
<rect x="13" y="7" width="1" height="2" fill="#FFFFFF" />
<rect x="19" y="7" width="1" height="1" fill="#0098DB" />
<rect x="20" y="7" width="1" height="2" fill="#203562" />
<rect x="23" y="7" width="1" height="7" fill="#1E579C" />
<rect x="27" y="7" width="1" height="2" fill="#203562" />
<rect x="28" y="7" width="1" height="1" fill="#0098DB" />
<rect x="35" y="7" width="1" height="1" fill="#0098DB" />
<rect x="36" y="7" width="1" height="2" fill="#203562" />
<rect x="39" y="7" width="1" height="6" fill="#1E579C" />
<rect x="43" y="7" width="1" height="2" fill="#203562" />
<rect x="44" y="7" width="1" height="1" fill="#0098DB" />
<rect x="50" y="7" width="1" height="2" fill="#FFFFFF" />
<rect x="53" y="7" width="2" height="3" fill="#201533" />
<rect x="55" y="7" width="1" height="1" fill="#FFFFFF" />
<rect x="56" y="7" width="1" height="7" fill="#1E579C" />
<rect x="57" y="7" width="2" height="3" fill="#201533" />
<rect x="61" y="7" width="1" height="2" fill="#FFFFFF" />
<rect x="3" y="8" width="1" height="1" fill="#0098DB" />
<rect x="4" y="8" width="1" height="2" fill="#203562" />
<rect x="7" y="8" width="1" height="6" fill="#1E579C" />
<rect x="11" y="8" width="1" height="2" fill="#203562" />
<rect x="12" y="8" width="1" height="1" fill="#0098DB" />
<rect x="19" y="8" width="1" height="3" fill="#FFFFFF" />
<rect x="28" y="8" width="1" height="3" fill="#FFFFFF" />
<rect x="35" y="8" width="1" height="2" fill="#FFFFFF" />
<rect x="44" y="8" width="1" height="2" fill="#FFFFFF" />
<rect x="51" y="8" width="1" height="1" fill="#0098DB" />
<rect x="52" y="8" width="1" height="2" fill="#203562" />
<rect x="55" y="8" width="1" height="6" fill="#1E579C" />
<rect x="59" y="8" width="1" height="2" fill="#203562" />
<rect x="60" y="8" width="1" height="1" fill="#0098DB" />
<rect x="3" y="9" width="1" height="2" fill="#FFFFFF" />
<rect x="12" y="9" width="1" height="2" fill="#FFFFFF" />
<rect x="20" y="9" width="1" height="1" fill="#0098DB" />
<rect x="21" y="9" width="1" height="2" fill="#203562" />
<rect x="22" y="9" width="1" height="2" fill="#201533" />
<rect x="25" y="9" width="1" height="2" fill="#201533" />
<rect x="26" y="9" width="1" height="2" fill="#203562" />
<rect x="27" y="9" width="1" height="1" fill="#0098DB" />
<rect x="36" y="9" width="1" height="1" fill="#0098DB" />
<rect x="37" y="9" width="1" height="2" fill="#203562" />
<rect x="38" y="9" width="1" height="2" fill="#201533" />
<rect x="41" y="9" width="1" height="2" fill="#201533" />
<rect x="42" y="9" width="1" height="2" fill="#203562" />
<rect x="43" y="9" width="1" height="1" fill="#0098DB" />
<rect x="51" y="9" width="1" height="2" fill="#FFFFFF" />
<rect x="60" y="9" width="1" height="2" fill="#FFFFFF" />
<rect x="4" y="10" width="1" height="1" fill="#0098DB" />
<rect x="5" y="10" width="1" height="2" fill="#203562" />
<rect x="6" y="10" width="1" height="2" fill="#201533" />
<rect x="9" y="10" width="1" height="2" fill="#201533" />
<rect x="10" y="10" width="1" height="2" fill="#203562" />
<rect x="11" y="10" width="1" height="1" fill="#0098DB" />
<rect x="20" y="10" width="1" height="3" fill="#FFFFFF" />
<rect x="27" y="10" width="1" height="3" fill="#FFFFFF" />
<rect x="36" y="10" width="1" height="2" fill="#FFFFFF" />
<rect x="43" y="10" width="1" height="2" fill="#FFFFFF" />
<rect x="52" y="10" width="1" height="1" fill="#0098DB" />
<rect x="53" y="10" width="1" height="2" fill="#203562" />
<rect x="54" y="10" width="1" height="2" fill="#201533" />
<rect x="57" y="10" width="1" height="2" fill="#201533" />
<rect x="58" y="10" width="1" height="2" fill="#203562" />
<rect x="59" y="10" width="1" height="1" fill="#0098DB" />
<rect x="4" y="11" width="1" height="2" fill="#FFFFFF" />
<rect x="11" y="11" width="1" height="2" fill="#FFFFFF" />
<rect x="21" y="11" width="1" height="2" fill="#0098DB" />
<rect x="22" y="11" width="1" height="2" fill="#203562" />
<rect x="25" y="11" width="1" height="2" fill="#203562" />
<rect x="26" y="11" width="1" height="2" fill="#0098DB" />
<rect x="37" y="11" width="1" height="1" fill="#0098DB" />
<rect x="38" y="11" width="1" height="1" fill="#203562" />
<rect x="41" y="11" width="1" height="1" fill="#203562" />
<rect x="42" y="11" width="1" height="1" fill="#0098DB" />
<rect x="52" y="11" width="1" height="2" fill="#FFFFFF" />
<rect x="59" y="11" width="1" height="2" fill="#FFFFFF" />
<rect x="5" y="12" width="1" height="1" fill="#0098DB" />
<rect x="6" y="12" width="1" height="1" fill="#203562" />
<rect x="9" y="12" width="1" height="1" fill="#203562" />
<rect x="10" y="12" width="1" height="1" fill="#0098DB" />
<rect x="37" y="12" width="1" height="1" fill="#FFFFFF" />
<rect x="38" y="12" width="1" height="1" fill="#0098DB" />
<rect x="41" y="12" width="1" height="1" fill="#0098DB" />
<rect x="42" y="12" width="1" height="1" fill="#FFFFFF" />
<rect x="53" y="12" width="1" height="1" fill="#0098DB" />
<rect x="54" y="12" width="1" height="1" fill="#203562" />
<rect x="57" y="12" width="1" height="1" fill="#203562" />
<rect x="58" y="12" width="1" height="1" fill="#0098DB" />
<rect x="5" y="13" width="1" height="1" fill="#FFFFFF" />
<rect x="6" y="13" width="1" height="1" fill="#0098DB" />
<rect x="9" y="13" width="1" height="1" fill="#0098DB" />
<rect x="10" y="13" width="1" height="1" fill="#FFFFFF" />
<rect x="21" y="13" width="1" height="1" fill="#FFFFFF" />
<rect x="22" y="13" width="1" height="1" fill="#0098DB" />
<rect x="25" y="13" width="1" height="1" fill="#0098DB" />
<rect x="26" y="13" width="1" height="1" fill="#FFFFFF" />
<rect x="38" y="13" width="1" height="1" fill="#FFFFFF" />
<rect x="39" y="13" width="2" height="1" fill="#0098DB" />
<rect x="41" y="13" width="1" height="1" fill="#FFFFFF" />
<rect x="53" y="13" width="1" height="1" fill="#FFFFFF" />
<rect x="54" y="13" width="1" height="1" fill="#0098DB" />
<rect x="57" y="13" width="1" height="1" fill="#0098DB" />
<rect x="58" y="13" width="1" height="1" fill="#FFFFFF" />
<rect x="6" y="14" width="1" height="1" fill="#FFFFFF" />
<rect x="7" y="14" width="2" height="1" fill="#0098DB" />
<rect x="9" y="14" width="1" height="1" fill="#FFFFFF" />
<rect x="22" y="14" width="1" height="1" fill="#FFFFFF" />
<rect x="23" y="14" width="2" height="1" fill="#0098DB" />
<rect x="25" y="14" width="1" height="1" fill="#FFFFFF" />
<rect x="39" y="14" width="2" height="1" fill="#FFFFFF" />
<rect x="54" y="14" width="1" height="1" fill="#FFFFFF" />
<rect x="55" y="14" width="2" height="1" fill="#0098DB" />
<rect x="57" y="14" width="1" height="1" fill="#FFFFFF" />
<rect x="7" y="15" width="2" height="1" fill="#FFFFFF" />
<rect x="23" y="15" width="2" height="1" fill="#FFFFFF" />
<rect x="55" y="15" width="2" height="1" fill="#FFFFFF" />
</svg>